<?xml version="1.0" encoding="utf-8"?>
<!-- Generator: Adobe Illustrator 26.0.0, SVG Export Plug-In . SVG Version: 6.00 Build 0)  -->
<svg version="1.1" id="_x38_13c2686-e70f-4fb0-bf6b-a2eb7b1db384"
	 xmlns="http://www.w3.org/2000/svg" xmlns:xlink="http://www.w3.org/1999/xlink" x="0px" y="0px" viewBox="0 0 1121 851.8"
	 style="enable-background:new 0 0 1121 851.8;" xml:space="preserve">
<style type="text/css">
	.st0{opacity:0.9;}
	.st1{opacity:0.1;fill:#1BB1DC;enable-background:new    ;}
	.st2{fill:#3F3D56;}
	.st3{opacity:0.1;enable-background:new    ;}
	.st4{fill:#FBBEBE;}
	.st5{fill:#65617D;}
	.st6{fill:#1BB1DC;}
	.st7{fill:#B2B1BB;}
	.st8{opacity:0.2;enable-background:new    ;}
	.st9{opacity:0.1;fill:#CCCCCC;enable-background:new    ;}
	.st10{fill:#464353;}
	.st11{fill:#333F4F;}
	.st12{fill:#2D394A;stroke:#40868E;stroke-miterlimit:10;}
	.st13{opacity:0.2;}
	.st14{opacity:0.1;}
	.st15{fill:url(#SVGID_1_);}
	.st16{fill:#514E7F;}
	.st17{opacity:0.15;enable-background:new    ;}
	.st18{fill:#945B79;}
	.st19{fill:#FFC1C7;}
	.st20{fill:#FF6584;}
	
		.st21{opacity:0.3;fill:none;stroke:#000000;stroke-width:0.75;stroke-miterlimit:10;stroke-dasharray:12;enable-background:new    ;}
	.st22{opacity:0.5;fill:#1BB1DC;enable-background:new    ;}
	.st23{fill:#A3C8CA;}
	.st24{fill:#DFEDF1;}
	.st25{fill:#E8CAAD;}
	.st26{fill:#FFFFFF;}
	.st27{fill:none;}
	.st28{fill:#8D4410;}
	.st29{fill:#6D3C18;}
	.st30{fill:#932027;}
	.st31{fill:#582D13;}
	.st32{fill:#9B1515;}
	.st33{fill:#81481D;}
	.st34{fill:#810909;}
	.st35{fill:#CB2E31;}
	.st36{fill:#1C1D1C;}
	.st37{fill:#DF6728;}
	.st38{fill:#E27F4D;}
	.st39{fill:#C1DADE;}
</style>
<g class="st0">
	<path class="st1" d="M1119.8,402.7c0,0,0,0.1,0,0.1c0,0,0,0,0,0.1c0,0.3-0.1,0.6-0.1,0.9c-0.4,2.4-0.8,4.7-1.3,7.1
		c-3.6,16.2-11,32.2-20.9,46.7c-0.4,0.6-0.8,1.1-1.2,1.7c-0.8,1.1-1.5,2.2-2.3,3.2c-0.6,0.7-1.1,1.5-1.7,2.2
		c-3.9,5-8.1,9.8-12.5,14.4c-2.4,2.5-5,4.8-7.5,7.1l-1.1,1c-1.4,1.2-2.8,2.4-4.2,3.5c-0.6,0.5-1.2,1-1.8,1.5l-1.1,0.8l-0.8,0.6
		c-0.7,0.5-1.4,1-2.1,1.5l-0.5,0.3c-1.7,1.2-3.3,2.3-5.1,3.5c-3.6,2.4-7.4,4.5-11.3,6.5c-1.8,0.9-3.6,1.8-5.4,2.6
		c-2.2,1-4.4,1.9-6.7,2.7c-0.6,0.2-1.2,0.4-1.8,0.7c-1.7,0.6-3.4,1.1-5.2,1.6l-0.9,0.3l-0.4,0.1l0,0l-1.1,0.3
		c-5.1,1.4-10.4,2.5-15.6,3.3l-0.9,0.1l-0.4,0.1c-6.7,1-13.4,1.5-20,1.8c-9.1,0.5-18.3,0.5-27.5,0l-2.5-0.2h-0.5
		c-1.7-0.1-3.5-0.3-5.2-0.5c-1-0.1-2-0.2-3-0.3c-1.5-0.2-3-0.4-4.5-0.6h-0.1l-1.5-0.2c-1.3-0.2-2.6-0.4-3.9-0.7l-1.3-0.2l-2-0.4
		l-0.4-0.1c-4.2-0.9-8.3-2-12.3-3.3l-0.9-0.3c-2.9-1-5.8-2.1-8.6-3.3c-2.1-0.9-4.1-1.9-6.2-2.9c-2.9-1.5-5.7-3-8.4-4.7
		c-3.8-2.3-7.5-4.9-11.1-7.6c-4.7-3.5-9.2-7.3-13.6-11.2l-0.9-0.8l-1.7-1.5c-22.6-20.4-41.6-44.6-56.1-71.4c-1.5-2.8-3-5.7-4.4-8.7
		c-0.4-0.9-0.9-1.8-1.3-2.7c0-0.1-0.1-0.1-0.1-0.2l-0.7-1.4c-1.8-3.9-3.5-7.9-5.1-11.9l-0.7-1.8l-1.1-2.9l-0.5-1.2
		c-1.4-3.7-2.7-7.5-3.9-11.4c-0.2-0.7-0.4-1.3-0.6-2c-0.6-2.1-1.2-4.2-1.8-6.3c-0.5-1.9-1-3.9-1.5-5.9c-0.1-0.3-0.2-0.6-0.2-0.9
		c-4-16.9-5.7-35.1-1.7-53.6c0.3-1.3,0.6-2.5,0.9-3.8c0.5-1.9,1-3.7,1.7-5.6c0.1-0.4,0.3-0.9,0.4-1.3l0.2-0.5c0-0.1,0.1-0.2,0.1-0.3
		c0-0.1,0.1-0.1,0.1-0.2c0.3-0.9,0.7-1.8,1.1-2.8s0.8-1.9,1.2-2.8l0,0l0.1-0.1c0-0.1,0.1-0.2,0.2-0.4c0.3-0.7,0.7-1.4,1-2.1l0.4-0.7
		l0.1-0.4c0.2-0.4,0.4-0.8,0.6-1.1c2.7-5.2,6-10.1,9.7-14.7c2.1-2.5,4.3-5,6.6-7.2c3.5-3.5,7.4-6.6,11.6-9.3
		c0.7-0.4,1.3-0.8,1.9-1.2c5.3-3.2,11.2-5.3,17.4-6.3c7.9-1.1,15.4,0.2,22.6,1.9l0.7,0.2c1.2,0.3,2.4,0.6,3.7,0.9
		c4.2,1.1,8.5,2.2,12.8,3.1c4,0.9,8,1.6,12.1,2.2c4.2,0.5,8.4,0.8,12.5,0.7c0.6,0,1.3,0,1.9-0.1c7.7-0.4,15.3-2,22.5-4.9
		c5.5-2.2,10.5-5.5,14.6-9.7c0.8-0.8,1.6-1.7,2.3-2.6l0,0c1.2-1.6,2.3-3.2,3.2-5c0.3-0.5,0.5-1.1,0.8-1.6l0,0
		c0.1-0.2,0.2-0.4,0.3-0.6l0,0l1.5-3l0,0c0.1-0.1,0.1-0.2,0.2-0.3c0.7-1.4,1.5-2.8,2.2-4.2c3-5.7,6.6-11.1,10.8-15.9l0,0
		c4.4-5,9.9-8.9,16.1-11.5c1-0.4,2-0.8,3.1-1.2c4.7-1.6,9.5-2.5,14.5-2.6c0.6,0,1.2,0,1.7,0c4.9,0.1,9.8,1,14.4,2.6l0,0
		c7.1,2.4,13.8,5.9,19.8,10.3c9.2,6.5,17.5,14.2,24.8,22.8c0.6,0.7,1.2,1.4,1.7,2.1c6.2,7.7,11.8,15.9,16.6,24.5
		c14.5,25.6,23.9,55.6,30.8,86.2l0.3,1.5c0.2,0.7,0.3,1.4,0.5,2.1c0.3,1.5,0.6,3,0.9,4.4c0.2,1.1,0.5,2.2,0.7,3.3l0,0
		c0.2,0.8,0.3,1.6,0.5,2.4c0.1,0.5,0.2,1,0.3,1.5c1.6,8.2,2.9,16.4,3.6,24.8c0,0.3,0,0.6,0.1,0.9
		C1121.4,382.3,1121.2,392.6,1119.8,402.7z"/>
	<path class="st2" d="M1046.9,484c-1.1-0.3-3,1-5.4,3.1c-1.2,1-2.5,2.2-3.9,3.6l-0.7,0.7l-0.3,0.3c-1.9,1.8-3.9,3.8-6.1,5.8
		c-1.4,1.3-2.8,2.5-4.2,3.8c-1.9,1.7-3,6.2-3.5,12.4c-5.1,1.4-10.4,2.5-15.6,3.3l-0.9,0.1l-0.4,0.1c-0.3-1.9-0.5-3.1-0.5-3.1
		s-9-7.5-6.4-16.9c1.5-5.4,16.3-15.5,28.6-23.1c1.5-0.9,3-1.8,4.4-2.7l0.9-0.5c0.6-0.3,1.1-0.7,1.7-1l4.1-2.4
		c2.8-1.6,4.9-2.8,5.6-3.2l0.3-0.2C1044.4,464.1,1049.7,484.7,1046.9,484z"/>
	<path class="st3" d="M1046.9,484c-1.1-0.3-3,1-5.4,3.1c-1.2,1-2.5,2.2-3.9,3.6l-0.7,0.7l-0.3,0.3c-1.9,1.8-3.9,3.8-6.1,5.8
		c-1.4,1.3-2.8,2.5-4.2,3.8c-1.9,1.7-3,6.2-3.5,12.4c-5.1,1.4-10.4,2.5-15.6,3.3l-0.9,0.1l-0.4,0.1c-0.3-1.9-0.5-3.1-0.5-3.1
		s-9-7.5-6.4-16.9c1.5-5.4,16.3-15.5,28.6-23.1c1.5-0.9,3-1.8,4.4-2.7l0.9-0.5c0.6-0.3,1.1-0.7,1.7-1l4.1-2.4
		c2.8-1.6,4.9-2.8,5.6-3.2l0.3-0.2C1044.4,464.1,1049.7,484.7,1046.9,484z"/>
	<path class="st2" d="M1044.7,472.7c0,0-1.8,1.9-4.7,4.9c-1.2,1.2-2.6,2.7-4.1,4.3l-0.1,0.1l-0.8,0.8c-1.8,1.9-3.7,3.9-5.7,6
		c-10.2,10.9-21.8,23.8-21.8,25.8c0,0.8-0.2,1.5-0.5,2.2l-0.9,0.1l-0.4,0.1c-6.7,1-13.4,1.5-20,1.8c-9.1,0.5-18.3,0.5-27.5,0
		l-2.5-0.2h-0.5c-1.7-0.1-3.5-0.3-5.2-0.5c-1-0.1-2-0.2-3-0.3c1.2-1.6,2.4-3.4,3.6-5.1c2.5-3.5,4.9-7.2,6.9-10.5
		c0.1-0.2,0.2-0.4,0.3-0.6c1.2-2,2.3-3.9,3.1-5.5c0.8-1.4,1.3-3,1.6-4.6c0.4-2,1-3.9,1.8-5.7c4.4-11.2,15.9-34,22.4-46.6l0.6-1.1
		l0.6-1.1c2.1-4,3.4-6.6,3.4-6.6l15.8-4.2l1-0.3l3.5-0.9l1.3-0.4l7.4-2h0.1l0.3-0.1l7.9-2.1l2.6-0.7l3-0.8l7.6,13l2.2,32.3
		L1044.7,472.7z"/>
	<path class="st3" d="M937.3,516.3c-3.1-4-4.9-6.5-4.9-6.5s4.4-1.1,10.1-2.7c2.9-0.8,6.2-1.8,9.4-2.8c2-0.7,4-1.4,5.9-2.1
		c1-0.4,1.9-0.7,2.8-1.1c4.1-1.7,7.2-3.5,7.9-5.1c0.1-0.6,0.1-1.3-0.2-1.9c-1-2.9-2.2-5.7-3.7-8.3c-0.5-1-1.1-2.1-1.7-3.2
		c-2-3.6-4.4-7.8-7-12.2c-2.2-3.7-4.5-7.5-6.9-11.4c-2.1-3.4-4.2-6.8-6.3-10.1c-0.1-0.1-0.1-0.2-0.2-0.3
		c-9.5-15.1-18.1-28-18.4-28.5l0,0l-5.6,13.5l-0.2,0.2l-9.2,8.2l-0.2,0.2c-2.9,2.5-6.2,5.5-9.5,8.5c-2.5,2.2-5,4.5-7.3,6.6
		c-3.4,3.1-6.6,6-9.2,8.3c-2.2,1.9-4.3,3.9-6.2,6c-1.7,3.5-3,7.1-4,10.8c4.4,3.9,8.9,7.7,13.6,11.2c3.6,2.7,7.3,5.2,11.1,7.5
		c2.7,1.7,5.5,3.2,8.4,4.7c2,1,4.1,2,6.2,2.9c2.8,1.2,5.7,2.3,8.6,3.3l0.9,0.3c4,1.3,8.1,2.4,12.3,3.3l0.4,0.1l2,0.4L937.3,516.3z"
		/>
	<path class="st2" d="M1014,421.5l-0.9,1.4c-0.4,0.6-0.8,1.3-1.4,2.2s-1.4,2.1-2.2,3.5l-0.6,1c-1.5,2.3-3.2,4.9-5,7.8
		c-0.2,0.4-0.5,0.7-0.7,1.1s-0.5,0.7-0.7,1.1c-12,18.8-29.7,46.7-34.2,54.7c-0.4,0.6-0.7,1.2-1,1.9c-0.6,1.4-3.1,3-6.7,4.6
		c-0.8,0.4-1.6,0.7-2.5,1.1c-1.9,0.8-4.1,1.5-6.2,2.2c-3.2,1.1-6.4,2-9.4,2.9c-6.3,1.8-11.2,3-11.2,3s1.7,2.3,4.7,6.2l-2-0.4
		l-0.4-0.1c-4.2-0.9-8.3-2-12.3-3.3l-0.9-0.3c-2.9-1-5.8-2.1-8.6-3.3c-2.1-0.9-4.1-1.9-6.2-2.9c-2.9-1.5-5.7-3-8.4-4.7
		c-3.8-2.3-7.5-4.9-11.1-7.6c-4.7-3.5-9.2-7.3-13.6-11.2l-0.9-0.8c1-3.4,2.3-6.8,3.8-10c0-0.2,2.9-3,7.2-6.9
		c2.7-2.4,5.8-5.3,9.2-8.3l7.3-6.6l8.7-7.8l0.2-0.2l9-8l0.2-0.2l5.6-13.5h1.1l20.5,0.3h0.1h2h1.1l6.4,0.1l7.6,0.1l8.9,0.1l34.9,0.5
		h1.1l6.6,0.1L1014,421.5z"/>
	<path class="st4" d="M1014.6,282.2l-3.4,30.7c0,0-34.6,13.8-35.5,13.5s-23.1-20.3-19.4-33.5c1.8-6.6,2.7-15.8,3.1-23.3
		s0.3-13.2,0.3-13.2s50.4-18,45.9-5.6c-1.6,4.5-0.9,9.9,0.7,14.9C1008.3,271.5,1011.1,277,1014.6,282.2z"/>
	<path class="st3" d="M1006.3,265.6c-0.3,0.4-0.6,0.7-0.9,1c-12.2,12.9-32.3,14.2-46,2.9c0.4-7.5,0.3-13.2,0.3-13.2
		s50.4-18,45.9-5.6C1004,255.1,1004.7,260.5,1006.3,265.6z"/>
	<path class="st4" d="M1014.6,242.3c0,18.6-15.1,33.8-33.8,33.7c-18.6,0-33.8-15.1-33.7-33.8c0-18.6,15.1-33.7,33.7-33.7
		c18.5-0.1,33.7,14.8,33.8,33.3C1014.6,242,1014.6,242.1,1014.6,242.3z"/>
	<path class="st3" d="M972.9,314c0,0-13.2-29.3-17.7-29.3s-11.5,151.6-11.5,151.6l69,1.1l2.8-79.6l-14.1-70.6
		C1001.4,287.2,988.7,315.1,972.9,314z"/>
	<path class="st3" d="M972.9,316.3c0,0-13.2-29.3-17.7-29.3s-11.5,151.7-11.5,151.7l78.2,1.2l-6.5-79.7l-14.1-70.6
		C1001.4,289.5,988.7,317.4,972.9,316.3z"/>
	<path class="st5" d="M972.9,315.1c0,0-13.2-29.3-17.7-29.3s-11.5,151.6-11.5,151.6l78.2,1.2l-6.5-79.8l-14.1-70.6
		C1001.4,288.3,988.7,316.2,972.9,315.1z"/>
	<path class="st3" d="M960.1,276.6c0,0-2.4-3.5-5.7-2.3s-5.9-2-9.3,1.1s-16.9,7.3-19.4,5.9s-11.5,4.8-13.5,8.5s-8.5,13.5-8.5,13.5
		s-5.6,6.8-4.8,10.4s-2,7.9-5.3,9.6s-10.1,18.6-10.1,18.6s1.8,22.6-5.8,26.5s-2,21.1-2,21.1l35.9-8.5l10.2-23.1
		c0,0-3.9,67.5-8.7,73.7s-5.3,10.1-5.3,10.1s18.6,3.9,22.5,7.3s14.4-0.8,14.4-0.8l10.1-89.8c0,0,3.7-16.9,3.7-25.6
		S960.1,276.6,960.1,276.6z"/>
	<path class="st6" d="M959,276.6c0,0-2.4-3.5-5.8-2.3s-5.9-2-9.3,1.1s-16.9,7.3-19.4,5.9s-11.5,4.8-13.5,8.5s-8.4,13.5-8.4,13.5
		s-5.6,6.8-4.8,10.4s-2,7.9-5.3,9.6s-10.1,18.6-10.1,18.6s1.8,22.6-5.8,26.5c-1.9,1-3,3.2-3.5,5.9c-2.2,11,6.9,21.1,18.1,20.8
		l19.3-8l10.1-29.2c0,0-3.9,67.5-8.7,73.7s-5.3,10.1-5.3,10.1s18.6,3.9,22.5,7.3s14.3-0.8,14.3-0.8l10.1-89.8c0,0,3.7-16.9,3.7-25.6
		S959,276.6,959,276.6z"/>
	<path class="st3" d="M896.9,325.5c0,0,3.4,9.3,12.7,8.5S896.9,325.5,896.9,325.5z"/>
	<path class="st3" d="M906,311.4c0,0,6.2,1.1,8.4,6.5S906,311.4,906,311.4z"/>
	<path class="st3" d="M923.4,301.9c0,1.1,3.9,20.8,0,29s-3.4,17.7-3.4,17.7L923.4,301.9z"/>
	<path class="st3" d="M1006.5,269.8c0,0,2.2-2.6,4.5-2.3s3.7,1.7,6.5,2.8s9.6,1.4,9.6,2.2s5.9,4.2,9.9,5.1s16.3,9.3,19.4,25.6
		s8.4,21.1,8.4,21.1l-29.8,14.6c0,0,23.1,98,25.9,105s3.1,48.7,3.1,48.7s-18.3,8.2-23.1,10.7s-2.8-24.2-12.7-39.7s-21.1-38-21.1-38
		l-17.2-48.1c0,0-11-64.2-1.7-76S1007.3,274.1,1006.5,269.8z"/>
	<path class="st6" d="M1065,492.1c0,0.4,0,0.6,0,0.6l-1.1,0.5l-0.8,0.3l-7.6,3.5c-4.2,1.9-8.8,4-11.7,5.5c-0.7,0.3-1.3,0.7-1.8,0.9
		c-0.3,0.2-0.8,0.2-1.1,0c-1.5-1-2.2-6.1-3.2-12.7c-0.4-2.7-0.9-5.7-1.6-8.8c-0.1-0.5-0.2-1-0.3-1.4c-0.7-3.3-1.7-6.5-2.9-9.6
		c-0.9-2.5-2.1-4.9-3.5-7.1c-1.3-2-2.6-4.2-3.9-6.4c-3.5-5.9-7-12.2-9.9-17.6c-0.2-0.4-0.4-0.8-0.6-1.1c-0.7-1.4-1.4-2.7-2.1-3.9
		c-1.3-2.5-2.4-4.6-3.2-6.2l-1.3-2.5c0-0.1-0.1-0.2-0.1-0.3l-1.6-4.3l-3-8.4l-3.5-9.8l-1.7-4.6l-1.2-3.4l-0.4-1.1l-5.9-16.6
		c0,0-0.4-2.4-1-6.4c-1.6-10.4-4.4-31.7-4.4-48.3c0-4.1,0.2-8.1,0.7-12.1c0.1-0.4,0.1-0.9,0.2-1.3s0.2-0.9,0.2-1.4
		c0.4-2.3,1.2-4.6,2.6-6.5c9.3-11.8,19.2-27.5,18.3-31.7l0.2-0.2c0.4-0.4,0.9-0.8,1.4-1.2c0.6-0.4,1.3-0.7,2-0.9c0.3,0,0.6,0,0.9,0
		l0,0c2.2,0.3,3.7,1.7,6.5,2.8s9.6,1.4,9.6,2.2s5.9,4.2,9.8,5.1s16.3,9.3,19.4,25.6c3,15.7,8.1,20.7,8.4,21.1l0,0l-1.1,0.5
		l-16.9,8.3l-3.6,1.8l-8.2,4c0,0,2.1,9.1,5.2,21.9c0,0.2,0.1,0.4,0.1,0.5c0.1,0.4,0.2,0.8,0.3,1.2c2.2,9.4,4.9,20.6,7.6,31.6l0,0
		l0.2,1l0.8,3.2c0.2,1,0.5,2,0.7,3l0.4,1.6c0.7,3.1,1.5,6.1,2.2,9c1.1,4.3,2.1,8.4,3,12.2c2.6,10.4,4.6,18,5.3,19.7
		c1,2.6,1.7,9.8,2.2,18C1064.8,474.5,1064.9,489.1,1065,492.1z"/>
	<path class="st3" d="M1068.6,393.1c-0.8,0.1-1.9,0.3-3.1,0.4c-9,0.8-26.7,1-26.7,1s-13.2-26.2-24.5-25.3c0,0,10.4-11.8,14.6-10.4
		c0.7,0.2,1.1-0.3,1.4-1.3c1.1-5-2.8-22.4-2.8-22.4l-5.3-23.4l31,7.6c2.8,0.6,11.5,5.1,11.5,5.1s0.3,12.1,2.5,14.9
		s4.8,16.3,4.5,19.7s3.1,19.1-0.3,23.4S1075.7,391.9,1068.6,393.1z"/>
	<path class="st6" d="M1069.8,393.1c-0.8,0.1-1.9,0.3-3.1,0.4c-9,0.8-26.7,1-26.7,1s-13.2-26.2-24.5-25.3c0,0,10.4-11.8,14.6-10.4
		c0.7,0.2,1.2-0.3,1.4-1.3c1.1-5-2.8-22.4-2.8-22.4l-5.3-23.4l31,7.6c2.8,0.6,11.5,5.1,11.5,5.1s0.3,12.1,2.5,14.9
		s4.8,16.3,4.5,19.7s3.1,19.1-0.3,23.4S1076.8,391.9,1069.8,393.1z"/>
	<path class="st3" d="M1038,331.7c0,0,25.9,2.8,27,9.3S1038,331.7,1038,331.7z"/>
	<path class="st3" d="M1014.6,242.3c0,8.6-3.3,16.9-9.2,23.2c0,0-0.1-0.1-0.1-0.2c-1-2.1-2-4.4-1.9-6.7c0.1-2.8,1.7-5.4,2.2-8.2
		c0.7-3.5-0.5-7.1-1.6-10.5c-0.8-2.5-2.4-5.5-5.1-5.2c-0.5,0.1-1,0.2-1.6,0.2c-1.4-0.2-1.7-2-1.8-3.4c-0.9-6.8-6-12.2-12.7-13.4
		c-0.7-0.2-1.5-0.1-2.2,0.1c-1,0.4-1.5,1.5-2.4,2.1c-2.9,2-6.5-1.8-10-1.5c-3,0.2-4.8,3.3-6,6s-2.7,5.8-5.6,6.4
		c-0.5,0.1-1,0.1-1.4-0.1c-0.9-0.7-0.3-2,0.2-3.1c1.2-2.7,0.4-4.8-1.1-6.7c11.6-14.6,32.9-17,47.4-5.3
		C1009.9,222.3,1014.5,232,1014.6,242.3L1014.6,242.3z"/>
	<path class="st7" d="M905.6,505.9c-2.9-1.5-5.7-3-8.4-4.7c-3.8-2.3-7.5-4.9-11.1-7.6l-3.5-28l-0.1-0.9l-6.5-53.3l-0.4-3.1l10.9-0.3
		l7.7-0.2l0.5,4.5l4.4,37.5l0.1,0.9L905.6,505.9z"/>
	<path class="st3" d="M897.2,501.2c-3.8-2.3-7.5-4.9-11.1-7.6l-3.5-28l-0.1-0.9l-6.5-53.3l-0.4-3.1l10.9-0.3l-0.5,1.7l0.3,2.2
		l5.5,44.5l0.1,0.9L897.2,501.2z"/>
	<path class="st7" d="M972.1,408.8l-0.6,4.8l-0.9,7.2l-2,15.9l-0.1,1.1l-0.1,1.1l-5.5,43.6l-1.7,13.6l-0.6,4.5l-0.1,0.5l-2.2,17.7
		l-2.5-0.2h-0.5c-1.7-0.1-3.5-0.3-5.2-0.5c-1-0.1-2-0.2-3-0.3c-1.5-0.2-3-0.4-4.5-0.6h-0.1l-1.5-0.2l1.4-9.9v-0.3l6.4-47.9l2.7-20.3
		l0.2-1.1l0.2-1.1l2.1-15.9l0.9-6.7l0.5-3.9l0.7,0L972.1,408.8z"/>
	<path class="st8" d="M962.8,411.4l-0.3,2.4l-0.8,6.9l-1.9,15.9l-0.1,1.1l-0.2,1.2l-3.7,31.5l-4,33.6v0.4l-1,8.4l-0.6,5.5
		c-1-0.1-2-0.2-3-0.3c-1.5-0.2-3-0.4-4.5-0.6h-0.1l-1.5-0.2l1.4-9.9v-0.3l6.4-47.9l2.7-20.3l0.2-1.1l0.2-1.1l2.1-15.9l0.9-6.7
		l0.5-3.9l0.7,0L962.8,411.4z"/>
	<path class="st5" d="M1043.7,502.5l0.4,2.9c-1.8,0.9-3.6,1.8-5.4,2.6c-2.2,1-4.4,1.9-6.7,2.7l-1.7-13.2l-1.1-8.6l-1.9-14.8
		l-1.8-14.3l-0.3-2.4l-4.4-34.8l-0.8-6.1l-0.2-2l-0.2-1.8l-0.5-4.2h0.3h0.1l7.6-0.8l2.4-0.2l0.8,5.1l1.1,7.2l7.1,47.7l1.5,10.1
		l1.4,9.5l2.2,14.9L1043.7,502.5z"/>
	<path class="st9" d="M1043.7,502.5l0.4,2.9c-1.8,0.9-3.6,1.8-5.4,2.6c-2.2,1-4.4,1.9-6.7,2.7l-1.7-13.2l-1.1-8.6l-1.9-14.8
		l-1.8-14.3l-0.3-2.4l-4.4-34.8l-0.8-6.1l-0.2-2l-0.2-1.8l-0.5-4.2h0.3h0.1l7.6-0.8l2.4-0.2l0.8,5.1l1.1,7.2l7.1,47.7l1.5,10.1
		l1.4,9.5l2.2,14.9L1043.7,502.5z"/>
	<path class="st7" d="M1044.2,505.4c-1.8,0.9-3.6,1.8-5.4,2.6l-1.1-9.9l-0.8-6.7l-1.1-9.3l-0.2-1.6l-1.2-10.6l-5.7-49.4l-0.9-7.9
		l-0.3-2.6l-0.5-2.3l2.4-0.2l0.8,5.1l1.1,7.2l7.1,47.7l1.5,10.1l1.4,9.5l2.2,14.9l0.1,0.5L1044.2,505.4z"/>
	<path class="st5" d="M1068.1,408l-0.1,3.8l-1.2,78.9c-0.6,0.5-1.2,1-1.8,1.5c0,0.4,0,0.6,0,0.6l-1.1,0.5l-0.8,0.3
		c-0.7,0.5-1.4,1-2.1,1.5l-0.5,0.3c-1.7,1.2-3.3,2.3-5.1,3.5V497v-0.5l1-68l0.1-4.2l0.2-12.3l0.1-5.5l7.6,1L1068.1,408z"/>
	<path class="st9" d="M1068.1,408l-0.1,3.8l-1.2,78.9c-0.6,0.5-1.2,1-1.8,1.5c0,0.4,0,0.6,0,0.6l-1.1,0.5l-0.8,0.3
		c-0.7,0.5-1.4,1-2.1,1.5l-0.5,0.3c-1.7,1.2-3.3,2.3-5.1,3.5V497v-0.5l1-68l0.1-4.2l0.2-12.3l0.1-5.5l7.6,1L1068.1,408z"/>
	<path class="st7" d="M1068.1,408l-0.1,3.8l-1.2,78.9c-0.6,0.5-1.2,1-1.8,1.5c0,0.4,0,0.6,0,0.6l-1.1,0.5V493l0.2-31l0.3-50.1v-4.4
		L1068.1,408z"/>
	<path class="st5" d="M1119.7,402.9C1119.7,402.9,1119.7,402.9,1119.7,402.9c0,0.4-0.1,0.6-0.1,0.9c-0.4,2.4-0.8,4.7-1.3,7.1
		l-50.2,0.9l-3.7,0.1l-7.6,0.1l-3.2,0.1h-1.1l-22.1,0.4h-2.4l-8,0.1h-0.2l-6.1,0.1l-9.9,0.2h-1.1l0,0l-31,0.6l-9,0.2l-7.6,0.1
		l-6.6,0.1h-1.1h-2.4h-0.1l-5,0.1l-22.8-1l-1.1,0l-21.2-0.9l-8.4-0.4l-10.3-0.5l-62.2-2.7c-1.5-2.8-3-5.7-4.4-8.7
		c-0.4-0.9-0.9-1.8-1.3-2.7l63.3-1l0,0l39-0.6l0,0l7.4-0.1h1.1l20-0.3l6.8,0.4h0.1l3.4,0.2l1.1,0.1l13.7,0.8l0,0l33.2,1.8l1.2,0.1
		l15.5,0.9l4.7,0.3h0.1l31,1.7l1.1,0.1h0.2L1119.7,402.9z"/>
	<path class="st7" d="M1119.7,402.9C1119.7,402.9,1119.7,402.9,1119.7,402.9c0,0.4-0.1,0.6-0.1,0.9c-0.4,2.4-0.8,4.7-1.3,7.1
		l-50.2,0.9l-3.6,0.1l-7.6,0.1l-3.2,0.1h-1.1l-22.1,0.4h-2.4l-8,0.1h-0.2l-6.1,0.1l-9.9,0.2h-1.1l0,0l-31,0.6l-9,0.2l-7.6,0.1
		l-6.6,0.1h-1.1h-2.4h-0.1l-5,0.1l-22.8-1h-1.1l-21.2-0.9l-8.4-0.4l-10.3-0.4l-62.2-2.7c-1.5-2.8-3-5.7-4.4-8.7
		c-0.4-0.9-0.9-1.8-1.3-2.7l63.3-1l0,0l39-0.6l0,0l7.4-0.1h1.1l20-0.3l6.8,0.4h0.1l3.4,0.2l1.1,0.1l13.7,0.8l0,0l33.2,1.8l1.1,0.1
		l15.5,0.9l4.7,0.3h0.1l31,1.7l1.1,0.1h0.2L1119.7,402.9z"/>
	<path class="st3" d="M1119.7,402.9C1119.7,402.9,1119.7,402.9,1119.7,402.9l-68.4,0.2h-1.1l-31.2,0.1h-5.2h-13.7H999l-49.4,0.1
		h-4.3l-27.2,0.1H917l-28.5,0.1l-79.2-3.4c-0.4-0.9-0.9-1.8-1.3-2.7l63.3-1l0,0l39-0.6l0,0l7.4-0.1h1.1l20-0.3l6.8,0.4h0.1l3.4,0.2
		l1.1,0.1l13.7,0.8l0,0l33.2,1.8l1.1,0.1l15.5,0.9l4.7,0.3h0.1l31,1.7l1.1,0.1h0.2L1119.7,402.9z"/>
	<path class="st3" d="M1053.4,357c1.7,0.6,11.5,3.1,13.5,9S1053.4,357,1053.4,357z"/>
	<path class="st4" d="M1024.4,366.9c0,0-14.3,4.4-20.8,4.4s-31.8-0.1-31.8-0.1s-66.2-22.1-46.3,8.2s51.2,13.4,51.2,13.4
		s2.5,0.6,5.6,1.3c3.1,0.7,62.9,0.1,64.9-2.2S1024.4,366.9,1024.4,366.9z"/>
	<path class="st3" d="M1065.5,393.4c-9,0.8-26.7,1-26.7,1s-13.2-26.2-24.5-25.3c0,0,10.4-11.8,14.6-10.4c0.7,0.2,1.1-0.3,1.4-1.3
		c11,3.4,32,11.6,34.1,26.1C1065,387.4,1065.3,390.6,1065.5,393.4z"/>
	<path class="st10" d="M1066.6,393.4c-9,0.8-26.7,1-26.7,1s-13.2-26.2-24.5-25.3c0,0,10.4-11.8,14.6-10.4c0.7,0.2,1.2-0.3,1.4-1.3
		c11,3.4,32,11.6,34.1,26.1C1066.1,387.4,1066.4,390.6,1066.6,393.4z"/>
	<path class="st3" d="M1065.5,393.4c-9,0.8-26.7,1-26.7,1s-13.2-26.2-24.5-25.3c0,0,10.4-11.8,14.6-10.4c0.7,0.2,1.1-0.3,1.4-1.3
		c11,3.4,32,11.6,34.1,26.1C1065,387.4,1065.3,390.7,1065.5,393.4z"/>
	<path class="st3" d="M987.6,468.8c0,0,25.3-6.2,29.3-2.8S987.6,468.8,987.6,468.8z"/>
	<path class="st3" d="M915,493c0,0,10.7,6.2,11.8,11.3S915,493,915,493z"/>
	<path class="st11" d="M869.7,282.9v110.9c0,1.9,1,2.2,2.7,3.1c5.6,3.1,19.5,8.7,36.1-0.1c1.7-0.9,2.8-1.2,2.8-3.1V283.6
		C911.3,283.6,890.1,292.1,869.7,282.9z"/>
	<ellipse class="st12" cx="890.5" cy="282.8" rx="20.8" ry="4.4"/>
	<g class="st13">
		<circle cx="871.6" cy="329" r="0.5"/>
		<circle cx="873.9" cy="329.6" r="0.5"/>
		<circle cx="876.9" cy="330.5" r="0.5"/>
		<circle cx="882.1" cy="331.7" r="0.5"/>
		<circle cx="887.6" cy="332.3" r="0.5"/>
		<circle cx="893.4" cy="332.6" r="0.5"/>
		<circle cx="901.6" cy="331.5" r="0.5"/>
		<circle cx="898.9" cy="332.1" r="0.5"/>
		<circle cx="906.7" cy="330.5" r="0.5"/>
		<circle cx="904.2" cy="331" r="0.5"/>
		<circle cx="909.4" cy="329.6" r="0.5"/>
		<circle cx="879.5" cy="331.2" r="0.5"/>
		<circle cx="885" cy="332.1" r="0.5"/>
		<circle cx="890.8" cy="332.6" r="0.5"/>
		<circle cx="896.2" cy="332.6" r="0.5"/>
	</g>
	<g class="st13">
		<circle cx="871.6" cy="331.2" r="0.5"/>
		<circle cx="873.9" cy="331.9" r="0.5"/>
		<circle cx="876.9" cy="332.8" r="0.5"/>
		<circle cx="882.1" cy="334" r="0.5"/>
		<circle cx="887.6" cy="334.6" r="0.5"/>
		<circle cx="893.4" cy="334.9" r="0.5"/>
		<circle cx="901.6" cy="333.8" r="0.5"/>
		<circle cx="898.9" cy="334.4" r="0.5"/>
		<circle cx="906.7" cy="332.8" r="0.5"/>
		<circle cx="904.2" cy="333.3" r="0.5"/>
		<circle cx="909.4" cy="331.9" r="0.5"/>
		<circle cx="879.5" cy="333.5" r="0.5"/>
		<circle cx="885" cy="334.4" r="0.5"/>
		<circle cx="890.8" cy="334.9" r="0.5"/>
		<circle cx="896.2" cy="334.9" r="0.5"/>
	</g>
	<g class="st13">
		<circle cx="871.6" cy="333.5" r="0.5"/>
		<circle cx="873.9" cy="334.2" r="0.5"/>
		<circle cx="876.9" cy="335.1" r="0.5"/>
		<circle cx="882.1" cy="336.3" r="0.5"/>
		<circle cx="887.6" cy="336.9" r="0.5"/>
		<circle cx="893.4" cy="337.2" r="0.5"/>
		<circle cx="901.6" cy="336.1" r="0.5"/>
		<circle cx="898.9" cy="336.7" r="0.5"/>
		<circle cx="906.7" cy="335.1" r="0.5"/>
		<circle cx="904.2" cy="335.6" r="0.5"/>
		<circle cx="909.4" cy="334.2" r="0.5"/>
		<circle cx="879.5" cy="335.8" r="0.5"/>
		<circle cx="885" cy="336.7" r="0.5"/>
		<circle cx="890.8" cy="337.2" r="0.5"/>
		<circle cx="896.2" cy="337.2" r="0.5"/>
	</g>
	<g class="st13">
		<circle cx="871.6" cy="335.8" r="0.5"/>
		<circle cx="873.9" cy="336.5" r="0.5"/>
		<circle cx="876.9" cy="337.4" r="0.5"/>
		<circle cx="882.1" cy="338.6" r="0.5"/>
		<circle cx="887.6" cy="339.2" r="0.5"/>
		<circle cx="893.4" cy="339.5" r="0.5"/>
		<circle cx="901.6" cy="338.4" r="0.5"/>
		<circle cx="898.9" cy="339" r="0.5"/>
		<circle cx="906.7" cy="337.4" r="0.5"/>
		<circle cx="904.2" cy="337.9" r="0.5"/>
		<circle cx="909.4" cy="336.5" r="0.5"/>
		<circle cx="879.5" cy="338.1" r="0.5"/>
		<circle cx="885" cy="339" r="0.5"/>
		<circle cx="890.8" cy="339.5" r="0.5"/>
		<circle cx="896.2" cy="339.5" r="0.5"/>
	</g>
	<g class="st13">
		<circle cx="871.6" cy="338.1" r="0.5"/>
		<circle cx="873.9" cy="338.8" r="0.5"/>
		<circle cx="876.9" cy="339.7" r="0.5"/>
		<circle cx="882.1" cy="340.9" r="0.5"/>
		<circle cx="887.6" cy="341.5" r="0.5"/>
		<circle cx="893.4" cy="341.8" r="0.5"/>
		<circle cx="901.6" cy="340.7" r="0.5"/>
		<circle cx="898.9" cy="341.3" r="0.5"/>
		<circle cx="906.7" cy="339.7" r="0.5"/>
		<circle cx="904.2" cy="340.2" r="0.5"/>
		<circle cx="909.4" cy="338.8" r="0.5"/>
		<circle cx="879.5" cy="340.4" r="0.5"/>
		<circle cx="885" cy="341.3" r="0.5"/>
		<circle cx="890.8" cy="341.8" r="0.5"/>
		<circle cx="896.2" cy="341.8" r="0.5"/>
	</g>
	<g class="st13">
		<circle cx="871.6" cy="340.4" r="0.5"/>
		<circle cx="873.9" cy="341.1" r="0.5"/>
		<circle cx="876.9" cy="342" r="0.5"/>
		<circle cx="882.1" cy="343.1" r="0.5"/>
		<circle cx="887.6" cy="343.8" r="0.5"/>
		<circle cx="893.4" cy="344.1" r="0.5"/>
		<circle cx="901.6" cy="343" r="0.5"/>
		<circle cx="898.9" cy="343.6" r="0.5"/>
		<circle cx="906.7" cy="342" r="0.5"/>
		<circle cx="904.2" cy="342.5" r="0.5"/>
		<circle cx="909.4" cy="341.1" r="0.5"/>
		<circle cx="879.5" cy="342.7" r="0.5"/>
		<circle cx="885" cy="343.6" r="0.5"/>
		<circle cx="890.8" cy="344.1" r="0.5"/>
		<circle cx="896.2" cy="344.1" r="0.5"/>
	</g>
	<g class="st13">
		<circle cx="871.6" cy="342.7" r="0.5"/>
		<circle cx="873.9" cy="343.4" r="0.5"/>
		<circle cx="876.9" cy="344.3" r="0.5"/>
		<circle cx="882.1" cy="345.5" r="0.5"/>
		<circle cx="887.6" cy="346.1" r="0.5"/>
		<circle cx="893.4" cy="346.4" r="0.5"/>
		<circle cx="901.6" cy="345.2" r="0.5"/>
		<circle cx="898.9" cy="345.9" r="0.5"/>
		<circle cx="906.7" cy="344.3" r="0.5"/>
		<circle cx="904.2" cy="344.8" r="0.5"/>
		<circle cx="909.4" cy="343.4" r="0.5"/>
		<circle cx="879.5" cy="345" r="0.5"/>
		<circle cx="885" cy="345.9" r="0.5"/>
		<circle cx="890.8" cy="346.4" r="0.5"/>
		<circle cx="896.2" cy="346.4" r="0.5"/>
	</g>
	<g class="st13">
		<circle cx="871.6" cy="345" r="0.5"/>
		<circle cx="873.9" cy="345.7" r="0.5"/>
		<circle cx="876.9" cy="346.6" r="0.5"/>
		<circle cx="882.1" cy="347.7" r="0.5"/>
		<circle cx="887.6" cy="348.4" r="0.5"/>
		<circle cx="893.4" cy="348.7" r="0.5"/>
		<circle cx="901.6" cy="347.5" r="0.5"/>
		<circle cx="898.9" cy="348.2" r="0.5"/>
		<circle cx="906.7" cy="346.6" r="0.5"/>
		<circle cx="904.2" cy="347.1" r="0.5"/>
		<circle cx="909.4" cy="345.7" r="0.5"/>
		<circle cx="879.5" cy="347.3" r="0.5"/>
		<circle cx="885" cy="348.2" r="0.5"/>
		<circle cx="890.8" cy="348.7" r="0.5"/>
		<circle cx="896.2" cy="348.7" r="0.5"/>
	</g>
	<g class="st13">
		<circle cx="871.6" cy="347.3" r="0.5"/>
		<circle cx="873.9" cy="348" r="0.5"/>
		<circle cx="876.9" cy="348.9" r="0.5"/>
		<circle cx="882.1" cy="350" r="0.5"/>
		<circle cx="887.6" cy="350.7" r="0.5"/>
		<circle cx="893.4" cy="351" r="0.5"/>
		<circle cx="901.6" cy="349.8" r="0.5"/>
		<circle cx="898.9" cy="350.5" r="0.5"/>
		<circle cx="906.7" cy="348.9" r="0.5"/>
		<circle cx="904.2" cy="349.4" r="0.5"/>
		<circle cx="909.4" cy="348" r="0.5"/>
		<circle cx="879.5" cy="349.6" r="0.5"/>
		<circle cx="885" cy="350.5" r="0.5"/>
		<circle cx="890.8" cy="351" r="0.5"/>
		<circle cx="896.2" cy="351" r="0.5"/>
	</g>
	<g class="st13">
		<circle cx="871.6" cy="349.6" r="0.5"/>
		<circle cx="873.9" cy="350.3" r="0.5"/>
		<circle cx="876.9" cy="351.2" r="0.5"/>
		<circle cx="882.1" cy="352.3" r="0.5"/>
		<circle cx="887.6" cy="353" r="0.5"/>
		<circle cx="893.4" cy="353.3" r="0.5"/>
		<circle cx="901.6" cy="352.1" r="0.5"/>
		<circle cx="898.9" cy="352.8" r="0.5"/>
		<circle cx="906.7" cy="351.2" r="0.5"/>
		<circle cx="904.2" cy="351.7" r="0.5"/>
		<circle cx="909.4" cy="350.3" r="0.5"/>
		<circle cx="879.5" cy="351.9" r="0.5"/>
		<circle cx="885" cy="352.8" r="0.5"/>
		<circle cx="890.8" cy="353.3" r="0.5"/>
		<circle cx="896.2" cy="353.3" r="0.5"/>
	</g>
	<g class="st13">
		<circle cx="871.6" cy="351.9" r="0.5"/>
		<circle cx="873.9" cy="352.6" r="0.5"/>
		<circle cx="876.9" cy="353.5" r="0.5"/>
		<circle cx="882.1" cy="354.6" r="0.5"/>
		<circle cx="887.6" cy="355.3" r="0.5"/>
		<circle cx="893.4" cy="355.6" r="0.5"/>
		<circle cx="901.6" cy="354.4" r="0.5"/>
		<circle cx="898.9" cy="355.1" r="0.5"/>
		<circle cx="906.7" cy="353.5" r="0.5"/>
		<circle cx="904.2" cy="354" r="0.5"/>
		<circle cx="909.4" cy="352.6" r="0.5"/>
		<circle cx="879.5" cy="354.2" r="0.5"/>
		<circle cx="885" cy="355.1" r="0.5"/>
		<circle cx="890.8" cy="355.6" r="0.5"/>
		<circle cx="896.2" cy="355.6" r="0.5"/>
	</g>
	<g class="st13">
		<circle cx="871.6" cy="354.2" r="0.5"/>
		<circle cx="873.9" cy="354.9" r="0.5"/>
		<circle cx="876.9" cy="355.8" r="0.5"/>
		<circle cx="882.1" cy="356.9" r="0.5"/>
		<circle cx="887.6" cy="357.6" r="0.5"/>
		<circle cx="893.4" cy="357.9" r="0.5"/>
		<circle cx="901.6" cy="356.7" r="0.5"/>
		<circle cx="898.9" cy="357.4" r="0.5"/>
		<circle cx="906.7" cy="355.8" r="0.5"/>
		<circle cx="904.2" cy="356.3" r="0.5"/>
		<circle cx="909.4" cy="354.9" r="0.5"/>
		<circle cx="879.5" cy="356.5" r="0.5"/>
		<circle cx="885" cy="357.4" r="0.5"/>
		<circle cx="890.8" cy="357.9" r="0.5"/>
		<circle cx="896.2" cy="357.9" r="0.5"/>
	</g>
	<g class="st13">
		<circle cx="871.6" cy="356.5" r="0.5"/>
		<circle cx="873.9" cy="357.2" r="0.5"/>
		<circle cx="876.9" cy="358.1" r="0.5"/>
		<circle cx="882.1" cy="359.2" r="0.5"/>
		<circle cx="887.6" cy="359.9" r="0.5"/>
		<circle cx="893.4" cy="360.1" r="0.5"/>
		<circle cx="901.6" cy="359" r="0.5"/>
		<circle cx="898.9" cy="359.7" r="0.5"/>
		<circle cx="906.7" cy="358.1" r="0.5"/>
		<circle cx="904.2" cy="358.6" r="0.5"/>
		<circle cx="909.4" cy="357.2" r="0.5"/>
		<circle cx="879.5" cy="358.8" r="0.5"/>
		<circle cx="885" cy="359.7" r="0.5"/>
		<circle cx="890.8" cy="360.1" r="0.5"/>
		<circle cx="896.2" cy="360.1" r="0.5"/>
	</g>
	<g class="st13">
		<circle cx="871.6" cy="358.8" r="0.5"/>
		<circle cx="873.9" cy="359.5" r="0.5"/>
		<circle cx="876.9" cy="360.4" r="0.5"/>
		<circle cx="882.1" cy="361.5" r="0.5"/>
		<circle cx="887.6" cy="362.2" r="0.5"/>
		<circle cx="893.4" cy="362.5" r="0.5"/>
		<circle cx="901.6" cy="361.3" r="0.5"/>
		<circle cx="898.9" cy="362" r="0.5"/>
		<circle cx="906.7" cy="360.4" r="0.5"/>
		<circle cx="904.2" cy="360.9" r="0.5"/>
		<circle cx="909.4" cy="359.5" r="0.5"/>
		<circle cx="879.5" cy="361" r="0.5"/>
		<circle cx="885" cy="362" r="0.5"/>
		<circle cx="890.8" cy="362.5" r="0.5"/>
		<circle cx="896.2" cy="362.5" r="0.5"/>
	</g>
	<g class="st13">
		<circle cx="871.6" cy="361.1" r="0.5"/>
		<circle cx="873.9" cy="361.8" r="0.5"/>
		<circle cx="876.9" cy="362.7" r="0.5"/>
		<circle cx="882.1" cy="363.8" r="0.5"/>
		<circle cx="887.6" cy="364.5" r="0.5"/>
		<circle cx="893.4" cy="364.8" r="0.5"/>
		<circle cx="901.6" cy="363.6" r="0.5"/>
		<circle cx="898.9" cy="364.3" r="0.5"/>
		<circle cx="906.7" cy="362.7" r="0.5"/>
		<circle cx="904.2" cy="363.1" r="0.5"/>
		<circle cx="909.4" cy="361.8" r="0.5"/>
		<circle cx="879.5" cy="363.4" r="0.5"/>
		<circle cx="885" cy="364.3" r="0.5"/>
		<circle cx="890.8" cy="364.8" r="0.5"/>
		<circle cx="896.2" cy="364.8" r="0.5"/>
	</g>
	<g class="st13">
		<circle cx="871.6" cy="363.4" r="0.5"/>
		<circle cx="873.9" cy="364" r="0.5"/>
		<circle cx="876.9" cy="365" r="0.5"/>
		<circle cx="882.1" cy="366.1" r="0.5"/>
		<circle cx="887.6" cy="366.8" r="0.5"/>
		<circle cx="893.4" cy="367" r="0.5"/>
		<circle cx="901.6" cy="365.9" r="0.5"/>
		<circle cx="898.9" cy="366.6" r="0.5"/>
		<circle cx="906.7" cy="365" r="0.5"/>
		<circle cx="904.2" cy="365.4" r="0.5"/>
		<circle cx="909.4" cy="364" r="0.5"/>
		<circle cx="879.5" cy="365.6" r="0.5"/>
		<circle cx="885" cy="366.6" r="0.5"/>
		<circle cx="890.8" cy="367" r="0.5"/>
		<circle cx="896.2" cy="367" r="0.5"/>
	</g>
	<g class="st13">
		<circle cx="871.6" cy="365.7" r="0.5"/>
		<circle cx="873.9" cy="366.3" r="0.5"/>
		<circle cx="876.9" cy="367.3" r="0.5"/>
		<circle cx="882.1" cy="368.4" r="0.5"/>
		<circle cx="887.6" cy="369.1" r="0.5"/>
		<circle cx="893.4" cy="369.3" r="0.5"/>
		<circle cx="901.6" cy="368.2" r="0.5"/>
		<circle cx="898.9" cy="368.9" r="0.5"/>
		<circle cx="906.7" cy="367.3" r="0.5"/>
		<circle cx="904.2" cy="367.7" r="0.5"/>
		<circle cx="909.4" cy="366.3" r="0.5"/>
		<circle cx="879.5" cy="367.9" r="0.5"/>
		<circle cx="885" cy="368.9" r="0.5"/>
		<circle cx="890.8" cy="369.3" r="0.5"/>
		<circle cx="896.2" cy="369.3" r="0.5"/>
	</g>
	<g class="st13">
		<circle cx="871.6" cy="368" r="0.5"/>
		<circle cx="873.9" cy="368.6" r="0.5"/>
		<circle cx="876.9" cy="369.6" r="0.5"/>
		<circle cx="882.1" cy="370.7" r="0.5"/>
		<circle cx="887.6" cy="371.4" r="0.5"/>
		<circle cx="893.4" cy="371.6" r="0.5"/>
		<circle cx="901.6" cy="370.5" r="0.5"/>
		<circle cx="898.9" cy="371.2" r="0.5"/>
		<circle cx="906.7" cy="369.6" r="0.5"/>
		<circle cx="904.2" cy="370" r="0.5"/>
		<circle cx="909.4" cy="368.6" r="0.5"/>
		<circle cx="879.5" cy="370.2" r="0.5"/>
		<circle cx="885" cy="371.2" r="0.5"/>
		<circle cx="890.8" cy="371.6" r="0.5"/>
		<circle cx="896.2" cy="371.6" r="0.5"/>
	</g>
	<g class="st13">
		<circle cx="871.6" cy="370.3" r="0.5"/>
		<circle cx="873.9" cy="370.9" r="0.5"/>
		<circle cx="876.9" cy="371.9" r="0.5"/>
		<circle cx="882.1" cy="373" r="0.5"/>
		<circle cx="887.6" cy="373.7" r="0.5"/>
		<circle cx="893.4" cy="373.9" r="0.5"/>
		<circle cx="901.6" cy="372.8" r="0.5"/>
		<circle cx="898.9" cy="373.5" r="0.5"/>
		<circle cx="906.7" cy="371.9" r="0.5"/>
		<circle cx="904.2" cy="372.3" r="0.5"/>
		<circle cx="909.4" cy="370.9" r="0.5"/>
		<circle cx="879.5" cy="372.5" r="0.5"/>
		<circle cx="885" cy="373.5" r="0.5"/>
		<circle cx="890.8" cy="373.9" r="0.5"/>
		<circle cx="896.2" cy="373.9" r="0.5"/>
	</g>
	<g class="st13">
		<circle cx="871.6" cy="372.6" r="0.5"/>
		<circle cx="873.9" cy="373.2" r="0.5"/>
		<circle cx="876.9" cy="374.2" r="0.5"/>
		<circle cx="882.1" cy="375.3" r="0.5"/>
		<circle cx="887.6" cy="376" r="0.5"/>
		<circle cx="893.4" cy="376.2" r="0.5"/>
		<circle cx="901.6" cy="375.1" r="0.5"/>
		<circle cx="898.9" cy="375.8" r="0.5"/>
		<circle cx="906.7" cy="374.2" r="0.5"/>
		<circle cx="904.2" cy="374.6" r="0.5"/>
		<circle cx="909.4" cy="373.2" r="0.5"/>
		<circle cx="879.5" cy="374.8" r="0.5"/>
		<circle cx="885" cy="375.8" r="0.5"/>
		<circle cx="890.8" cy="376.2" r="0.5"/>
		<circle cx="896.2" cy="376.2" r="0.5"/>
	</g>
	<g class="st13">
		<circle cx="871.6" cy="374.9" r="0.5"/>
		<circle cx="873.9" cy="375.5" r="0.5"/>
		<circle cx="876.9" cy="376.5" r="0.5"/>
		<circle cx="882.1" cy="377.6" r="0.5"/>
		<circle cx="887.6" cy="378.3" r="0.5"/>
		<circle cx="893.4" cy="378.5" r="0.5"/>
		<circle cx="901.6" cy="377.4" r="0.5"/>
		<circle cx="898.9" cy="378" r="0.5"/>
		<circle cx="906.7" cy="376.5" r="0.5"/>
		<circle cx="904.2" cy="376.9" r="0.5"/>
		<circle cx="909.4" cy="375.5" r="0.5"/>
		<circle cx="879.5" cy="377.1" r="0.5"/>
		<circle cx="885" cy="378" r="0.5"/>
		<circle cx="890.8" cy="378.5" r="0.5"/>
		<circle cx="896.2" cy="378.5" r="0.5"/>
	</g>
	<g class="st13">
		<circle cx="871.6" cy="377.2" r="0.5"/>
		<circle cx="873.9" cy="377.8" r="0.5"/>
		<circle cx="876.9" cy="378.8" r="0.5"/>
		<circle cx="882.1" cy="379.9" r="0.5"/>
		<circle cx="887.6" cy="380.5" r="0.5"/>
		<circle cx="893.4" cy="380.8" r="0.5"/>
		<circle cx="901.6" cy="379.7" r="0.5"/>
		<circle cx="898.9" cy="380.4" r="0.5"/>
		<circle cx="906.7" cy="378.8" r="0.5"/>
		<circle cx="904.2" cy="379.2" r="0.5"/>
		<circle cx="909.4" cy="377.8" r="0.5"/>
		<circle cx="879.5" cy="379.4" r="0.5"/>
		<circle cx="885" cy="380.4" r="0.5"/>
		<circle cx="890.8" cy="380.8" r="0.5"/>
		<circle cx="896.2" cy="380.8" r="0.5"/>
	</g>
	<g class="st13">
		<circle cx="871.6" cy="379.5" r="0.5"/>
		<circle cx="873.9" cy="380.1" r="0.5"/>
		<circle cx="876.9" cy="381" r="0.5"/>
		<circle cx="882.1" cy="382.2" r="0.5"/>
		<circle cx="887.6" cy="382.9" r="0.5"/>
		<circle cx="893.4" cy="383.1" r="0.5"/>
		<circle cx="901.6" cy="382" r="0.5"/>
		<circle cx="898.9" cy="382.6" r="0.5"/>
		<circle cx="906.7" cy="381" r="0.5"/>
		<circle cx="904.2" cy="381.5" r="0.5"/>
		<circle cx="909.4" cy="380.1" r="0.5"/>
		<circle cx="879.5" cy="381.7" r="0.5"/>
		<circle cx="885" cy="382.6" r="0.5"/>
		<circle cx="890.8" cy="383.1" r="0.5"/>
		<circle cx="896.2" cy="383.1" r="0.5"/>
	</g>
	<g class="st13">
		<circle cx="871.6" cy="381.8" r="0.5"/>
		<circle cx="873.9" cy="382.4" r="0.5"/>
		<circle cx="876.9" cy="383.3" r="0.5"/>
		<circle cx="882.1" cy="384.5" r="0.5"/>
		<circle cx="887.6" cy="385.1" r="0.5"/>
		<circle cx="893.4" cy="385.4" r="0.5"/>
		<circle cx="901.6" cy="384.3" r="0.5"/>
		<circle cx="898.9" cy="384.9" r="0.5"/>
		<circle cx="906.7" cy="383.3" r="0.5"/>
		<circle cx="904.2" cy="383.8" r="0.5"/>
		<circle cx="909.4" cy="382.4" r="0.5"/>
		<circle cx="879.5" cy="384" r="0.5"/>
		<circle cx="885" cy="384.9" r="0.5"/>
		<circle cx="890.8" cy="385.4" r="0.5"/>
		<circle cx="896.2" cy="385.4" r="0.5"/>
	</g>
	<path class="st2" d="M945.8,226.7c0,0,13.7-5.1,18.2,5.4l1.3,0.3l2.9,0.7c7.2-10.8,26.3,0,26.3,0l26.8,11.9l-1,1.7l-26.9-9.4
		c0,0-3.6,11-8.2,13.6s-12.2-1.5-12.2-1.5c-4.7-1.9-5.1-10.2-5-14.2l-4.1-0.8c-0.3,4-1.8,11.7-9,12.6c-9.8,1.2-10.5-7.5-10.5-7.5
		S944.1,228.5,945.8,226.7z"/>
	<path class="st10" d="M955.5,226.8c-0.5,1-1.1,2.4-0.2,3.1c0.4,0.2,0.9,0.3,1.4,0.2c2.9-0.6,4.4-3.7,5.6-6.4s3-5.7,6-6
		c3.5-0.3,7.1,3.5,10,1.5c0.9-0.6,1.4-1.7,2.4-2.1c0.7-0.3,1.5-0.3,2.2-0.1c6.7,1.2,11.9,6.6,12.7,13.3c0.2,1.4,0.4,3.2,1.8,3.4
		c0.5,0,1-0.1,1.6-0.2c2.6-0.3,4.2,2.7,5.1,5.2c1.1,3.4,2.3,7,1.6,10.5c-0.5,2.8-2.2,5.4-2.2,8.2c-0.1,2.3,0.9,4.6,1.9,6.7
		s2.6,4.6,4.9,4.3c1.9-0.2,2.9-2.3,3.9-4s2.6-3.5,4.4-3c0.8,0.2,1.7,0.9,2.4,0.5c0.4-0.3,0.7-0.7,0.7-1.2c0.9-3.9-0.4-8.4,1.5-11.9
		c1.5-2.7,4.5-4.2,6.9-6.1c8.5-6.8,9.9-19.2,3.1-27.7c-0.1-0.2-0.3-0.4-0.4-0.5c-2.6-3-6.3-5.7-6.5-9.7c-0.2-3,1.9-5.8,1.9-8.9
		s-1.9-5.6-4-7.6c-6.4-5.8-15.2-8.1-23.6-6.2c-2.2,0.5-4.4,1.3-6.6,1.1c-2.6-0.3-4.7-2-7.1-3.2c-7.6-3.9-17.9-1.1-22.5,6.1
		c-2.7,4.1-3.7,9.6-7.7,12.5c-2.6,1.9-6.4,2.6-7.8,5.5c-0.9,1.7-0.6,3.8-0.4,5.7c0.4,3.2,1.9,6.1,4.3,8.2
		C955,220.5,957.1,223.1,955.5,226.8z"/>
	<g class="st14">
		<path d="M1027.3,199.4c0.3-0.8,0.5-1.5,0.6-2.3C1027.7,197.8,1027.5,198.6,1027.3,199.4z"/>
		<path d="M956.1,224.4c0.1-0.5,0.3-1,0.6-1.5c1.6-3.7-0.5-6.3-2.9-8.8c-2.4-2.1-3.9-5-4.3-8.2c-0.1-0.9-0.2-1.7-0.2-2.6
			c-0.2,0.3-0.4,0.5-0.5,0.8c-0.9,1.7-0.6,3.8-0.4,5.7c0.4,3.2,1.9,6.1,4.3,8.2C954.5,219.9,956.1,221.9,956.1,224.4z"/>
		<path d="M1019.5,257.6c-1.8-0.5-3.5,1.3-4.4,3s-2,3.7-3.9,4c-2.3,0.3-3.9-2.2-4.9-4.3s-2-4.4-1.9-6.7c0-0.3,0-0.6,0.1-0.8
			c-0.7,1.5-1.1,3.1-1.2,4.8c-0.1,2.3,0.9,4.6,1.9,6.7s2.6,4.6,4.9,4.3c1.9-0.2,2.9-2.3,3.9-4s2.6-3.5,4.4-3
			c0.8,0.2,1.7,0.9,2.4,0.5c0.4-0.3,0.7-0.7,0.7-1.2c0.2-0.9,0.3-1.8,0.3-2.7C1021.2,258.5,1020.3,257.9,1019.5,257.6z"/>
		<path d="M1031.1,238.9c-2.4,1.9-5.4,3.4-6.9,6.1c-0.6,1.2-0.9,2.5-1,3.8c1.5-2.6,4.4-4.1,6.8-6c3.7-3,6.2-7.3,7.1-12
			C1035.8,234,1033.8,236.8,1031.1,238.9z"/>
		<path d="M1005.7,248.8c0.4-1.1,0.8-2.3,1.1-3.5c0.7-3.5-0.5-7.1-1.6-10.5c-0.8-2.5-2.4-5.5-5-5.2c-0.5,0.1-1,0.2-1.6,0.2
			c-1.4-0.2-1.7-2-1.8-3.4c-0.9-6.7-6-12.1-12.7-13.3c-0.7-0.2-1.5-0.1-2.2,0.1c-1,0.4-1.5,1.5-2.4,2.1c-2.9,2-6.5-1.8-10-1.5
			c-2.9,0.2-4.8,3.3-6,6s-2.7,5.8-5.6,6.4c-0.5,0.1-0.9,0.1-1.4-0.2c-0.3-0.2-0.4-0.5-0.5-0.8c-0.1,0.6-0.3,1.2-0.5,1.7
			c-0.5,1-1.1,2.4-0.2,3.1c0.4,0.2,0.9,0.3,1.4,0.2c2.9-0.6,4.4-3.7,5.6-6.4s3-5.7,6-6c3.5-0.3,7.1,3.5,10,1.5
			c0.9-0.6,1.4-1.7,2.4-2.1c0.7-0.3,1.5-0.3,2.2-0.1c6.7,1.2,11.9,6.6,12.7,13.3c0.2,1.4,0.4,3.2,1.8,3.4c0.5,0,1-0.1,1.6-0.2
			c2.6-0.3,4.2,2.7,5.1,5.2C1005.1,242,1006.2,245.4,1005.7,248.8z"/>
	</g>
</g>
<linearGradient id="SVGID_1_" gradientUnits="userSpaceOnUse" x1="493.269" y1="-23.74" x2="493.269" y2="532.62" gradientTransform="matrix(1 0 0 -1 -39.48 827.9)">
	<stop  offset="0" style="stop-color:#808080;stop-opacity:0.25"/>
	<stop  offset="0.54" style="stop-color:#808080;stop-opacity:0.12"/>
	<stop  offset="1" style="stop-color:#808080;stop-opacity:0.1"/>
</linearGradient>
<path class="st15" d="M814.2,759.6l-8-25.5c0,0-6.7-18.1-5.6-27.8s-2.2-20.3-2.2-20.3l6.6-34.2c0,0,0.4-3.7,0.3-8.7
	c0-8.2-1.2-19.7-6.8-22.7c-9.1-4.8-27.7-45.3-31.6-45.3s-16.4-2.6-16.4-7c0-0.2,0-0.3,0-0.5c0,0,0-0.1,0-0.2s-0.1-0.2-0.1-0.3
	l-0.1-0.2l-0.2-0.4l-0.1-0.1c-0.5-0.9-1.1-1.7-1.8-2.4c16.9-3.2,33.8-6.8,50.5-10.9h-0.6l0.6-0.2c-2.2,0-4.4-0.2-6.7-0.5l-0.5,0.1
	c-24.6-3.4-46.8-22.6-52.8-47c-6.7-27,5-55.2,4.5-83c-0.4-17.6-5.6-34.8-15.1-49.6c-1.3-2-2.6-3.9-4.1-5.8
	c18.9-9.2,26.7-31.9,17.6-50.8c-0.9-1.8-1.8-3.4-2.9-5c-0.4-0.6-0.9-1.2-1.3-1.8c9.2,15.2,6.6,34.8-6.2,47.1
	c10.1-18.3,3.4-41.2-14.9-51.3c-18.3-10.1-41.2-3.4-51.3,14.9c-0.1,0.2-0.2,0.4-0.4,0.7c-0.8-0.4-1.6-0.7-2.4-1
	c5.2-14.1,18.2-23.8,33.1-24.7c-0.8,0-1.5-0.1-2.2-0.1c-15.2,0-28.9,9.2-34.8,23.3c-11.3-4.1-23.1-5.9-34.8-2.9
	c-2.2,0.5-4.3,1.3-6.3,2.2l0.5-0.4c-2.9,1.2-5.5,2.9-7.9,5c-3.5,3.2-5.9,7.4-8.9,11.1c-3,3.7-6.6,6.9-10.6,9.6
	c0.3-0.2,0.7-0.4,1-0.5c-13.4,9.5-31.6,12.2-46.9,6.1c-4.3-1.7-8.5-4.1-13-4.7c-3.5-0.4-7.1,0.1-10.3,1.5c0.1-0.1,0.3-0.2,0.4-0.3
	c-4.2,1.7-7.9,4.5-10.8,8.1c-5,6.2-7.5,14-9.3,21.7c-1.3,5.5-2,11.1-2,16.7c0.1,7.2,1.7,14.2,6,19.8c6.7,8.7,15.8,11,25.3,12.6
	c-0.3,1-0.5,1.9-0.8,2.9c-11.4,44.9,14.9,90.7,59.4,103.7l1.8,3.1l0.6,0.1c4.4,7.5,9.3,15.9,13.8,24c0.2,0.4,0.5,0.9,0.7,1.3
	l-8.5,4.4l0,0c-2.2,1.2-7.8,4.2-10.8,7.1c-0.9,0.8-1.6,1.7-2,2.8c-1.3,4.4-8.2,15.7-13,18.7s-8.7,17.8-8.2,25.7s-2.6,7-10.4,7.4
	s0,11.8,0,11.8l0.2,0.8c-0.4,0.6-0.8,1.3-1.2,2c-2,3.1-4.6,6.5-6.5,6.3c-3.5-0.3-5.6,8.2-5.4,9.5s-6.1,11.8-8.4,12.8
	s-12.5,3.2-9.7,12.9L510,693.9l-10,9.6c0,0-14.3-8.1-37.4,17c2.6-0.2,5.2,0,7.7,0.7l-0.7,0.3c-6.1,2.9-16.7,7.8-24.5,11l-41.6,1.3
	v-31c0,0-3.7-8.7-8,0l-1.1,31.3L304,737l16.9-18l0,0l0.2-0.2c3.7-3.9,5-9.5,3.3-14.7L253.8,482l0,0l-0.5-1.6
	c-1.4-4.5-5.3-7.7-10-8.4l-98.2-13.2l-0.7-0.1l-9,2.5c-4.7,1.3-7.5,6.1-6.2,10.9c0,0,0,0.1,0,0.1c2.3,8,6.1,21.1,11,37.5h-13.6
	l10.4,89.7l6.3,34.5c1.6,8.8,3.5,17.5,5.7,26.2c5.2,21,15.5,65.8,15.8,91.8l-76,82.9v16.8h485.5c0,0.1,0,0.1,0.1,0.2H811
	c0,0-2.6-4.6,3-11.1s2.8-32.4,2.8-32.4s-3.1-4.1,0.7-13.3S814.2,759.6,814.2,759.6z M211,740l-12.9,0.4l-12-78.1
	C195,690.9,203.7,718,211,740z M543.2,787.5l-8.4-17.1c1.9,0.1,3.8-0.4,5.4-1.5c5.4-3.9,8.7-13.1,8.7-13.1l14.5-17.2l1.2-1.4
	c2.9,8.2,6.4,14.7,9.2,17.8c6.9,7.8,7.8,30.5,9.9,38.7s0.5,4.8,0,9.6c-0.1,1.2,0,2.3,0.3,3.5C574.5,796.5,560.9,787.2,543.2,787.5z"
	/>
<polygon class="st16" points="93.8,835 179.2,742.5 518.2,731.6 577.4,851.6 93.8,851.6 "/>
<polygon class="st8" points="93.8,835 179.2,742.5 518.2,731.6 577.4,851.6 93.8,851.6 "/>
<path class="st16" d="M535.4,827.3v3.2c0,3.4-2.8,6.2-6.2,6.2H347c-3.5,0,0-6.9,0-6.9l-2.1-45.1c-0.2-3.5,2.2-6.7,5.6-7.6
	c10.1-2.6,17.1,1.5,17.1,1.5l112.9-2.9c2.3-0.1,4.7,0,7,0.3c8.3,1.1,15.8,5.5,20.7,12.3l25.9,35.2
	C535,824.6,535.4,825.9,535.4,827.3z"/>
<path class="st3" d="M535.4,830.5L535.4,830.5c0,3.4-2.8,6.2-6.2,6.2H347c-3.5,0,0-6.9,0-6.9s10.1-4.9,25-4l133-2.9
	c0,0,15.7,0.4,24.9,1.4C533,824.6,535.4,827.3,535.4,830.5z"/>
<polygon class="st6" points="483.7,783.5 369.4,783.5 372.5,818.3 505,816 "/>
<path class="st16" d="M289.8,808V820L170,824.9c0,0-27.4-1.9-30.8-18.7c-0.3-1.8-0.2-3.6,0.1-5.3c1.2-7.1,7.3-19.5,34.1-25.2l33-3.4
	H280C280,772.3,289.5,781.8,289.8,808z"/>
<path class="st3" d="M289.8,808.4V820L170,824.9c0,0-27.4-1.9-30.8-18.7c-0.3-1.8-0.2-3.6,0.1-5.3c0,0,16.6,15.7,39,13.4l105.4-4.6
	C285.8,809.3,287.8,808.9,289.8,808.4z"/>
<ellipse transform="matrix(0.9987 -5.146449e-02 5.146449e-02 0.9987 -40.3889 11.2278)" class="st3" cx="197.8" cy="789.9" rx="36.8" ry="6.3"/>
<path class="st16" d="M209.5,786.9l-19.4,9.6l-20.6-4.9l-0.1-33.6c1.3-24.5-10-73.6-15.6-95.9c-2.2-8.6-4-17.3-5.6-26l-6.3-34.2
	l-10.3-88.7h24.6l14.4,20.7L209.5,786.9z"/>
<path class="st16" d="M209.5,786.9l-19.4,9.6l-12.4-71.8c0.2-12.2-15.1-70.3-16.1-72.7C149.5,622.9,139,513.3,139,513.3h17.1
	l14.4,20.6L209.5,786.9z"/>
<path class="st17" d="M209.5,786.9l-19.4,9.6l-12.4-71.8c0.2-12.2-15.1-70.3-16.1-72.7C149.5,622.9,139,513.3,139,513.3h17.1
	l14.4,20.6L209.5,786.9z"/>
<path class="st16" d="M325,720.3l-66,69.5l-7.7,0.5l-9.4,0.7c-4.5,0.3-8.7-2.2-10.5-6.3c-20-45-83.9-262.6-97.4-308.7
	c-1.4-4.6,1.3-9.5,5.9-10.8c0.1,0,0.1,0,0.2-0.1l9-2.4l0.7,0.1l96.2,12.9c5.6,0.8,10.3,4.7,12,10.1l70.4,219.9
	C330,710.9,328.7,716.4,325,720.3z"/>
<path class="st3" d="M325,720.3l-66,69.5l-7.7,0.5l-9.4,0.7c-4.5,0.3-8.7-2.2-10.5-6.3c-20-45-83.9-262.6-97.4-308.7
	c-1.4-4.6,1.3-9.5,5.9-10.8c0.1,0,0.1,0,0.2-0.1l9-2.4l0.7,0.1l96.2,12.9c5.6,0.8,10.3,4.7,12,10.1l70.4,219.9
	C330,710.9,328.7,716.4,325,720.3z"/>
<path class="st16" d="M324.8,720.6L259,789.9l-7.7,0.5l-98.7-316c-1.7-3.6-2.6-7.6-2.8-11.5l97.8,13.1c4.6,0.6,8.5,3.9,9.9,8.3
	l70.8,221.1C330,710.8,328.6,716.5,324.8,720.6z"/>
<path class="st6" d="M320,708.9c-0.7,1.2-1.6,2.3-2.7,3.3l-64.7,60.2l-88.3-292.8l84.8,8.4c6,0.6,11.1,4.8,12.8,10.5L321.5,697
	C322.7,701,322.1,705.3,320,708.9z"/>
<path class="st3" d="M320,708.9L249.1,488c6,0.6,11.1,4.8,12.8,10.5L321.5,697C322.7,701,322.1,705.3,320,708.9z"/>
<circle class="st18" cx="700.3" cy="344.1" r="37.5"/>
<path class="st18" d="M662.3,338.6c0-19.9,15.5-36.3,35.3-37.5c-0.7,0-1.5-0.1-2.2-0.1c-20.7-0.3-37.8,16.2-38.2,36.9
	s16.2,37.8,36.9,38.2c0.4,0,0.8,0,1.2,0c0.8,0,1.5,0,2.2-0.1C677.8,374.9,662.3,358.4,662.3,338.6z"/>
<path class="st3" d="M667.2,344.1c0-19.9,15.5-36.3,35.3-37.5c-0.7,0-1.5-0.1-2.2-0.1c-20.7,0.3-37.3,17.4-36.9,38.2
	c0.3,20.3,16.7,36.6,36.9,36.9c0.8,0,1.5,0,2.2-0.1C682.7,380.5,667.2,364,667.2,344.1z"/>
<path class="st19" d="M507,765.2c-3.5,1.9-7.1,3.5-10.8,4.9c-9.7,3.8-24.4,8.2-38.1,6.5c-23-2.8-36.8,4.7-36.8,4.7l-5.2-38.3
	c0,0,17-5,23.9-6.2c5.2-1,23.9-9.6,32.8-13.8c3-1.4,4.9-2.3,4.9-2.3h17.2L507,765.2z"/>
<path class="st3" d="M507,765.2c-3.5,1.9-7.1,3.5-10.8,4.9c-1.2-34.2-14.3-44.3-23.3-47.2c3-1.4,4.9-2.3,4.9-2.3h17.2L507,765.2z"/>
<path class="st20" d="M570.8,650.6v84l-4.5,5.3L551.8,757c0,0-3.2,9-8.6,12.9s-17.7-1.3-17.7-1.3l-3.5,5.6c0,0-7.8,1.5-11.4,0
	c-3.7-1.5-12.7,4.3-12.7,4.3c1.3-61.6-32.1-56.7-32.1-56.7c23.1-24.8,37.3-16.8,37.3-16.8l9.9-9.5l12.3-12.4
	c-2.8-9.6,7.3-11.7,9.7-12.8s8.6-11.4,8.4-12.7s1.9-9.7,5.4-9.4c1.9,0.2,4.5-3.2,6.5-6.2c1.6-2.4,2.7-4.7,2.7-4.7L570.8,650.6z"/>
<path class="st20" d="M600.6,566.6l25.4-13l-1.4,15.2l5,15.3c0,0-4.6,11.8-5.2,13.1s-11.5,28.3-11.5,28.3l-8.8-11.1L600.6,566.6z"/>
<polyline class="st3" points="604.2,614.5 600.6,566.6 626,553.6 "/>
<path class="st19" d="M709.8,552.3c0,0-8.4,12.1-20,27.6c-26.9,36-70.7,90-64,50.8c0.2-1.3,0.4-2.6,0.5-3.8
	c-1.6,1.1-5.4,0.1-9.5-1.8l-0.3-0.1c-2-1-4-2.1-5.8-3.4c-0.2-0.1-0.4-0.3-0.6-0.4c-4.5-3.2-8.2-6.9-8-9.4
	c3.2-56.2,16.3-29.4,20-23.2c0.2,0.4,0.5,0.8,0.8,1.2c-0.2-0.4-0.3-0.9-0.5-1.4c-2.6-6.3-7.5-15.8-13.1-25.9v-0.1l-0.8-1.3
	c-4.7-8.3-9.8-17.1-14.3-24.7l-1.2-2.1c-7.2-12.1-12.8-21.1-12.8-21.1s32.7-29.9,60.3-48.1c23-15.2,42.5-22.2,36.2,3.3
	c-4,16.4-2.8,30.4,0.9,42c0.1,0.4,0.3,0.9,0.4,1.3c0.7,2.2,1.6,4.4,2.6,6.5c1.3,2.9,2.8,5.8,4.5,8.5
	C691.3,536.9,699.7,545.6,709.8,552.3z"/>
<path class="st17" d="M658.9,506.9c-15.5,16.9-18.8,33-43.5,33c-7.2,0-14.3-0.9-21.3-2.7c-7.8-13.1-14-23.2-14-23.2
	s110.2-100.8,96.5-44.8C672.4,486.1,654.9,495,658.9,506.9z"/>
<path class="st19" d="M700.3,452.3c0,46.9-38,84.9-84.9,84.9c-46.9,0-84.9-38-84.9-84.9s38-84.9,84.9-84.9c0,0,0,0,0,0
	c46.7-0.2,84.7,37.5,84.9,84.1C700.3,451.8,700.3,452.1,700.3,452.3z"/>
<path class="st3" d="M613.4,599.3c0,0,1.5,24.1,16.8,22.2s3.7,51.3,3.7,51.3l-17,15.5l-18.3,5.6c0,0-16.2-4.7-15.9-5.6
	s6.5-51.3,6.5-51.3l9.5-26.9L613.4,599.3z"/>
<path class="st16" d="M613.4,601c0,0,1.5,24.1,16.8,22.2s3.7,51.3,3.7,51.3l-17,15.5l-18.3,5.6c0,0-16.2-4.7-15.9-5.6
	s6.5-51.3,6.5-51.3l9.5-26.9L613.4,601z"/>
<path class="st3" d="M570.8,650.6v84l-4.5,5.3c-4.7-12.3-8.2-29.1-6-44.1c2.8-19.9-2.8-45.5-4.9-53.7c1.6-2.4,2.7-4.7,2.7-4.7
	L570.8,650.6z"/>
<path class="st3" d="M615.4,603.6c-0.5,4.7-1.8,9.4-3.7,13.7c-0.6,1.3-1.1,2.6-1.7,3.8c-4.5-3.2-8.2-6.9-8-9.4
	c3.2-56.2,16.3-29.4,20-23.2C620.2,589.9,616.2,593.9,615.4,603.6z"/>
<path class="st3" d="M622.3,588.3c-2.7-6.6-8-16.7-13.9-27.3l0.8-0.4l13.7,27.4C622.7,588.1,622.5,588.2,622.3,588.3z"/>
<path class="st3" d="M709.8,552.3c0,0-93.5,134.5-84,78.4c0.2-1.3,0.4-2.6,0.5-3.8c-1.7,1.1-5.6,0.1-9.8-1.9c0.6-3.7,1-6.3,1-6.3
	l10.3-29.3c0,0,6-23.3,5.2-28l0.3-0.2l51.5-34.5h0l0,0C691.1,536.9,699.7,545.7,709.8,552.3z"/>
<path class="st20" d="M806.7,654l-7.3,37.9l-22,159.9H586.5c0,0,3.4-28,3.4-32.3s-3.9-10.8-3.4-15.5s2.1-1.3,0-9.5s-3-30.6-9.9-38.3
	s-18.1-36.2-14.7-60.3s-5.6-56.5-5.6-56.5s-7.8-11.2,0-11.6s10.8,0.4,10.3-7.3s3.4-22.4,8.2-25.4s11.6-14.2,12.9-18.5
	c0.4-1.1,1.1-2,2-2.8c3.9-3.7,11.8-7.5,11.8-7.5l7.5-3.8v0.1l13.7,27.3c0,0-6.4,3.1-7.5,15.6c-0.5,4.7-1.8,9.4-3.7,13.7
	c-0.4,0.9-0.7,1.7-1.1,2.5c-1.1,2.4-2.2,4.6-3.2,6.3l0,0c-1.4,2.5-2.4,4.1-2.4,4.1s-0.4,2.9-0.9,7l0,0c-1.2,8.4-3.1,21.7-4.2,24.8
	c-1,2.8-3,7.7-4.1,12c-0.7,2.7-1.1,5.2-0.7,6.9c0,0.1,0.1,0.3,0.1,0.4c1.3,4,7.8-13.2,7.8-13.2s4.7-14.7,6.9-14.7
	c1.7,0,5.4-20.7,7-30.2c0.5-2.8,0.8-4.7,0.8-4.7l10.3-29.3c0,0,1.4-5.5,2.8-11.8c1.4-6.5,2.8-13.8,2.4-16.3l0.3-0.2l51.5-34.5h0
	l0.8-0.5h-0.1c-0.4,0-1.4-0.6-3.4-5.3c-0.5-1.2-1.1-2.6-1.7-4.4c0,0,16.5-6.6,22.3-1.8c0.4,0.3,0.7,0.7,1,1.1
	c0.2,0.2,0.3,0.5,0.4,0.7c3.9,8,5.6,14,9.5,19.2c0.4,0.6,0.9,1.1,1.4,1.6c4.7,4.9,14,10.7,12.4,12.2c-1.7,1.7,12.9,9,12.9,9
	s8.6,4.9,11.3,9c0.5,0.6,0.7,1.4,0.8,2.2c0,4.3,12.5,6.9,16.4,6.9s22.4,40.1,31.5,44.8S806.7,654,806.7,654z"/>
<g class="st14">
	<path d="M613.4,589.7c0,0-6.4,3.1-7.5,15.6c-0.5,4.7-1.8,9.4-3.7,13.7c-1.3,3-2.7,6-4.2,8.8l0,0c-1.4,2.5-2.4,4.1-2.4,4.1
		s-0.4,2.9-0.9,7l0,0c-1.1,8.5-3.1,21.7-4.3,24.9c-1,2.8-3,7.7-4.1,12c-0.7,2.7-1.1,5.2-0.7,6.9c0,0.1,0.1,0.3,0.1,0.4
		c1.3,4,7.8-13.2,7.8-13.2s4.7-14.7,6.9-14.7c0.6,0,1.5-2.9,2.5-6.9c0.5-3.3,1-6.5,1.3-9.3l0,0c0.6-4.1,0.9-7,0.9-7s0.6-0.9,1.5-2.4
		c0.9-5.3,1.6-9.2,1.6-9.2l10.3-29.3c0,0,0.8-2.9,1.7-6.9l-11-21.9l-7.5,3.8l0,0L613.4,589.7z"/>
	<path d="M800.2,623c-9-4.7-27.6-44.8-31.5-44.8s-16.4-2.6-16.4-6.9s-12.1-11.2-12.1-11.2s-14.7-7.3-12.9-9
		c1.5-1.6-7.7-7.3-12.4-12.2c-0.5-0.5-0.9-1-1.4-1.6c-3.9-5.2-5.6-11.2-9.5-19.2c-0.1-0.3-0.3-0.5-0.4-0.7c-0.3-0.4-0.6-0.7-1-1.1
		c-2.6-2.2-7.4-2-11.9-1.2c0.9,0.3,1.7,0.7,2.4,1.2c0.4,0.3,0.7,0.7,1,1.1c0.2,0.2,0.3,0.5,0.4,0.7c3.9,8,5.6,14,9.5,19.2
		c0.4,0.5,0.9,1,1.4,1.5c4.7,4.9,14,10.7,12.4,12.2c-1.7,1.7,12.9,9,12.9,9s12.1,6.9,12.1,11.2s12.5,6.9,16.4,6.9
		s22.4,40.1,31.5,44.8s6.5,31,6.5,31l-7.3,38l-22,159.9h9.5l22-159.9l7.3-37.9C806.7,654,809.3,627.7,800.2,623z"/>
</g>
<path class="st19" d="M423.9,743.8c0,0-54.8-15.9-58.7,8.5s22.4,38.3,39.2,37.9s24.1-16.4,24.1-16.4L423.9,743.8z"/>
<path class="st19" d="M698.8,818.6c0,0-12.3,8.8-38.3,8.8S604,833,604,833s-38.8-91.3-116.6-13.1c0,0-14,18.1,58.6,20
	c0,0,25.6-0.9,31.2,11.8h145l19.8-14.8L698.8,818.6z"/>
<path class="st16" d="M407,704.4c0,0-3.7-8.6-8,0l-2.4,66.8l5.2,15.7l5.2-14L407,704.4z"/>
<path class="st3" d="M703.7,517.3c-7.5,2.6-15.8,8.6-18.2,10.4c-0.5,0-2-1-5.1-9.7C680.4,518.1,699,510.6,703.7,517.3z"/>
<path class="st20" d="M622.9,589.7c0,0-6.4,3.1-7.5,15.6c-0.5,4.7-1.8,9.4-3.7,13.7l-4.2,8.9l0,0l-3.3,11.1l0,0l0.3,22.7l-8.8,14.2
	l-0.7,6.9l-2.3,21.2l-11.6-5.6c0,0,4.8-34.2,8.4-41.2s8.4-43.6,8.4-43.6s-0.2-13.5,1.5-15.8s-3-1.9-3.5-6.9
	c-0.3-2.9-3.5-11.1-6.2-17.2c3.9-3.7,11.8-7.5,11.8-7.5l7.5-3.8L622.9,589.7z"/>
<path class="st3" d="M622.9,589.7c0,0-6.4,3.1-7.5,15.6c-0.5,4.7-1.8,9.4-3.7,13.7l-4.2,8.9l0,0l-3.3,11.1l0,0l0.3,22.7l-8.8,14.2
	l-0.7,6.9l-2.3,21.2l-11.6-5.6c0,0,4.8-34.2,8.4-41.2s8.4-43.6,8.4-43.6s-0.2-13.5,1.5-15.8s-3-1.9-3.5-6.9
	c-0.3-2.9-3.5-11.1-6.2-17.2c3.9-3.7,11.8-7.5,11.8-7.5l7.5-3.8L622.9,589.7z"/>
<path class="st3" d="M715,540.5c-9.6,7.9-35.5,30.2-38.4,45.3c-3.7,18.7-14.7,16.9-14.7,16.9c-13.7-29.8-23.2-37.1-28.6-38.1
	l51.5-34.6c0,0,0,0,0,0l0.8-0.5h-0.1c-0.4,0-1.4-0.6-3.4-5.3l20.6-6.2c0.4,0.3,0.7,0.7,1,1.1c0.2,0.2,0.3,0.5,0.4,0.7
	c3.9,8,5.6,14,9.5,19.2C714.1,539.5,714.5,540,715,540.5z"/>
<path class="st20" d="M715,538.8c-9.6,7.9-35.5,30.2-38.4,45.3c-3.7,18.7-14.7,16.9-14.7,16.9c-13.7-29.8-23.2-37.1-28.6-38.1
	l51.5-34.5h0l0.8-0.5h-0.1c-0.4,0-1.4-0.6-3.4-5.3l20.6-6.2c0.4,0.3,0.7,0.7,1,1.1c0.2,0.2,0.3,0.5,0.4,0.7c3.9,8,5.6,14,9.5,19.2
	C714.1,537.8,714.5,538.3,715,538.8z"/>
<path class="st3" d="M656.8,689.8c0.6-0.2,34.2-19.2,30.4-4.8S656.8,689.8,656.8,689.8z"/>
<path class="st3" d="M511.5,708c0,0,17.7,27.5,23.9,26.6S511.5,708,511.5,708z"/>
<path class="st3" d="M533.5,697.8c0,0,1.1,21.3,10.3,22.8S533.5,697.8,533.5,697.8z"/>
<path class="st3" d="M631.5,766.3c0,0,21.9,36.5,17.7,49.1L631.5,766.3z"/>
<path class="st3" d="M657,770.6c0,0,29.7,39,24.5,42.2S657,770.6,657,770.6z"/>
<path class="st3" d="M590.2,708c0,0-3,27.7,8.4,35.8L590.2,708z"/>
<path class="st3" d="M723.3,584.6c0,0-50.8,39.4-42.7,80.4s16,44,16,44s3,16.4,8.6,23.3s4.7,11.4,4.7,11.4s5.2-2.4,6.9,9.5
	s10.8,20.2,10.8,20.2s3,9.5-4.7,14.7s-6,10.8-6,10.8l-31.5,18.3l35,34.7H811c0,0-2.6-4.5,3-11s2.8-32.1,2.8-32.1s-3.1-4.1,0.7-13.2
	s-3.3-34.9-3.3-34.9l-8-25.2c0,0-6.7-17.9-5.6-27.5s-2.2-20.1-2.2-20.1l-17.4-54.8C781.1,633.1,781.9,578.4,723.3,584.6z"/>
<path class="st20" d="M725.1,584.6c0,0-50.8,39.4-42.7,80.4s15.9,44,15.9,44s3,16.4,8.6,23.3s4.7,11.4,4.7,11.4s5.2-2.4,6.9,9.5
	s10.8,20.2,10.8,20.2s3,9.5-4.7,14.7s-6,10.8-6,10.8l-31.5,18.3l35.1,34.7h90.5c0,0-2.6-4.5,3-11s2.8-32.1,2.8-32.1
	s-3.1-4.1,0.7-13.2s-3.3-34.9-3.3-34.9l-8-25.2c0,0-6.7-17.9-5.6-27.5s-2.2-20.1-2.2-20.1l-17.4-54.8
	C782.8,633.1,783.7,578.4,725.1,584.6z"/>
<path class="st3" d="M742.1,612.4c0,0,36.2,12.3,45.9,18.3S773.7,606.8,742.1,612.4z"/>
<path class="st3" d="M761,798.8c0,0,51.5,6.5,48.5,16.6S761,798.8,761,798.8z"/>
<path class="st3" d="M750.9,809.8c0,0,37.7,12.1,31,22S750.9,809.8,750.9,809.8z"/>
<path class="st3" d="M751.6,569.1c-20.5,4-41.2,7.4-61.9,10.8l-5.4,0.9c-11.4,1.9-22.8,3.8-34.3,3.7c-5.6,0-11.4-0.6-16.4-3.2
	c-1.1-0.6-2.1-1.2-3-2c-3.5-2.8-6-6.9-5.9-11.3c0.1-8.1,7.7-13.7,14.3-18.3c9.6-6.8,19.1-15.5,22.9-26.4c0.7-2,1.2-4.2,1.5-6.3
	c1.1-9.3-2.3-18.4-5.9-27c-3.9-9.4-9.3-19.4-17.2-25.1c-3.2-2.3-6.9-3.8-10.8-4.4c-12.1-1.6-23.5,7-35.7,6.5
	c-9.9-0.4-18.3-6.8-24.2-14.2c-4.3-5.4-7.1-12.7-13.6-16c-7.1-3.5-15.1-4.3-22.9-5.5c11.6-45.4,57.8-72.9,103.2-61.3
	c45.4,11.6,72.9,57.8,61.3,103.2c-3.5,13.8-10.5,26.6-20.2,37c0.1,0.4,0.3,0.9,0.4,1.3c0.7,2.2,1.6,4.4,2.6,6.5
	c0,0,16.5-6.6,22.3-1.8c0.4,0.3,0.7,0.7,1,1.1c0.2,0.2,0.3,0.5,0.4,0.7c3.9,8,5.6,14,9.5,19.2c0.4,0.6,0.9,1.1,1.4,1.6
	c4.7,4.9,14,10.7,12.4,12.2c-1.7,1.7,12.9,9,12.9,9S748.9,565,751.6,569.1z"/>
<path class="st18" d="M508.7,416.1c-7.7-9.9-6.8-23.8-4-36c1.8-7.7,4.3-15.4,9.3-21.5c5-6.1,12.8-10.4,20.6-9.3
	c4.6,0.6,8.7,3,13,4.6c19.3,7.6,43.2,1.3,56.2-14.9c2.9-3.7,5.4-7.8,8.8-11c3.9-3.4,8.6-5.7,13.6-6.9c21.7-5.5,44.1,5.3,62.7,17.8
	c15.9,10.7,30.9,23.1,41.3,39.2c9.5,14.6,14.7,31.6,15,49.1c0.5,27.6-11.1,55.4-4.5,82.2c6.6,26.5,32.4,46.8,59.7,47
	c-37.4,9.2-75.5,15.5-113.5,21.7c-11.4,1.9-22.8,3.8-34.3,3.7c-5.6,0-11.4-0.6-16.4-3.2s-9-7.7-9-13.3c0.1-8.1,7.7-13.7,14.3-18.3
	c11.4-8.1,22.7-18.8,24.3-32.7c1.1-9.3-2.3-18.4-5.9-27c-5.5-13.1-13.9-27.6-27.9-29.5c-12.1-1.6-23.5,7-35.7,6.5
	c-9.9-0.4-18.3-6.8-24.2-14.2c-4.3-5.4-7.1-12.7-13.6-16C542.5,426.3,521.2,432.3,508.7,416.1z"/>
<path class="st18" d="M728.8,365.8c16.3-11.3,21-33.4,10.7-50.4c0.5,0.6,0.9,1.2,1.3,1.8c12.1,16.9,8.2,40.3-8.6,52.4
	c-16.9,12.1-40.3,8.2-52.4-8.6c-0.2-0.3-0.4-0.6-0.7-0.9c-0.4-0.6-0.8-1.2-1.2-1.9C690.1,373.7,712.4,377.1,728.8,365.8z"/>
<g class="st14">
	<path d="M609.8,335.4c2.9-3.7,5.4-7.8,8.8-11c0.6-0.5,1.2-1,1.8-1.5c-2.9,1.2-5.5,2.8-7.8,4.9c-3.5,3.2-5.9,7.3-8.8,11
		c-3,3.7-6.5,6.9-10.5,9.5C599.6,345.3,605.3,340.9,609.8,335.4z"/>
	<path d="M693,574.6c-11.4,1.9-22.8,3.8-34.3,3.7c-5.6,0-11.4-0.6-16.4-3.2s-9-7.7-9-13.3c0.1-8.1,7.7-13.6,14.3-18.3
		c11.4-8.1,22.7-18.8,24.3-32.7c1.1-9.2-2.3-18.4-5.9-27c-5.5-13.1-13.8-27.6-27.9-29.5c-12.1-1.6-23.5,7-35.7,6.5
		c-9.9-0.4-18.3-6.8-24.2-14.2c-4.3-5.4-7.1-12.7-13.6-16c-16.2-8-37.4-2-50-18.2c-7.7-9.9-6.8-23.9-4-36c1.8-7.7,4.3-15.4,9.3-21.5
		c1.4-1.7,3-3.2,4.7-4.6c-4.2,1.7-7.9,4.5-10.8,8c-5,6.1-7.5,13.8-9.3,21.5c-2.8,12.2-3.7,26.1,4,36c12.6,16.2,33.8,10.2,50,18.2
		c6.5,3.2,9.2,10.5,13.6,16c6,7.5,14.4,13.8,24.2,14.2c12.2,0.5,23.6-8.1,35.7-6.5c14.1,1.9,22.5,16.4,27.9,29.5
		c3.6,8.6,7,17.7,5.9,27c-1.7,13.9-12.9,24.6-24.3,32.7c-6.6,4.7-14.2,10.2-14.3,18.3c0,5.6,4,10.7,9,13.3s10.8,3.1,16.4,3.2
		c11.5,0.1,23-1.8,34.3-3.7c38-6.3,76.1-12.5,113.5-21.7c-2.2,0-4.4-0.2-6.6-0.5C760.5,563.5,726.7,569,693,574.6z"/>
</g>
<ellipse class="st19" cx="410.7" cy="755.5" rx="16.4" ry="9"/>
<path class="st16" d="M842.8,62.8H713.6c-5.1,0-9.2-4.1-9.2-9.2V35.2c0-5.1,4.1-9.2,9.2-9.2c0,0,0,0,0,0h129.2
	c5.1,0,9.2,4.1,9.2,9.2v18.5C852,58.7,847.9,62.8,842.8,62.8z M829,37.5c-3.8,0-6.9,3.1-6.9,6.9c0,3.8,3.1,6.9,6.9,6.9
	c3.8,0,6.9-3.1,6.9-6.9C835.9,40.6,832.8,37.5,829,37.5C829,37.5,829,37.5,829,37.5z M810.5,37.5c-3.8,0-6.9,3.1-6.9,6.9
	c0,3.8,3.1,6.9,6.9,6.9c3.8,0,6.9-3.1,6.9-6.9c0,0,0,0,0,0C817.4,40.6,814.3,37.5,810.5,37.5L810.5,37.5z M842.8,109H713.6
	c-5.1,0-9.2-4.1-9.2-9.2V81.3c0-5.1,4.1-9.2,9.2-9.2h129.2c5.1,0,9.2,4.1,9.2,9.2v18.5C852,104.9,847.9,109,842.8,109z M829,83.6
	c-3.8,0-6.9,3.1-6.9,6.9s3.1,6.9,6.9,6.9s6.9-3.1,6.9-6.9c0,0,0,0,0,0C835.9,86.7,832.8,83.6,829,83.6C829,83.6,829,83.6,829,83.6z
	 M810.5,83.6c-3.8,0-6.9,3.1-6.9,6.9s3.1,6.9,6.9,6.9s6.9-3.1,6.9-6.9c0,0,0,0,0,0C817.4,86.7,814.3,83.6,810.5,83.6L810.5,83.6z
	 M842.8,155.1H713.6c-5.1,0-9.2-4.1-9.2-9.2v-18.5c0-5.1,4.1-9.2,9.2-9.2h129.2c5.1,0,9.2,4.1,9.2,9.2v18.4
	C852.1,151,847.9,155.1,842.8,155.1C842.8,155.1,842.8,155.1,842.8,155.1z M829,129.8c-3.8,0-6.9,3.1-6.9,6.9s3.1,6.9,6.9,6.9
	s6.9-3.1,6.9-6.9v0C835.9,132.9,832.8,129.8,829,129.8C829,129.8,829,129.8,829,129.8z M810.5,129.8c-3.8,0-6.9,3.1-6.9,6.9
	c0,3.8,3.1,6.9,6.9,6.9s6.9-3.1,6.9-6.9c0,0,0,0,0,0C817.4,132.9,814.3,129.8,810.5,129.8L810.5,129.8z"/>
<path class="st21" d="M863.7,87.6c8.3-0.9,17.2-0.6,24.3,3.7c7.5,4.6,11.9,13.3,13.3,22s0.4,17.6-0.6,26.4l-5.6,47.4
	c-0.8,6.6-1.5,13.5,0.6,19.9s8.1,11.9,14.8,11.3"/>
<path class="st22" d="M680,203.9l-57.6,21c-0.6,0.2-0.9,0.9-0.7,1.5c0.1,0.2,0.2,0.4,0.4,0.5l8.6,4.8c0.5,0.3,0.8,0.8,1,1.3
	l4.9,15.6c0,0.7,1.2,1,1.3,0.4l0.7-12.2c0.2-0.9,0.7-1.7,1.3-2.3l31.7-23c0.2-0.1,0.4-0.2,0.6-0.1c0.3,0.1,0.5,0.5,0.4,0.8
	c0,0.1-0.1,0.2-0.2,0.2l-28.2,25.7c-0.6,0.6-1.1,1.4-1.3,2.3l-3,10.2c0,0.9,0.6,1.4,1.3,0.6l6-5.3c0.4-0.4,1.1-0.4,1.5,0
	c0,0,0,0,0,0l11.8,11.6c0.4,0.4,1.1,0.4,1.5,0c0.1-0.1,0.2-0.3,0.3-0.4l18.7-51.7c0.2-0.6,0-1.2-0.6-1.4
	C680.4,203.9,680.2,203.9,680,203.9L680,203.9z"/>
<path class="st23" d="M225.2,444.1h67.9c11.5,0,22.1-6.5,27.8-17.2c2.7-5.1,3.9-10.5,2.6-15.4c-5.2-19.6-25.1-27-42.5-6
	c8.6-16,7.2-38.1-14.7-37.8c-17.2,0.3-19.6,19.5-18.7,33.7c-3.8-10.3-20.6-18.9-32.2-11.9C190.7,404.7,204.3,434.1,225.2,444.1z"/>
<g>
	<ellipse class="st24" cx="301" cy="267.5" rx="164" ry="176.3"/>
</g>
<line class="st25" x1="61.8" y1="460.2" x2="524.1" y2="460.2"/>
<line class="st25" x1="524.1" y1="328.6" x2="61.8" y2="328.6"/>
<line class="st26" x1="61.8" y1="346.4" x2="524.1" y2="346.4"/>
<line class="st26" x1="524.1" y1="343.9" x2="61.8" y2="343.9"/>
<line class="st26" x1="61.8" y1="380.8" x2="524.1" y2="380.8"/>
<line class="st26" x1="524.1" y1="378.3" x2="61.8" y2="378.3"/>
<ellipse class="st27" cx="301" cy="267.5" rx="164" ry="176.3"/>
<path class="st23" d="M397.1,328.2h57.5c3.8-3.2,8.8-12.9,7.5-18c-3.1-12.3-16.7-15.5-26.7-2.1c4.9-10.1,6-26.3-8.7-23.7
	c-9.8,1.7-11.2,12.4-10.6,21.3c-2.3-6.5-12-11.8-18.7-7.3C385.7,306.3,388.9,320.1,397.1,328.2z"/>
<path class="st23" d="M216.3,444.1c9.2-29.7-48-113.5-67.8-100.1c-19.8,13.4,9,55.4,33.1,84.8c8,9.7,19.4,15.3,31.4,15.3H216.3z"/>
<path class="st23" d="M227,443.1c10-34.3-6.9-113.2-27.4-110.5c-23.2,3.1-13.8,54.2-3.6,91.9c1.9,7,5.4,13.4,10,18.6H227z"/>
<g>
	<g>
		<g>
			<g>
				<g>
					<g>
						<path class="st28" d="M213.3,164.3c-12.4,0-24-0.8-32.8-2.3c-13.1-2.2-14.6-4.9-14.6-6.8c0-1.9,1.5-4.6,14.6-6.8
							c8.8-1.5,20.4-2.3,32.8-2.3c12.4,0,24,0.8,32.8,2.3c13.1,2.2,14.6,4.9,14.6,6.8c0,1.9-1.5,4.6-14.6,6.8
							C237.3,163.5,225.7,164.3,213.3,164.3z M168.6,155.3c0.1,0.2,0.6,0.9,3.4,1.9c2.4,0.8,5.6,1.6,9.8,2.3
							c8.5,1.4,19.8,2.1,31.6,2.1c11.9,0,23.1-0.7,31.6-2.1c4.1-0.7,7.4-1.4,9.8-2.3c2.7-1,3.3-1.8,3.4-1.9
							c-0.1-0.2-0.6-0.9-3.4-1.9c-2.4-0.8-5.6-1.6-9.8-2.3c-8.5-1.4-19.8-2.1-31.6-2.1c-11.9,0-23.1,0.7-31.6,2.1
							c-4.1,0.7-7.4,1.4-9.8,2.3C169.2,154.3,168.7,155.1,168.6,155.3z"/>
					</g>
				</g>
				<g>
					<g>
						<path class="st28" d="M179,158.1c-2.4,0-4.4-2.1-4.4-4.7v-3.6h1.3v3.6c0,1.8,1.4,3.3,3.1,3.3c1.7,0,3.1-1.5,3.1-3.3v-3.6h1.3
							v3.6C183.4,156,181.4,158.1,179,158.1z"/>
					</g>
				</g>
				<g>
					<g>
						<path class="st28" d="M250.6,158.1c-2.4,0-4.4-2.1-4.4-4.7v-3.6h1.3v3.6c0,1.8,1.4,3.3,3.1,3.3c1.7,0,3.1-1.5,3.1-3.3v-3.6
							h1.3v3.6C255,156,253,158.1,250.6,158.1z"/>
					</g>
				</g>
				<g>
					<g>
						<path class="st28" d="M238.1,169.5c-2.4,0-4.4-2.1-4.4-4.7v-3.6h1.3v3.6c0,1.8,1.4,3.3,3.1,3.3c1.7,0,3.1-1.5,3.1-3.3v-3.6
							h1.3v3.6C242.5,167.4,240.5,169.5,238.1,169.5z"/>
					</g>
				</g>
				<g>
					<g>
						<path class="st28" d="M198.8,156c-2.4,0-4.4-2.1-4.4-4.7v-3.6h1.3v3.6c0,1.8,1.4,3.3,3.1,3.3c1.7,0,3.1-1.5,3.1-3.3v-3.6h1.3
							v3.6C203.2,153.9,201.2,156,198.8,156z"/>
					</g>
				</g>
				<g>
					<g>
						<path class="st28" d="M213.7,171.4c-2.4,0-4.4-2.1-4.4-4.7V163h1.3v3.6c0,1.8,1.4,3.3,3.1,3.3c1.7,0,3.1-1.5,3.1-3.3V163h1.3
							v3.6C218.1,169.3,216.1,171.4,213.7,171.4z"/>
					</g>
				</g>
				<g>
					<g>
						<path class="st28" d="M186.5,169.5c-2.4,0-4.4-2.1-4.4-4.7v-3.6h1.3v3.6c0,1.8,1.4,3.3,3.1,3.3c1.7,0,3.1-1.5,3.1-3.3v-3.6
							h1.3v3.6C190.9,167.4,188.9,169.5,186.5,169.5z"/>
					</g>
				</g>
				<g>
					<g>
						<path class="st28" d="M228.4,156c-2.4,0-4.4-2.1-4.4-4.7v-3.6h1.3v3.6c0,1.8,1.4,3.3,3.1,3.3c1.7,0,3.1-1.5,3.1-3.3v-3.6h1.3
							v3.6C232.8,153.9,230.8,156,228.4,156z"/>
					</g>
				</g>
			</g>
			<g>
				<path class="st26" d="M233.2,207.9c-0.1,0-0.3-0.1-0.4-0.2l-8.8-8.3l-10.5,8.4c-0.2,0.2-0.5,0.2-0.7,0
					c-4.3-3.9-9.2-8.1-10.3-8.5c-0.9,0.6-5.3,4.7-9.2,8.5c-0.2,0.2-0.5,0.2-0.7,0l-10.7-9.7c-0.1-0.1-0.2-0.2-0.2-0.3
					c0-0.1-2.4-10.1-4.2-20.4c-1.1-6-1.8-10.9-2-14.6c-0.5-6.4,0.4-7.8,1.2-8.3c1.2-0.7,2.5,0.7,2.9,1.1c3.8,4,7.5,12.2,11.2,24.5
					c1.3,4.2,2.3,8.2,3,11.3c-0.1-3.8-0.2-9-0.2-14.3c0.1-6.1,0.3-11.1,0.8-14.9c0.6-5,1.5-7.8,2.8-8.8c0.6-0.4,1.3-0.5,2-0.2
					c1.7,0.8,3.4,3.6,5.2,8.5c1.4,3.8,2.8,8.8,4.2,14.9c1.5,6.5,2.7,13,3.3,16.9c0.5-3.9,1.5-10.4,2.8-16.9
					c2.9-14.2,6.2-22.1,9.8-23.4c1.5-0.5,2.9-0.1,4.4,1.5c2.5,2.6,4,6.6,4.6,11.7c0.4,4,0.3,8.8-0.5,14.2c-0.1,0.7-0.2,1.5-0.3,2.2
					c0.7-2,1.4-4.1,2.2-6.2c2.3-6.1,4.5-11,6.4-14.6c2.6-4.7,4.8-7.2,6.8-7.7c0.8-0.2,2-0.1,3.1,1.2c3.3,4,2.9,12.3-1.1,24.8
					c-2.9,9.2-6.8,17.3-6.9,17.4c0,0.1-0.1,0.1-0.1,0.2l-9.3,9.7C233.5,207.8,233.3,207.9,233.2,207.9z M202.4,198
					c0.5,0,1.5,0.6,6,4.4c2,1.7,4,3.5,4.7,4.2l10.5-8.4c0.2-0.2,0.5-0.2,0.7,0l8.8,8.3l8.9-9.3c0.4-0.9,4-8.6,6.8-17.2
					c3.8-11.9,4.2-20,1.3-23.6c-0.6-0.7-1.2-1-2-0.8c-5.6,1.3-14.2,25.8-18.2,38.7c-0.6,2.1-1,3.5-1,3.5c-0.1,0.3-0.4,0.5-0.7,0.4
					c-0.3-0.1-0.5-0.4-0.4-0.8c0,0,0.3-1.2,0.9-3.1c0.9-3.1,2.2-8.2,3-13.8c1.2-8.2,1.5-19.2-3.8-24.8c-1.1-1.2-2.2-1.6-3.2-1.2
					c-6.4,2.4-11.1,31.9-12.4,43.1c0,0.3-0.3,0.5-0.5,0.5c-0.3,0-0.5-0.2-0.6-0.5c-1.7-11.2-7.3-40.7-12.7-43.2
					c-0.3-0.2-0.6-0.1-0.9,0.1c-1.1,0.8-2.9,4.8-3.1,22.7c-0.1,10.3,0.4,20.2,0.4,20.3c0,0.3-0.2,0.6-0.5,0.6
					c-0.3,0-0.6-0.2-0.6-0.5c-0.1-0.3-6.6-32-15.3-41.2c-0.7-0.8-1.3-1.1-1.6-0.9c-0.5,0.3-1.9,2.8,1.4,21.6
					c1.7,9.4,3.8,18.7,4.2,20.1l10.2,9.3c2.8-2.7,8.5-8.1,9.3-8.4C202.2,198,202.3,198,202.4,198z"/>
			</g>
		</g>
		<g>
			<path class="st26" d="M189.3,248.6c-0.1,0-0.2,0-0.2,0c-0.2-0.1-0.3-0.3-0.3-0.5l-6.5-50c0-0.2,0-0.4,0.1-0.5
				c0.1-0.1,0.3-0.2,0.4-0.2h58.5c0.2,0,0.3,0.1,0.4,0.2c0.1,0.1,0.2,0.3,0.1,0.5l-6.5,50c0,0.2-0.2,0.4-0.3,0.5
				c-0.2,0.1-0.4,0.1-0.6-0.1l-0.1-0.1c-2.5-1.9-5.8-1.9-8.3,0.1c-0.1,0.1-0.3,0.1-0.4,0.1l-4.7-1c-4.4-0.9-9-0.6-13.3,0.8l-0.5,0.2
				c-0.1,0-0.2,0-0.3,0l-6.6-2.1c-3.7-1.1-7.5-0.4-10.6,2C189.6,248.6,189.5,248.6,189.3,248.6z M196.8,244.8c1.3,0,2.5,0.2,3.8,0.6
				l6.4,2l0.3-0.1c4.5-1.5,9.2-1.8,13.8-0.8l4.5,0.9c2.6-1.9,6-2,8.7-0.4l6.3-48.4h-57.2l6.3,48.4
				C191.9,245.5,194.4,244.8,196.8,244.8z"/>
		</g>
		<g>
			<path class="st26" d="M207.1,248.6c-0.1,0-0.3,0-0.4-0.1l-20-17.5c-0.2-0.2-0.3-0.6-0.1-0.9c0.2-0.3,0.6-0.3,0.8-0.1l20,17.5
				c0.2,0.2,0.3,0.6,0.1,0.9C207.4,248.5,207.2,248.6,207.1,248.6z"/>
		</g>
		<g>
			<path class="st26" d="M225.8,248.6c-0.1,0-0.2,0-0.3-0.1l-40.8-33.4c-0.1-0.1-0.2-0.3-0.2-0.5c0-0.2,0.1-0.4,0.2-0.5l7.9-7.4
				c0.2-0.2,0.6-0.2,0.8,0.1c0.2,0.3,0.2,0.6-0.1,0.9l-7.4,6.9l40.3,32.9c0.2,0.2,0.3,0.6,0.1,0.9
				C226.2,248.5,226,248.6,225.8,248.6z"/>
		</g>
		<g>
			<path class="st26" d="M236.1,238.4c-0.1,0-0.2,0-0.3-0.1l-43.3-30.6c-0.3-0.2-0.3-0.6-0.2-0.8c0.2-0.3,0.5-0.4,0.8-0.2l43.3,30.6
				c0.3,0.2,0.3,0.6,0.2,0.8C236.5,238.3,236.3,238.4,236.1,238.4z"/>
		</g>
		<g>
			<path class="st26" d="M236.9,226.5c-0.1,0-0.2,0-0.3-0.1l-22.6-17.7c-0.3-0.2-0.3-0.6-0.1-0.8c0.2-0.3,0.5-0.3,0.8-0.1l22.6,17.7
				c0.3,0.2,0.3,0.6,0.1,0.8C237.2,226.4,237,226.5,236.9,226.5z"/>
		</g>
		<g>
			<path class="st26" d="M187.7,230.2c-0.2,0-0.3-0.1-0.4-0.2c-0.2-0.3-0.2-0.6,0.1-0.9l25.7-22.4c0.2-0.2,0.6-0.2,0.8,0.1
				c0.2,0.3,0.2,0.6-0.1,0.9L188,230.1C187.9,230.2,187.8,230.2,187.7,230.2z"/>
		</g>
		<g>
			<path class="st26" d="M202.4,247.1c-0.2,0-0.3-0.1-0.5-0.2c-0.2-0.3-0.1-0.7,0.1-0.9l36.5-29c0.3-0.2,0.6-0.1,0.8,0.1
				c0.2,0.3,0.1,0.7-0.1,0.9l-36.5,29C202.6,247.1,202.5,247.1,202.4,247.1z"/>
		</g>
		<g>
			<path class="st26" d="M219.3,247.3c-0.2,0-0.3-0.1-0.5-0.2c-0.2-0.3-0.1-0.7,0.1-0.9l17.5-13.8c0.3-0.2,0.6-0.1,0.8,0.1
				c0.2,0.3,0.1,0.7-0.1,0.8l-17.5,13.8C219.5,247.3,219.4,247.3,219.3,247.3z"/>
		</g>
		<g>
			<path class="st26" d="M188.9,245c-0.2,0-0.3-0.1-0.4-0.2c-0.2-0.3-0.1-0.6,0.1-0.9l44.6-37.2c0.2-0.2,0.6-0.2,0.8,0.1l5.8,6.5
				c0.2,0.2,0.2,0.6,0,0.9c-0.2,0.2-0.6,0.2-0.8,0l-5.5-6.1l-44.2,36.9C189.1,245,189,245,188.9,245z"/>
		</g>
	</g>
	<g>
		<g>
			<path class="st29" d="M314.6,344.4l29.8,79.8l17-11.4l-17.6-78.2c-2.3-8.9-14.8-16.8-22.4-12.7l-0.8,0.4
				c-6.9,3.7-9.9,12.6-6.8,20.3L314.6,344.4z"/>
			<polygon class="st26" points="335.4,400 344.4,424.1 361.4,412.7 357,393.4 			"/>
		</g>
		<g>
			<path class="st30" d="M348.2,325.3l-1.6,0.5c0,0-38.5,10.1-40.1,9.2c0,0,0,0-0.1-0.1c0.3-0.7,3.1-6.4,8.9-9.2
				c5-2.4,7.9,2.3,15.7-4.7C338.7,314.1,348,325,348.2,325.3z"/>
			<path class="st29" d="M327.1,346.2c8.8-1,15.3-9.5,14.4-19l-0.2-1.8l-1.7-18.1l-2.2-23.7l-33.3-9.4l3.7,39.5l1.6,17
				c0.1,0.7,0.2,1.4,0.3,2.1C311.5,341.2,318.9,347.1,327.1,346.2z"/>
			<path class="st31" d="M309.8,332.8c1.5-3.5,6.4-5.8,8.2-4.6c2.8,1.8,7.9,1.9,13.8-2.2c3-2.1,6.7-1.6,9.6-0.6l-1.7-18.1l-17.7-1.3
				l-14.1,7.8l1.6,17C309.5,331.4,309.6,332.1,309.8,332.8z"/>
			<path class="st32" d="M307.8,233c-24.1-5-16.5,40.9-1.4,101.9c0.3-0.6,3.1-6.3,8.9-9.2c5-2.4,7.9,2.3,15.7-4.7
				c7.7-6.9,17,4,17.2,4.3C349.4,270,322.5,236,307.8,233z"/>
		</g>
		<g>
			<g>
				<g>
					<path class="st29" d="M293.4,160.7c-1.1,1.2-2.4,2.6-3.6,4.3c-0.6,0.8-1.2,1.7-1.8,2.6c-3.2,5.2-6.3,4.7-9.3,0.8
						c-1.3-1.7-2.6-4.1-3.8-6.9c-0.1-0.1-0.1-0.3-0.2-0.4c-3-7.1-5.8-17.1-8.1-27.2c-1.9-8.2-3.5-16.5-4.8-23.4
						c-1.8-9.9-2.8-17-2.8-17l10.8-6.8c0,0,4.5,18,20.6,45.2c5.8,9.9,8.3,15.4,8.7,19.1C299.4,155.2,296.9,157.1,293.4,160.7z"/>
				</g>
			</g>
			<path class="st33" d="M266.9,102.1l3.5-2.7c0,0,4.7-2.6,6.6-7.2c1.9-4.6,4.4-10.3,5.5-11.2c1.1-0.9-2-2.6-5.8,1.4
				c-3.7,4.1-2.9,3.5-4,2.2c0.2-2.5,2.3-17.9,0-18.2c-2.3-0.3-2.6,10-3.3,10c-0.8,0,0.9-14.3-1.7-13.4c-2.7,0.9-1.9,12.3-2.5,12.8
				c-0.6,0.5-0.8-10.6-1.7-10.9c-0.9-0.4-2.2-2-2,11.6c0.1,5.3-1.7,1.7-1.7,1.7s-3.4-11-3.8-5.1c-0.4,7.5,3.6,24.5,3.9,26
				C261.1,106.4,264.1,104.8,266.9,102.1z"/>
			<g>
				<path class="st29" d="M345.3,189.9c-0.7,1.8-1.7,3.6-3.2,5.5c-3.9,4.9-12.4,4.5-22,1.2c-6.1-2.1-12.7-5.3-18.9-9
					c-0.9-0.6-1.9-1.1-2.8-1.7c-8.3-5.3-15.7-11.5-20-17l0.2-0.4l5.2-8.3l1.2-2l12.4-7.9c0.4,0.2,0.9,0.4,1.5,0.6
					c8.1,3.4,28.8,11.2,35.3,16.2c2.5,1.9,4.8,4,6.7,6.2C345.3,178.2,347.5,183.9,345.3,189.9z"/>
			</g>
			<path class="st33" d="M322.3,192.3l-2.2,4.2c-6.1-2.1-12.7-5.3-18.9-9c-0.9-0.6-1.9-1.1-2.8-1.7c-8.3-5.3-15.7-11.5-20-17
				l0.2-0.4c-1.3-1.7-2.6-4.1-3.8-6.9l-8.3-27.7c-1.9-8.2-3.5-16.5-4.8-23.4c1-1.7,2.5-1.7,3.9,7.1c2,12.1,7.5,31.6,18.1,42.6
				c1.8,1.9,3.8,3.5,5.9,4.8c1.4,0.9,2.9,1.6,4.4,2.1C311.7,173.3,322.3,192.3,322.3,192.3z"/>
		</g>
		<g>
			<g>
				<path class="st33" d="M338.1,347.2l55.2,62.2l11.8-17.4l-43.3-65.5c-5.2-7.3-19.6-9.8-25.3-3l-0.6,0.7
					c-5.2,6.2-4.9,15.7,0.7,21.5L338.1,347.2z"/>
				<polygon class="st26" points="377.9,392.1 393.3,409.4 405.2,392 395.5,377.4 				"/>
				<g>
					<g>
						<path class="st32" d="M414.3,395c0.3,0.2,0.5,0.5,0.7,0.8c0.2,0.3,0.3,0.8,0.3,1.4c0.2,3-0.9,5.9-3,8l-5.1,5
							c-1.9,1.9-3.5,4.1-4.8,6.5l-5.4,10.2c-1.7,3.2-3.8,6-6.3,8.5l-3.5,3.5c-0.3,0.5-0.8,0.8-1.3,0.8c-0.6,0.1-1.2-0.1-1.7-0.5
							c-0.6-0.6-1.2-1.3-1.9-2.1c-0.8-1.1-1.6-2.3-2.1-3.6c-1.3-3.6,6.5-16.9,7.5-24.1c0.1-0.6-4.4-9.7-4.4-9.7c0,0,14-1.9,14-1.9
							c1.2-0.1,2.3-0.7,3.1-1.6c0.8-0.9,1.3-2,1.4-3.3l0.1-0.9l0.4-4.5l1,0.6l8.2,5.2L414.3,395z"/>
					</g>
					<path class="st34" d="M414.3,395c0.3,0.2,0.5,0.5,0.7,0.8c0.2,0.3,0.3,0.8,0.3,1.4c0.2,3-0.9,5.9-3,8l-5.1,5
						c-1.9,1.9-3.5,4.1-4.8,6.5l-5.4,10.2c-1.7,3.2-3.8,6-6.3,8.5l-3.5,3.5c-0.3,0.5-0.8,0.8-1.3,0.8c-0.6,0.1-1.2-0.1-1.7-0.5
						c-0.6-0.6-1.2-1.3-1.9-2.1c2.7-1,6.3-3.2,8.2-7.6c3.1-7.4,5.5-15.1,10.6-19.6c5.2-4.5,3.7-4.9,7.7-8.5c2-1.9,2.6-5.3,2.7-8.2
						L414.3,395z"/>
				</g>
			</g>
			<g>
				<path class="st30" d="M369.7,320.9l-1.8,0.7c0,0-41.6,14.7-43.3,13.9c0,0,0,0,0-0.1c0,0,0,0,0-0.1c0.3-0.7,3.8-6.9,10.2-10.5
					c5.5-3,8.1,1.6,17-6.6C360.6,310.2,369.5,320.6,369.7,320.9z"/>
				<path class="st33" d="M358.6,300.2l0.8,8.9l1.2,12.7l0.5,6c0.9,9.5-5.7,18-14.5,18.9c-8.7,0.9-16.5-5.9-17.6-15.2
					c0-0.1,0-0.2,0-0.4l-2.2-24.9l-0.8-8.9L358.6,300.2z"/>
				<path class="st31" d="M359.4,309.1l-11-3.8l-21.7,1l2.2,24.9c0,0.1,0,0.3,0,0.4c3.4-5.9,10.2-7.2,12.2-6.5
					c2.2,0.8,6.6,2.3,11.7-1.6c2.9-2.2,5.7-2.2,7.6-1.7L359.4,309.1z"/>
				<path class="st35" d="M334.9,229.1c-15.7,0.3-39.1,14.2-10.3,106.2c0.3-0.7,3.8-6.9,10.2-10.5c5.5-3,8.1,1.6,17-6.6
					c8.8-8,17.6,2.3,17.8,2.6C375.7,263.2,350.6,228.8,334.9,229.1z"/>
			</g>
		</g>
		<path class="st33" d="M368.9,174.9c-1.1,7-14.3,10.5-29.6,7.7c-15.3-2.8-26.7-10.7-25.6-17.7c1.1-7,14.3-10.5,29.6-7.7
			C358.5,160,370,167.9,368.9,174.9z"/>
		<g>
			<g>
				<path class="st33" d="M353,164.3l-0.1-26.5l-12-0.5c0,0.1,0,0.2-0.1,0.3c-0.3,1.1-0.8,3.5-1.7,8.1c-0.1,0.5-0.2,1-0.3,1.5
					c-0.5,2.4-1.1,5.4-1.9,9c-0.4,1.8-0.8,3.7-1.2,5.8c-0.6,2.7-1.2,5.8-1.8,9.1c-0.5,2.7,0.7,5.5,3.1,6.7c4.9,2.4,9.8,0.9,12.9-0.6
					c2-1,3.3-3.1,3.2-5.5L353,164.3z"/>
				<path class="st33" d="M340.9,137.4c0,0.1,0,0.2-0.1,0.3c-0.3,1.1-0.8,3.5-1.7,8.1c-0.1,0.5-0.2,1-0.3,1.5l-0.7,3.5
					c0,0,11.9-2.1,15,9.2c0.1,0.3-0.1-22.1-0.1-22.1L340.9,137.4z"/>
			</g>
		</g>
		<path class="st33" d="M338.2,122.6c0,0-14.2,21.5-8.1,24.4c8.4,4,12.6,4.9,18.6-1.3c2.1-2.2,3.7-6.7,4.9-10.9
			c1.8-6.6-2-13.5-8.3-14.6C342.8,119.8,340.3,120.3,338.2,122.6z"/>
		<g>
			<path class="st36" d="M334.8,138.6c-0.8,0-1.6-0.3-2.1-1.2c-0.1-0.3-0.2-0.6-0.1-0.9c0.1-0.3,0.3-0.5,0.6-0.6l1.2-0.6
				c1.3-0.6,2.3-1.6,3-2.9l1.1-2.1c0.1-0.1,0.2-0.2,0.4-0.1c0.1,0.1,0.2,0.3,0.1,0.4l-1.1,2.1c-0.7,1.4-1.9,2.5-3.3,3.2l-1.2,0.6
				c-0.1,0.1-0.2,0.2-0.2,0.3c0,0.1,0,0.3,0,0.4c0.7,1.5,2.6,0.7,2.7,0.7c0.1-0.1,0.3,0,0.4,0.2c0.1,0.2,0,0.3-0.2,0.4
				C335.8,138.5,335.4,138.6,334.8,138.6z"/>
		</g>
		<path class="st36" d="M343.9,132.6c0,0.6-0.5,1-1,1c-0.5,0-0.9-0.5-0.9-1c0-0.6,0.5-1,1-1C343.5,131.6,343.9,132.1,343.9,132.6z"
			/>
		<path class="st36" d="M337.3,130.2c0,0.6-0.5,1-1,1c-0.5,0-0.9-0.5-0.9-1c0-0.6,0.5-1,1-1C336.9,129.2,337.3,129.7,337.3,130.2z"
			/>
		<g>
			<path class="st33" d="M341.5,143.1c-0.1,0-0.1,0-0.2-0.1c-0.1-0.1-0.2-0.3-0.1-0.4c0.4-0.6,0.5-1.1,0.4-1.5
				c-0.3-0.7-1.3-0.8-1.3-0.8c-0.2,0-0.3-0.2-0.2-0.3c0-0.2,0.2-0.3,0.3-0.3c0.1,0,1.3,0.2,1.7,1.2c0.2,0.6,0.1,1.3-0.4,2.1
				C341.7,143.1,341.6,143.1,341.5,143.1z"/>
		</g>
		<g>
			<g>
				<g>
					<g>
						<path class="st26" d="M370,268.8c0,0-3.5-0.5-9.2-1.7c-5.5-1.2-13.6-1.8-22.6-2.9c-15.2-1.9-32.9-5.2-45-15.4
							c-2.2-1.8-1.6-6.7-1.7-14.9c0,0,2.8-22.5,9.5-43.6c1.5-4.9,3.3-9.7,5.3-14.1c3.1-6.9,6.6-12.8,10.8-16.8
							c1.7-1.6,4.7-2.5,8.6-2.9c0.7-0.1,1.5-0.1,2.3-0.1c0.7,0,1.5,0,2.3,0c0.7,0,1.4,0,2,0.1c0.4,0,0.8,0,1.2,0.1
							c-0.2,0.3-0.5,0.7-0.7,1.1c-4.7,9.3,4.1,19.8,13.3,16c4.7-1.9,9.6-5.3,13.2-11c0.5,0.2,1,0.4,1.4,0.6c0.5,0.2,0.9,0.4,1.3,0.6
							c0.8,0.4,1.6,0.7,2.3,1.1c2.5,1.3,4.6,2.5,6.4,3.7c2.1,1.5,3.8,3,5,4.8c1.1,1.6,1.9,3.4,2.3,5.5c0,0,0,0.1,0,0.1
							c1.6,9.3-8.7,25.4-10.6,44.7C365.4,244.5,370,268.8,370,268.8z"/>
					</g>
				</g>
				<path class="st32" d="M370,268.8c0,0-3.5-0.5-9.2-1.7c-5.5-1.2-13.6-1.8-22.6-2.9c-4.4-12.7,8.4-27.6,10.1-39.9
					c7.3-52,14.5-56.6,22.6-55.6c2.1,1.5,3.8,3,5,4.8c1.1,1.6,1.9,3.4,2.3,5.5c0,0,0,0.1,0,0.1c1.6,9.3-8.7,25.4-10.6,44.7
					C365.4,244.5,370,268.8,370,268.8z"/>
			</g>
		</g>
		<path class="st36" d="M333.1,126.9c0.7,1.4,2.8-0.7,4-2c6.7-7,13,2.3,12.9,3.5c-0.1,0.6-0.3,1.3-0.6,2.2c-1.7,3.9,6.6,0.2,5.2,3.6
			c-0.9,2.2-2.9,3.6-1.5,8.6c0.2,0.8,10.8-11.6,8.6-13.3c-2.2-1.8,1.6-6.1,1.3-7.7c-0.2-1.7-1.4-3.3-3.5-2.6c-2.1,0.7,0.5-3.3-1.8-5
			c-2.3-1.7-2.9,0.9-5.4,0c-1.4-0.5-0.2-3.8-3-4.7c-2.7-0.8-2.6,1.4-5.5,1.2c-2.6-0.2-2.3-2.8-3.5-3
			C333.1,106.8,329.5,120.1,333.1,126.9z"/>
		<path class="st33" d="M355.2,137.2c-0.9,1.5-2.4,2.3-3.4,1.6c-1-0.6-1.1-2.4-0.3-4c0.9-1.5,2.4-2.3,3.4-1.6
			C355.9,133.9,356,135.6,355.2,137.2z"/>
		<path class="st26" d="M332.5,139.9l6.7,1.5c0,0-0.7,3.6-4.1,2.3C331.7,142.6,332.5,139.9,332.5,139.9z"/>
		<g>
			<path class="st32" d="M338.6,411.4c0,0,6.6,17.1,2.2,30.4c-4.4,13.3-5.3,18-1,20.6c3.5,2.2,11.8-11,14.7-15.9
				c0.6-1,1.1-2.2,1.4-3.4c0.7-2.9,2.5-8.9,5.7-12.1c2.4-2.4,4.7-6,6.2-8.7c1.1-2,0.4-4.5-1.5-5.7c-2.3-1.4-5-3.6-5.8-6.6
				c-1.9,1.7-3.4,3.1-4.5,4.2c-2.3,2.3-5.7,2.9-8.6,1.5L338.6,411.4z"/>
			<path class="st34" d="M341.2,462.7c0,0,12-14.2,16.7-29.4c4.6-15.1,6.8-18.1,10.6-13.9C372.1,423.6,345.1,470.5,341.2,462.7z"/>
		</g>
		<path class="st35" d="M362.1,163.8c-3.2,5.1-8,9-13.6,11.5c-11.1,4.9-22.3-6.7-18.3-18.9c0,0,0-0.1,0-0.1c0.7,0,1.4,0,2.1,0.1
			c0.4,0,2.2-0.1,2.6-0.1c-0.1,0.1-0.3,0.3-0.4,0.5c-2.7,10.2,4.1,13.6,13.8,10.7c2.9-0.9,6.3-2.7,8.7-5.8c0.5,0.2,3.3,1.4,3.8,1.6
			C361.2,163.4,361.6,163.6,362.1,163.8z"/>
	</g>
	<g>
		<path class="st37" d="M285.3,107.9c0,3.4-0.4,6.8-1.1,10c-0.1,0.6-0.3,1.2-0.5,1.8c-4,14.3-15.1,25.3-28.8,28.2
			c-1,0.2-2,0.4-3.1,0.5c-0.5,0.1-1,0.1-1.5,0.1c-5.1-0.3-10.5-1.2-16.1-2.6c0.1,0.1,0.1,0.2,0.2,0.2c-0.4-0.2-0.9-0.3-1.3-0.5
			c-0.3-0.1-0.6-0.2-0.8-0.4c-13.4-6.3-22.7-20.6-22.7-37.3c0-7.3,1.8-14.1,4.9-20c0.2-0.4,0.4-0.8,0.7-1.2c1.7-2.9,3.7-5.6,6-8
			c0.3-0.3,0.7-0.7,1-1c4.2-4.1,9.2-7.1,14.8-8.8c0.4-0.1,0.9-0.3,1.3-0.4c2.9-0.8,6-1.2,9.2-1.2c4.6,0,9,0.9,13.1,2.5
			c0.9,0.4,1.8,0.8,2.7,1.2c4.8,2.4,9.1,5.9,12.6,10.1c0.3,0.4,0.6,0.7,0.9,1.1C282.1,89.2,285.3,98.1,285.3,107.9z"/>
		<path class="st38" d="M280.3,104.4c0,19.1-14.4,34.5-32.1,34.5c-17.7,0-32.1-15.5-32.1-34.5s14.4-34.5,32.1-34.5
			C265.9,69.9,280.3,85.3,280.3,104.4z"/>
	</g>
	<g>
		<g>
			<g>
				<path class="st33" d="M317.1,182.1c-0.4,1.6-0.8,3.5-1.1,5.7c-0.1,1-0.2,2.1-0.3,3.2c-0.3,6.2-3.3,7.5-7.7,5.7
					c-1.9-0.8-4.1-2.1-6.5-3.9c-0.1-0.1-0.2-0.2-0.4-0.3c-6-4.5-13-11.7-19.8-19.1c-5.5-6.1-10.8-12.3-15.1-17.6
					c-6.2-7.6-10.4-13.2-10.4-13.2l6.1-11.7c0,0,12.3,13.1,39,27.9c9.7,5.4,14.4,8.8,16.4,11.8C319.7,174.1,318.4,177.1,317.1,182.1
					z"/>
			</g>
		</g>
		<path class="st33" d="M266.7,145.8l1.7-4.3c0,0,2.8-4.8,2.3-9.8c-0.5-5.1-1-11.2-0.5-12.6c0.5-1.4-3-1.2-4.3,4.4
			c-1.3,5.5-0.9,4.6-2.4,4.1c-1-2.3-6.4-16.7-8.5-15.7c-2.1,1,2.4,10,1.8,10.5c-0.6,0.4-5.9-12.8-7.8-10.7
			c-1.9,2.2,4.1,11.7,3.8,12.5c-0.3,0.8-5.6-8.7-6.6-8.5c-0.9,0.2-2.8-0.5,3.7,11.1c2.6,4.5-0.6,2.4-0.6,2.4s-8.1-7.6-5.7-2.4
			c3.2,6.7,14.6,19.2,15.5,20.4C263.7,152.7,265.6,149.7,266.7,145.8z"/>
		<g>
			<path class="st33" d="M375.6,179.2c0.3,1.9,0.2,4-0.2,6.4c-1.1,6.3-8.6,10.6-18.4,13c-6.2,1.5-13.4,2.3-20.6,2.4
				c-1.1,0-2.1,0-3.2,0c-9.7-0.1-18.9-1.5-25.2-3.9l0-0.5l0.6-9.9l0.1-2.4l7-13.6c0.5-0.1,1-0.1,1.6-0.2c8.6-1.4,30.5-4.4,38.5-3.6
				c3.1,0.3,5.6-0.7,8.3,0.2C370.1,169.2,374.7,172.8,375.6,179.2z"/>
		</g>
		<path class="st31" d="M356.9,193.8l0.1,4.9c-6.2,1.5-13.4,2.3-20.6,2.4c-1.1,0-2.1,0-3.2,0c-9.7-0.1-18.9-1.5-25.2-3.9l0-0.5
			c-1.9-0.8-4.1-2.1-6.5-3.9l-20.1-19.4c-5.5-6.1-10.8-12.3-15.1-17.6c0.1-2,1.3-2.8,6.7,4c7.3,9.3,21.3,23.2,35.6,27
			c2.5,0.6,4.9,1,7.4,1c1.6,0,3.2-0.2,4.8-0.6C338.8,183.1,356.9,193.8,356.9,193.8z"/>
	</g>
	<g>
		<g>
			<g>
				<g>
					<path class="st39" d="M136.9,336.2c-3.7,0-8.3-2.2-11.6-5.9c-4.8-5.3-1.8-14-1.6-14.4c0.1-0.2,0.2-0.3,0.4-0.3
						c0.4,0,10.8-0.4,15.5,4.8c2.9,3.2,4.4,7,4,10.1c-0.2,2-1.1,3.5-2.6,4.5C139.9,335.8,138.4,336.2,136.9,336.2z M124.5,316.6
						c-0.5,1.6-2.3,8.7,1.5,12.9c4.4,4.9,11,7,14.5,4.6c1.2-0.8,2-2.1,2.2-3.8c0.3-2.8-1.1-6.3-3.8-9.2
						C134.9,316.7,126.2,316.6,124.5,316.6z"/>
				</g>
				<g>
					<polygon class="st39" points="145.6,340.8 132.1,325.7 132.8,325 146.3,340.1 					"/>
				</g>
			</g>
			<path class="st24" d="M281.6,445c13-6.5,22.7-15.4,20-27.7c-8-36.9-37-40.6-63.4-15c13-19.5,6.9-60.8-22.5-53.5
				c-25.2,6.2-16,40.5-6.2,56.3c-31.9-32.5-59.2-9.2-49.8,6.5c0.2,0.3,0.4,0.6,0.6,0.9c12.7,20.4,34.1,32.5,57,32.5H281.6z"/>
			<g>
				<g>
					<path class="st39" d="M257.3,415.3c-1.6,0-3-0.4-4.1-1.2c-1.4-1-2.3-2.5-2.5-4.4c-0.3-3.1,1.2-6.9,4.1-10
						c4.7-5.1,15-4.7,15.4-4.6l0.2,0l0.1,0.2c0.1,0.4,3,9.1-1.8,14.2C265.5,413.2,261,415.3,257.3,415.3z M269.4,395.9
						c-2.5,0-10.3,0.3-14.1,4.4c-2.7,3-4.2,6.5-3.9,9.3c0.2,1.7,0.9,3,2.2,3.8c3.6,2.5,10.2,0.5,14.7-4.5c4-4.3,2.1-11.7,1.7-13.1
						C269.9,395.9,269.7,395.9,269.4,395.9z"/>
				</g>
				<g>
					<polygon class="st39" points="248.2,419.8 247.7,419.3 261.5,404.4 262.1,404.9 					"/>
				</g>
			</g>
		</g>
		<g>
			<g>
				<path class="st23" d="M154.9,318.8c1-3.3,4.3-5.1,7.4-4.1c3.1,1.1,4.8,4.6,3.8,8c-1,3.3-4.3,5.1-7.4,4.1
					C155.6,325.7,153.9,322.1,154.9,318.8z M164.7,322.2c0.8-2.5-0.5-5.2-2.8-6c-2.3-0.8-4.8,0.6-5.6,3.1c-0.8,2.5,0.5,5.2,2.8,6
					C161.4,326.1,163.9,324.7,164.7,322.2z"/>
			</g>
			<path class="st23" d="M167.5,302.4c-1.5-0.5-2.4-2.3-1.9-4c0.5-1.7,2.2-2.6,3.7-2c1.5,0.5,2.4,2.3,1.9,4
				C170.7,302,169,302.9,167.5,302.4z"/>
		</g>
	</g>
	<path class="st23" d="M212.7,444.8h35.7c5-2.4,10.4-6.4,8.9-12c-2.4-8.9-11.2-15.2-19.1-5.6c3.9-7.3,4.9-19-6.7-17.2
		c-7.8,1.2-8.9,8.9-8.5,15.4c-1.7-4.7-9.4-8.6-14.7-5.4C197,426.8,203.2,440.3,212.7,444.8z"/>
</g>
</svg>
