<?xml version="1.0" encoding="utf-8"?>
<!-- Generator: Adobe Illustrator 26.0.0, SVG Export Plug-In . SVG Version: 6.00 Build 0)  -->
<svg version="1.1" id="_x38_13c2686-e70f-4fb0-bf6b-a2eb7b1db384"
	 xmlns="http://www.w3.org/2000/svg" xmlns:xlink="http://www.w3.org/1999/xlink" x="0px" y="0px" viewBox="0 0 1121 851.8"
	 style="enable-background:new 0 0 1121 851.8;" xml:space="preserve">
<style type="text/css">
	.st0{fill:#C1DADE;}
	.st1{fill:#DFEDF1;}
	.st2{clip-path:url(#SVGID_00000061442669672914637020000001924557794797257389_);}
	.st3{fill:#DFBA99;}
	.st4{fill:#FFFFFF;}
	.st5{fill:#A3C8CA;}
	.st6{fill:#1E3099;}
	.st7{fill:#2A3DBB;}
	.st8{clip-path:url(#SVGID_00000093174753743459421190000004437061383471321265_);}
	.st9{fill:#436D7F;}
	.st10{fill:#385E6F;}
	.st11{fill:#8D4410;}
	.st12{fill:#453439;}
	.st13{fill:#879BE9;}
	.st14{fill:#4B59D8;}
	.st15{fill:#22349E;}
	.st16{fill:#B95E1D;}
	.st17{fill:#A5B3FB;}
	.st18{fill:#945B79;}
	.st19{fill:#514E7F;}
	
		.st20{opacity:0.3;fill:none;stroke:#000000;stroke-width:0.75;stroke-miterlimit:10;stroke-dasharray:12;enable-background:new    ;}
	.st21{opacity:0.5;fill:#1BB1DC;enable-background:new    ;}
	.st22{fill:#E8CAAD;}
	.st23{fill:#91BDBD;}
	.st24{clip-path:url(#SVGID_00000040535432353317129450000015877630570619355794_);}
	.st25{fill:#E9A870;}
	.st26{fill:#1C1D1C;}
	.st27{fill:#9B1515;}
	.st28{fill:#CF4A37;}
	.st29{fill:#DAA374;}
	.st30{fill:#393F9A;}
	.st31{fill:#D26F3C;}
	.st32{fill:#DD684E;}
	.st33{opacity:0.22;fill:#E9A870;}
	.st34{fill:#F1F1F1;}
	.st35{clip-path:url(#SVGID_00000088834035326155591280000014451171397059922567_);fill:#E8CAAD;}
	.st36{clip-path:url(#SVGID_00000088834035326155591280000014451171397059922567_);}
	.st37{fill:#6D3C18;}
	.st38{fill:#932027;}
	.st39{fill:#582D13;}
	.st40{fill:#81481D;}
	.st41{fill:#810909;}
	.st42{fill:#CB2E31;}
	.st43{fill:#DF6728;}
	.st44{fill:#E27F4D;}
</style>
<g>
	<path class="st0" d="M1081.9,300.8c31.2-45,34.8-100.9,20-107c-21.4-8.7-40,63.7-47.2,107H1081.9z"/>
	<g>
		
			<ellipse transform="matrix(0.7071 -0.7071 0.7071 0.7071 99.8401 749.9206)" class="st1" cx="955.2" cy="254.4" rx="135" ry="135"/>
	</g>
	<g>
		<defs>
			<ellipse id="SVGID_1_" cx="955.2" cy="254.6" rx="135" ry="135.2"/>
		</defs>
		<clipPath id="SVGID_00000086677227565484495410000001363525411788458159_">
			<use xlink:href="#SVGID_1_"  style="overflow:visible;"/>
		</clipPath>
		<g style="clip-path:url(#SVGID_00000086677227565484495410000001363525411788458159_);">
			<rect x="705.1" y="301.1" class="st3" width="412" height="213.3"/>
			<g>
				<g>
					<path class="st4" d="M763.1,512.1c-0.4,0-0.7-0.2-1-0.5c-0.4-0.5-0.4-1.3,0.2-1.8l245.2-209.3c0.5-0.5,1.3-0.4,1.8,0.2
						c0.4,0.5,0.4,1.3-0.2,1.8L763.9,511.8C763.7,512,763.4,512.1,763.1,512.1z"/>
				</g>
			</g>
			<g>
				<path class="st4" d="M1118.3,343.4h-413c-0.7,0-1.2,0.6-1.2,1.3c0,0.7,0.6,1.3,1.2,1.3h413V343.4z"/>
			</g>
		</g>
	</g>
	<path class="st5" d="M1082.1,300.8c10.8-27.5,21.4-60.9,10.8-65.2c-15.2-6.2-25,34.4-30.1,65.2H1082.1z"/>
	<path class="st0" d="M1070.5,300.9c3.2-19.3,5.2-41.8-2.2-43.1c-10.2-1.8-11.5,22.8-10.9,43.1H1070.5z"/>
</g>
<g>
	<g>
		<circle class="st6" cx="915.2" cy="130.8" r="28.3"/>
		
			<ellipse transform="matrix(0.1602 -0.9871 0.9871 0.1602 639.4891 1013.2598)" class="st7" cx="915.2" cy="130.8" rx="27.4" ry="27.4"/>
	</g>
	<g>
		<defs>
			
				<ellipse id="SVGID_00000003096697434978961660000017252789559747947448_" transform="matrix(7.625090e-02 -0.9971 0.9971 7.625090e-02 626.9293 1188.3434)" cx="954.8" cy="255.8" rx="135.9" ry="135.9"/>
		</defs>
		<clipPath id="SVGID_00000027564688893018311160000015798955014117040824_">
			<use xlink:href="#SVGID_00000003096697434978961660000017252789559747947448_"  style="overflow:visible;"/>
		</clipPath>
		<g style="clip-path:url(#SVGID_00000027564688893018311160000015798955014117040824_);">
			<path class="st9" d="M1031,303.9c-2.4,0-8.1,1-8.5-1.7c-0.1-0.8,0-1.7,0-2.5c0-4.3,0-8.6,0-12.9c0-15.9,0-31.8,0-47.7
				c0-20.2,0-40.4,0-60.6c0-17.7,0-35.4,0-53c0-5.8,0-11.5,0-17.3c0-2.5-0.4-5.3,0-7.8c0.1-1,0.6-1.5,1.9-1.7c1.9-0.2,4.6-0.2,6.5,0
				c2,0.3,1.9,1.4,1.9,2.6c0,3.5,0,7,0,10.4c0,14.9,0,29.9,0,44.8c0,20.1,0,40.1,0,60.2c0,18.3,0,36.7,0,55c0,9.8,0,19.7,0,29.5
				C1032.9,302.4,1033,303.9,1031,303.9z"/>
			<g>
				<g>
					<g>
						<path class="st4" d="M841.3,214.8c-2.5,0-0.4-1.7,0.3-2.2c1.1-0.7,2.3-1.3,3.4-2c4.4-2.6,8.9-5.3,13.3-7.9
							c14.8-8.8,29.7-17.6,44.5-26.4c18.2-10.8,36.3-21.5,54.5-32.3c15.7-9.3,31.3-18.6,47-27.8c5.1-3,10.3-6.1,15.4-9.1
							c2.3-1.4,4.7-3.2,7.2-4.3c1.4-0.6,2.6,0.3,1.4,1.4c-0.6,0.5-1.5,0.9-2.2,1.3c-3.8,2.2-7.5,4.4-11.3,6.7
							c-14.1,8.3-28.2,16.7-42.3,25c-18,10.7-36,21.3-54,32c-16.3,9.7-32.7,19.3-49,29c-8.8,5.2-17.7,10.5-26.5,15.7
							C842.7,214.2,842,214.8,841.3,214.8z"/>
					</g>
					<g>
						<path class="st4" d="M841.3,230c-2.5,0-0.4-1.7,0.3-2.2c1.1-0.7,2.3-1.4,3.4-2c4.4-2.6,8.8-5.2,13.3-7.8
							c14.9-8.8,29.7-17.6,44.6-26.4c18.1-10.7,36.1-21.4,54.2-32.1c15.6-9.3,31.3-18.5,46.9-27.8c5.2-3.1,10.3-6.1,15.5-9.2
							c2.3-1.4,4.7-3.2,7.3-4.3c1.4-0.6,2.6,0.3,1.4,1.4c-0.6,0.5-1.6,0.9-2.3,1.3c-3.8,2.2-7.5,4.5-11.3,6.7
							c-14,8.3-28,16.6-42,24.9c-18,10.7-36.1,21.3-54.1,32c-16.2,9.6-32.5,19.2-48.7,28.9c-8.9,5.3-17.8,10.5-26.6,15.8
							C842.7,229.4,842,230,841.3,230z"/>
					</g>
					<g>
						<path class="st4" d="M841.3,245.1c-2.5,0-0.4-1.7,0.3-2.2c1.1-0.7,2.3-1.4,3.4-2c4.4-2.6,8.8-5.2,13.2-7.8
							c14.8-8.8,29.7-17.6,44.5-26.4c18.1-10.7,36.2-21.5,54.4-32.2c15.7-9.3,31.4-18.6,47.1-27.9c5.2-3.1,10.3-6.1,15.5-9.2
							c2.3-1.4,4.7-3.2,7.3-4.3c1.4-0.6,2.6,0.3,1.4,1.4c-0.6,0.5-1.6,0.9-2.3,1.3c-3.8,2.2-7.5,4.5-11.3,6.7
							c-14.1,8.3-28.1,16.6-42.2,25c-18,10.7-36.1,21.4-54.1,32c-16.3,9.7-32.6,19.3-48.9,29c-8.9,5.3-17.7,10.5-26.6,15.8
							C842.7,244.5,842,245.1,841.3,245.1z"/>
					</g>
					<g>
						<path class="st4" d="M842.8,259.4c-2.5,0-0.4-1.7,0.3-2.2c1.1-0.7,2.3-1.3,3.4-2c4.4-2.6,8.8-5.2,13.1-7.8
							c14.7-8.7,29.5-17.4,44.2-26.2c17.9-10.6,35.8-21.2,53.8-31.8c15.6-9.2,31.1-18.4,46.7-27.6c5.1-3,10.2-6,15.3-9.1
							c2.3-1.4,4.6-3.2,7.1-4.2c1.4-0.6,2.6,0.3,1.4,1.4c-0.6,0.5-1.5,0.9-2.2,1.3c-3.7,2.2-7.5,4.4-11.2,6.6
							c-14,8.3-27.9,16.5-41.9,24.8c-17.8,10.5-35.6,21.1-53.5,31.6c-16.2,9.6-32.3,19.1-48.5,28.7c-8.8,5.2-17.6,10.4-26.3,15.6
							C844.1,258.8,843.4,259.4,842.8,259.4z"/>
					</g>
					<g>
						<path class="st4" d="M841.3,275.6c-2.5,0-0.4-1.7,0.3-2.2c1.1-0.7,2.3-1.4,3.4-2c4.4-2.6,8.8-5.2,13.2-7.8
							c14.7-8.7,29.5-17.5,44.2-26.2c18.1-10.7,36.1-21.4,54.2-32.1c15.6-9.2,31.1-18.5,46.7-27.7c5.1-3,10.2-6.1,15.4-9.1
							c2.3-1.4,4.7-3.2,7.2-4.3c1.4-0.6,2.6,0.3,1.4,1.4c-0.6,0.5-1.6,0.9-2.3,1.3c-3.7,2.2-7.4,4.4-11.1,6.6
							c-14,8.3-28,16.6-42,24.9c-18,10.6-35.9,21.3-53.9,31.9c-16.2,9.6-32.3,19.2-48.5,28.8c-8.8,5.2-17.6,10.4-26.4,15.7
							C842.7,275,842,275.6,841.3,275.6z"/>
					</g>
					<g>
						<path class="st4" d="M841.3,290.8c-2.5,0-0.4-1.7,0.3-2.2c1.2-0.7,2.3-1.4,3.5-2.1c4.4-2.6,8.8-5.3,13.2-7.9
							c14.9-8.9,29.7-17.7,44.6-26.6c18.1-10.8,36.2-21.6,54.2-32.3c15.7-9.4,31.4-18.7,47.2-28.1c5.2-3.1,10.4-6.2,15.5-9.3
							c2.3-1.4,4.7-3.2,7.2-4.3c1.4-0.6,2.6,0.3,1.4,1.4c-0.6,0.5-1.5,0.9-2.2,1.3c-3.8,2.3-7.6,4.5-11.3,6.8
							c-14.1,8.4-28.2,16.8-42.2,25.2c-18,10.7-36,21.4-54,32.2c-16.3,9.7-32.6,19.5-48.9,29.2c-8.9,5.3-17.7,10.6-26.6,15.9
							C842.7,290.2,842,290.8,841.3,290.8z"/>
					</g>
					<g>
						<path class="st4" d="M847.8,302.1c-2.5,0-0.4-1.7,0.3-2.2c1.1-0.7,2.2-1.3,3.3-2c4.3-2.5,8.5-5,12.8-7.6
							c14.4-8.5,28.7-17,43.1-25.5c17.5-10.3,34.9-20.7,52.4-31c15.1-9,30.3-17.9,45.4-26.9c5-3,10-5.9,15-8.9
							c2.2-1.3,4.5-3.1,7-4.1c1.4-0.6,2.6,0.3,1.4,1.4c-0.6,0.5-1.5,0.9-2.1,1.3c-3.6,2.2-7.3,4.3-10.9,6.5
							c-13.5,8-27.1,16-40.6,24.1c-17.4,10.3-34.9,20.7-52.3,31c-15.8,9.3-31.5,18.7-47.3,28c-8.5,5.1-17.1,10.1-25.6,15.2
							C849.1,301.5,848.4,302.1,847.8,302.1z"/>
					</g>
				</g>
				<g>
					<g>
						<path class="st4" d="M1019.5,198.3c-1.8,0-0.9-8.1-0.9-9c0-7.2,0-14.4,0-21.6c0-16.3,0-32.6,0-48.9c0-2.4,0-4.8,0-7.3
							c0-0.9-0.4-2.4,0-3.2c0.8-2,1.7,0.1,1.7,1c0,1.8,0,3.5,0,5.3c0,15.5,0,31,0,46.6c0,7.8,0,15.6,0,23.4c0,2.7,0,5.5,0,8.2
							c0,1.4,0.2,2.9,0,4.3C1020.3,197.7,1020.5,198.3,1019.5,198.3z"/>
					</g>
					<g>
						<path class="st4" d="M1007,207.4c-1.8,0-0.9-8.1-0.9-9c0-7.2,0-14.4,0-21.6c0-16.3,0-32.6,0-48.9c0-2.4,0-4.8,0-7.3
							c0-0.9-0.4-2.4,0-3.2c0.8-2,1.7,0.1,1.7,1c0,1.8,0,3.5,0,5.3c0,15.5,0,31,0,46.6c0,7.8,0,15.6,0,23.4c0,2.7,0,5.5,0,8.2
							c0,1.4,0.2,2.9,0,4.3C1007.8,206.8,1008,207.4,1007,207.4z"/>
					</g>
					<g>
						<path class="st4" d="M994.5,216.5c-1.8,0-0.9-8.1-0.9-9c0-7.2,0-14.4,0-21.6c0-16.3,0-32.6,0-48.9c0-2.4,0-4.8,0-7.3
							c0-0.9-0.4-2.4,0-3.2c0.8-2,1.7,0.1,1.7,1c0,1.8,0,3.5,0,5.3c0,15.5,0,31,0,46.6c0,7.8,0,15.6,0,23.4c0,2.7,0,5.5,0,8.2
							c0,1.4,0.2,2.9,0,4.3C995.3,215.9,995.5,216.5,994.5,216.5z"/>
					</g>
					<g>
						<path class="st4" d="M982.1,223.1c-1.8,0-0.9-8.1-0.9-9c0-7.2,0-14.4,0-21.6c0-16.3,0-32.6,0-48.9c0-2.4,0-4.8,0-7.3
							c0-0.9-0.4-2.4,0-3.2c0.8-2,1.7,0.1,1.7,1c0,1.8,0,3.5,0,5.3c0,15.5,0,31,0,46.6c0,7.8,0,15.6,0,23.4c0,2.7,0,5.5,0,8.2
							c0,1.4,0.2,2.9,0,4.3C982.9,222.5,983.1,223.1,982.1,223.1z"/>
					</g>
					<g>
						<path class="st4" d="M969.6,230.4c-1.8,0-0.9-8.1-0.9-9c0-7.2,0-14.4,0-21.6c0-16.3,0-32.6,0-48.9c0-2.4,0-4.8,0-7.3
							c0-0.9-0.4-2.4,0-3.2c0.8-2,1.7,0.1,1.7,1c0,1.8,0,3.5,0,5.3c0,15.5,0,31,0,46.6c0,7.8,0,15.6,0,23.4c0,2.7,0,5.5,0,8.2
							c0,1.4,0.2,2.9,0,4.3C970.4,229.8,970.6,230.4,969.6,230.4z"/>
					</g>
					<g>
						<path class="st4" d="M957.1,237.5c-1.8,0-0.9-8.1-0.9-9c0-7.2,0-14.4,0-21.6c0-16.3,0-32.6,0-48.9c0-2.4,0-4.8,0-7.3
							c0-0.9-0.4-2.4,0-3.2c0.8-2,1.7,0.1,1.7,1c0,1.8,0,3.5,0,5.3c0,15.5,0,31,0,46.6c0,7.8,0,15.6,0,23.4c0,2.7,0,5.5,0,8.2
							c0,1.4,0.2,2.9,0,4.3C957.9,236.9,958.2,237.5,957.1,237.5z"/>
					</g>
					<g>
						<path class="st4" d="M944.7,244.8c-1.8,0-0.9-8.1-0.9-9c0-7.2,0-14.4,0-21.6c0-16.3,0-32.6,0-48.9c0-2.4,0-4.8,0-7.3
							c0-0.9-0.4-2.4,0-3.2c0.8-2,1.7,0.1,1.7,1c0,1.8,0,3.5,0,5.3c0,15.5,0,31,0,46.6c0,7.8,0,15.6,0,23.4c0,2.7,0,5.5,0,8.2
							c0,1.4,0.2,2.9,0,4.3C945.5,244.2,945.7,244.8,944.7,244.8z"/>
					</g>
					<g>
						<path class="st4" d="M932.2,251c-1.8,0-0.9-8.1-0.9-9c0-7.2,0-14.4,0-21.6c0-16.3,0-32.6,0-48.9c0-2.4,0-4.8,0-7.3
							c0-0.9-0.4-2.4,0-3.2c0.8-2,1.7,0.1,1.7,1c0,1.8,0,3.5,0,5.3c0,15.5,0,31,0,46.6c0,7.8,0,15.6,0,23.4c0,2.7,0,5.5,0,8.2
							c0,1.4,0.2,2.9,0,4.3C933,250.3,933.2,251,932.2,251z"/>
					</g>
					<g>
						<path class="st4" d="M919.7,259.9c-1.8,0-0.9-8.1-0.9-9c0-7.2,0-14.4,0-21.6c0-16.3,0-32.6,0-48.9c0-2.4,0-4.8,0-7.3
							c0-0.9-0.4-2.4,0-3.2c0.8-2,1.7,0.1,1.7,1c0,1.8,0,3.5,0,5.3c0,15.5,0,31,0,46.6c0,7.8,0,15.6,0,23.4c0,2.7,0,5.5,0,8.2
							c0,1.4,0.2,2.9,0,4.3C920.5,259.3,920.8,259.9,919.7,259.9z"/>
					</g>
					<g>
						<path class="st4" d="M907.3,267.1c-1.8,0-0.9-8.1-0.9-9c0-7.2,0-14.4,0-21.6c0-16.3,0-32.6,0-48.9c0-2.4,0-4.8,0-7.3
							c0-0.9-0.4-2.4,0-3.2c0.8-2,1.7,0.1,1.7,1c0,1.8,0,3.5,0,5.3c0,15.5,0,31,0,46.6c0,7.8,0,15.6,0,23.4c0,2.7,0,5.5,0,8.2
							c0,1.4,0.2,2.9,0,4.3C908.1,266.5,908.3,267.1,907.3,267.1z"/>
					</g>
					<g>
						<path class="st4" d="M894.8,274.5c-1.8,0-0.9-8.1-0.9-9c0-7.2,0-14.4,0-21.6c0-16.3,0-32.6,0-48.9c0-2.4,0-4.8,0-7.3
							c0-0.9-0.4-2.4,0-3.2c0.8-2,1.7,0.1,1.7,1c0,1.8,0,3.5,0,5.3c0,15.5,0,31,0,46.6c0,7.8,0,15.6,0,23.4c0,2.7,0,5.5,0,8.2
							c0,1.4,0.2,2.9,0,4.3C895.6,273.8,895.8,274.5,894.8,274.5z"/>
					</g>
					<g>
						<path class="st4" d="M882.4,282.4c-1.8,0-0.9-8.1-0.9-9c0-7.2,0-14.4,0-21.6c0-16.3,0-32.6,0-48.9c0-2.4,0-4.8,0-7.3
							c0-0.9-0.4-2.4,0-3.2c0.8-2,1.7,0.1,1.7,1c0,1.8,0,3.5,0,5.3c0,15.5,0,31,0,46.6c0,7.8,0,15.6,0,23.4c0,2.7,0,5.5,0,8.2
							c0,1.4,0.2,2.9,0,4.3C883.1,281.7,883.4,282.4,882.4,282.4z"/>
					</g>
					<g>
						<path class="st4" d="M869.9,289.4c-1.8,0-0.9-8.1-0.9-9c0-7.2,0-14.4,0-21.6c0-16.3,0-32.6,0-48.9c0-2.4,0-4.8,0-7.3
							c0-0.9-0.4-2.4,0-3.2c0.8-2,1.7,0.1,1.7,1c0,1.8,0,3.5,0,5.3c0,15.5,0,31,0,46.6c0,7.8,0,15.6,0,23.4c0,2.7,0,5.5,0,8.2
							c0,1.4,0.2,2.9,0,4.3C870.7,288.8,870.9,289.4,869.9,289.4z"/>
					</g>
					<g>
						<path class="st4" d="M857.4,296.5c-1.8,0-0.9-8.1-0.9-9c0-7.2,0-14.4,0-21.6c0-16.3,0-32.6,0-48.9c0-2.4,0-4.8,0-7.3
							c0-0.9-0.4-2.4,0-3.2c0.8-2,1.7,0.1,1.7,1c0,1.8,0,3.5,0,5.3c0,15.5,0,31,0,46.6c0,7.8,0,15.6,0,23.4c0,2.7,0,5.5,0,8.2
							c0,1.4,0.2,2.9,0,4.3C858.2,295.9,858.4,296.5,857.4,296.5z"/>
					</g>
				</g>
			</g>
			<path class="st9" d="M844.5,443.7c-2.7,0-8,1-8.3-2c-0.1-1.1,0-2.2,0-3.3c0-5.2,0-10.5,0-15.7c0-19.1,0-38.1,0-57.2
				c0-23.9,0-47.9,0-71.8c0-20.9,0-41.7,0-62.6c0-6.8,0-13.6,0-20.5c0-3-0.4-6.2,0-9.3c0.1-1,0.6-1.7,2-1.9c1.8-0.2,7.3-0.7,8.1,1.1
				c0.3,0.6,0.1,1.6,0.1,2.2c0,4.3,0,8.7,0,13c0,18,0,35.9,0,53.9c0,23.8,0,47.5,0,71.3c0,21.6,0,43.2,0,64.8c0,11.7,0,23.3,0,35
				C846.5,442,846.7,443.7,844.5,443.7z"/>
			<path class="st10" d="M841.3,443.7c-1.8,0-4.7,0.5-5.2-1.4c-0.1-0.2,0-0.5,0-0.8c0-1.3,0-2.7,0-4c0-5.6,0-11.1,0-16.7
				c0-19.2,0-38.4,0-57.7c0-23.7,0-47.4,0-71.1c0-20.6,0-41.1,0-61.7c0-6.7,0-13.4,0-20.2c0-3-0.5-6.3,0-9.2
				c0.1-0.9,0.4-1.4,1.7-1.6c1.8-0.3,4.7-0.3,5.1,1.4c0.2,0.7,0,1.6,0,2.4c0,4.6,0,9.3,0,13.9c0,18.1,0,36.2,0,54.3
				c0,23.6,0,47.3,0,70.9c0,21.4,0,42.8,0,64.2c0,11.5,0,23,0,34.5C843,442.1,843.2,443.7,841.3,443.7z"/>
			<path class="st10" d="M1030.7,304.2c-2.2,0-5.2,0.5-5.3-1.7c-0.1-1,0-2.1,0-3.1c0-4.6,0-9.1,0-13.7c0-16.1,0-32.3,0-48.4
				c0-20,0-40.1,0-60.1c0-17.4,0-34.7,0-52.1c0-5.7,0-11.4,0-17.1c0-2.5-0.4-5.3,0-7.7c0.1-0.8,0.4-1.2,1.6-1.4
				c1.6-0.3,4.8-0.4,5.2,1.2c0.1,0.5,0,1.2,0,1.7c0,3.8,0,7.6,0,11.4c0,15.2,0,30.4,0,45.6c0,19.9,0,39.8,0,59.8
				c0,18.1,0,36.2,0,54.3c0,9.7,0,19.4,0,29.1C1032.2,302.7,1032.4,304.2,1030.7,304.2z"/>
		</g>
	</g>
	<g>
		<g>
			<g>
				<g>
					<g>
						<path class="st11" d="M949.1,208.2c-0.6-1.4-1-2.9-1.2-4.4c-0.2-1.1-0.2-2.4-0.9-3.4c-1.2-1.8-3.4-1.1-5-0.4
							c-5.5,2.7-10,7.9-14.1,12.3c-4.8,5.2-9.4,10.6-13.8,16.2c-2.1,2.6-4.1,5.2-6.1,7.8c-1.3,1.7-3.1,3.5-4.1,5.5
							c-0.8,1.6,0.8,2.9,1.7,4.1c0.9,1.2,1.8,2.3,2.7,3.5c3.1-3.5,6.7-6.6,10.3-9.6c4.2-3.6,8.7-7,13.2-10.2
							c4.8-3.5,10-6.5,14.5-10.4c1.3-1.1,2.6-2.2,3.5-3.6C951.3,213,950.1,210.7,949.1,208.2z"/>
					</g>
				</g>
				<path class="st11" d="M908,242c1.6,1.2,3.5,2.2,4.8,3.7c1.4,1.5,1.9,3.5,2.6,5.4c0.3,0.8,0.6,1.7,0.9,2.5c0.3,0.7,1,1.5,1.1,2.2
					c0.2,0.7,0.1,0.9-0.9,1c-1.8,0.2-3-1.6-4.1-2.7c-1.7-1.9-1.6,0.7-1.6,2.1c0,2.8,0.1,5.7-0.4,8.5c-0.1,0.5-0.2,1.8-0.8,2
					c-0.9,0.3-1.1-1.2-1.2-1.8c-0.2-1.2-0.2-2.4-0.3-3.6c0-0.3,0-1.6-0.4-1.3c-0.3,0.2-0.3,1.9-0.3,2.3c-0.1,1.3-0.2,2.7-0.4,4
					c-0.1,0.7-0.2,2.6-1,3c-0.9,0.5-1.2-0.8-1.3-1.5c-0.3-1.5-0.1-3.1,0-4.6c0-0.2,0.1-2.7,0-2.6c-0.7,0.2-1,4.5-1.2,5.2
					c-0.1,0.6-0.3,2.8-1.2,2.8c-2.1,0.1,0.9-9.9-0.3-10.2c-1.4-0.4-2.3,6.4-3.8,5.9c-1.6-0.5,2.4-12.9,2.8-14.2
					c0.6-2,1.2-4.1,1.9-6.1c0.4-1.1,1-3,2.3-3.3C906.3,240.4,907.3,241.3,908,242z"/>
				<g>
					<path class="st12" d="M949.5,215.2c-1.4-3.4-4.2-5.2-6.5-7.9c-1-1.2-1.7-2.3-2.9-3.2c-0.5-0.4-1.5-1.2-2.1-1.2
						c-0.5,0-0.8,0.5-1.3,0.8c4.6,3.5,9.2,7.9,12.1,12.9c0.3-0.4,0.9-1,1.4-1.2C949.9,215.4,949.7,215.3,949.5,215.2z"/>
					<path class="st13" d="M984.5,181.4c-1-1.4-2.1-2.7-3.9-3c-1.9-0.3-3.9,0.5-5.6,1.1c-4.5,1.6-9,3.5-13.2,5.8
						c-4.6,2.4-9,5.2-13.1,8.3c-3.8,2.8-7,6.1-10.6,9.1c2.5,0.9,3.7,2.6,5.3,4.5c1.8,2.1,4,3.6,5.5,5.9c0.6,1,0.7,2.3,2,2
						c1.2-0.3,2.5-1.2,3.6-1.7c2.1-1,4.2-2,6.3-3c8.2-3.9,17-7.7,22.7-15.2C986.8,191.1,988,185.9,984.5,181.4z"/>
				</g>
				<path class="st4" d="M954.8,213.3c-1.3,0.6-2.6,1.1-3.9,1.8c-0.8,0.4-1.4,1.2-2.2,1.6c-0.9-3.7-3.1-7-6.1-9.4
					c-1.8-1.5-4-2.4-6-3.5c0.4-0.4,0.8-0.9,1.3-1.2c0.4-0.4,1-1,1.5-1.2c0.5-0.2,0.8,0,1.3,0.2c1.5,0.6,3,1.4,4.4,2.3
					C948.9,206.4,951.9,209.9,954.8,213.3z"/>
			</g>
			<g>
				<g>
					<g>
						<path class="st11" d="M969.9,333.9c6.3,2.5,12.6,5.1,18.9,7.6c10.1,4.1,20.2,8.1,30.3,12.2c2.3,0.9,4.6,1.9,6.9,2.8
							c0.6-3.3,1.1-6.5,1.7-9.8c0.3-1.8,0.7-3.5,0.9-5.3c0.1-0.7,0.2-0.5-0.2-0.9c-0.4-0.5-1.4-0.8-1.9-1.1c-1.1-0.7-2.2-1.3-3.3-2
							c-3.3-1.9-6.5-3.9-9.8-5.8c-7.8-4.6-15.5-9.2-23.3-13.8c-2.7-1.6-5.4-3.2-8.1-4.8c-1.6-1-3.1-2-5.1-2.3
							c-5.8-1.1-13.4,1.8-15.2,7.8c-1,3.3-0.7,6.9,1,10C964.4,331.3,966.9,332.8,969.9,333.9z"/>
						<path class="st4" d="M1010.3,350.2c5.2,2.1,10.4,4.2,15.6,6.3c0.4-2.2,0.8-4.5,1.2-6.7c0.3-1.7,0.6-3.3,0.9-5
							c0.2-1.1,0.7-2.5,0.6-3.6c-0.1-0.7,0.1-0.4-0.6-0.9c-1.1-0.8-2.4-1.4-3.6-2.1c-2.2-1.3-4.5-2.6-6.7-4
							C1015.3,339.5,1012.8,344.9,1010.3,350.2z"/>
						<g>
							<g>
								<path class="st14" d="M1035.8,339.4c1.6,0.3,2.1,2.7,2.3,4c0.1,1.4-0.2,2.7-0.6,4c-0.7,1.9-1.5,3.9-2.2,5.9
									c-1.3,4.3-1.1,9-1.5,13.4c-0.2,2.9-0.8,5.8-1.8,8.5c-0.4,1-0.7,1.9-1.1,2.9c-0.6,1.6-1.3,2-3,1.3c-3-1.2-4.2-2.6-4.5-5.6
									c-0.3-3-0.3-6.1-0.4-9.1c-0.1-2.4,0.1-5.6-1.8-7.3c-1.6-1.4-3.3-2.7-4.9-4c2.6-1.8,5.3-3.7,7.9-5.5c1.7-1.2,3.1-2.7,2.7-5
									c-0.3-1.5-1-2.9-1.5-4.3C1028.8,338.9,1032.3,339.1,1035.8,339.4z"/>
							</g>
							<path class="st7" d="M1035.8,339.4c1.9,0.4,2.4,3.6,2.3,5.1c-0.1,1.4-0.6,2.6-1,3.9c-1.2,3.1-2.4,6.1-2.6,9.4
								c-0.4,5.3-0.2,10.8-1.9,16c-0.4,1.4-1,2.7-1.5,4c-0.8,2.2-2,2.1-4.1,1.1c5.5-6,2.1-14.4,3.5-21.6c0.6-3,2-5.7,2.6-8.7
								c0.3-1.4,1-2.6,1.2-4c0.4-1.8-0.2-3.8-0.9-5.5C1034.2,339.3,1035,339.4,1035.8,339.4z"/>
						</g>
					</g>
					<g>
						<path class="st15" d="M995.1,315.7c-9.8-1-19.6-2.2-29.3-3.6c-2.2-0.3-4.5-0.6-6.7-1.1c-0.2-0.1-1.3-0.2-1.4-0.4
							c-0.2-0.3,1.2-1,1.5-1.1c3.5-2,8.3-3.6,12.3-2.3c3.2,1.1,5.6,2,9.1,1.3c2.4-0.4,4.5-1.3,6.9-0.8c1.7,0.4,3.1,1.3,4.3,2.5
							C993.2,311.6,994.8,313.8,995.1,315.7z"/>
						<path class="st11" d="M993.5,297.9c-1.7,4.9-3.4,9.8-5.1,14.7c-2.3,6.6-4.9,12.6-10.1,17.4c-3.2,2.9-6.9,4.9-11,2.7
							c-5-2.7-7.1-7.8-7-13.3c0.1-6.5,2.7-12.7,4.8-18.8c1.8-5.2,3.6-10.5,5.4-15.7C978.1,289.3,985.8,293.6,993.5,297.9z"/>
						<path class="st12" d="M991.3,304.3c-1.9-1.7-3.7-3.4-5.6-5.1c-1.2-1.1-2-1.5-3.5-2.1c-4.7-1.9-9.3-3.8-14-5.7
							c-2.1,6-4.3,12-6.2,18c2.3-1.5,5.2-2,7.9-1.5c1.9,0.3,2.8,1.2,4.3,2.3c1.8,1.4,3.9,2,6.1,1.9c2.9-0.1,5.3-0.7,7.8,1.2
							C989.2,310.3,990.2,307.3,991.3,304.3z"/>
						<path class="st7" d="M998.3,241.5c-5.5-2.4-11.6-2.3-16.7,0.9c-9.8,6.2-14.3,19.3-17.2,29.8c-3.5,12.4-5.4,25.3-6.8,38.2
							c3.4-2.5,8.7-4.5,12.9-3.5c1.4,0.3,2.6,1,4,1.5c1.9,0.6,3.9,0.6,5.8,0.2c2.4-0.4,4.6-1.3,7-0.9c1.7,0.3,3.3,1.3,4.5,2.5
							c1.3,1.4,3,3.5,3.3,5.5c7.3-12.1,12.7-25.8,14.1-39.9c0.9-9.1,0.3-19.2-4.1-27.3C1003.6,245.6,1001.4,242.8,998.3,241.5z"/>
					</g>
				</g>
				<g>
					<g>
						<path class="st16" d="M997.9,339.8c6,3.2,12,6.4,17.9,9.6c9.6,5.1,19.2,10.2,28.8,15.4c2.2,1.2,4.4,2.3,6.6,3.5
							c1-3.6,2.1-7.2,3.1-10.9c0.3-0.9,0.5-1.8,0.8-2.7c0.1-0.3,0.6-1.4,0.5-1.8c-0.1-0.2-0.5-0.4-0.7-0.6
							c-5.9-4.4-11.7-8.8-17.6-13.2c-7.4-5.6-14.8-11.1-22.3-16.6c-1.6-1.2-3.3-2.5-5-3.7c-4.2-2.9-10.6-2.3-14.8,0.4
							c-1.4,0.9-2.6,2-3.4,3.4c-0.6,1-0.9,2.2-1.5,3.2c-0.9,1.5-2.3,2.8-2.9,4.4c-0.7,1.8,0.1,3.2,1.4,4.4
							C991.6,336.8,994.9,338.3,997.9,339.8z"/>
						<path class="st4" d="M1036.4,360.3c5,2.6,9.9,5.3,14.9,7.9c0.6-2.2,1.2-4.4,1.9-6.6c0.5-1.6,0.9-3.3,1.4-4.9
							c0.3-1.1,1-2.4,1-3.5c0-0.7,0.2-0.4-0.5-1c-1-0.9-2.3-1.7-3.4-2.5c-2.1-1.5-4.1-3.1-6.2-4.6
							C1042.5,350.2,1039.5,355.2,1036.4,360.3z"/>
						<g>
							<g>
								<path class="st14" d="M1062.9,352.3c1.6,0.5,1.9,3.1,1.8,4.5c-0.1,1.4-0.5,2.6-1.1,3.7c-0.9,1.8-1.9,3.6-2.7,5.4
									c-1.8,4.1-2.1,8.9-2.9,13.2c-0.5,2.9-1.4,5.7-2.7,8.4c-0.8,1.7-1.7,5-4,4c-3-1.3-4.3-3-4.4-6.1c0-3.1,0.4-6.2,0.5-9.3
									c0.1-2.4,0.7-5.5-1-7.4c-1.4-1.6-3-3.1-4.5-4.5c2.8-1.5,5.6-3.1,8.5-4.6c1.9-1,3.4-2.3,3.2-4.7c-0.1-1.5-0.7-3-1-4.5
									C1056.1,350.9,1059.5,351.6,1062.9,352.3z"/>
							</g>
							<path class="st7" d="M1062.9,352.3c2,0.6,2,4,1.7,5.6c-0.2,1.3-0.8,2.4-1.4,3.5c-1.4,2.9-2.9,5.7-3.6,8.8
								c-1.1,5.3-1.4,10.9-3.6,15.9c-0.6,1.3-1.2,2.5-1.8,3.8c-0.3,0.5-0.5,1.2-1,1.6c-1,0.7-2.3-0.2-3.3-0.7
								c6.1-5.4,3.6-14.1,5.8-21.1c0.9-2.9,2.6-5.5,3.6-8.4c0.4-1.3,1.2-2.5,1.6-3.8c0.6-1.8,0.2-3.8-0.3-5.6
								C1061.3,352,1062.1,352.1,1062.9,352.3z"/>
						</g>
					</g>
					<g>
						<path class="st15" d="M1015.2,311.9c-9.8,2-19.6,3.7-29.4,5.2c-2.2,0.3-4.4,0.7-6.6,0.9c-0.2,0-1.2,0.2-1.3,0
							c-0.2-0.3,1.2-1.5,1.4-1.7c2.8-2.8,6.7-5.7,10.8-5.5c3.2,0.1,5.7,0.3,8.7-1.2c2.2-1.1,4.1-2.7,6.6-3c1.8-0.2,3.5,0.3,5.1,1.1
							C1012.1,308.6,1014.3,310.2,1015.2,311.9z"/>
						<path class="st16" d="M1008.4,295.4c-0.2,5.3-0.4,10.6-0.6,15.9c-0.3,7.4-1.2,14.6-5.6,20.9c-1.2,1.7-2.7,3.3-4.6,4.1
							c-2,0.8-4.4,0.3-6.4-0.5c-4.3-1.6-6.9-5.5-8.3-9.8c-1.9-6.1-1.2-12.5-1-18.7c0.2-5.8,0.4-11.7,0.6-17.5
							C991.2,291.7,999.8,293.5,1008.4,295.4z"/>
						<path class="st12" d="M1008.1,302.1c-2.3-1.1-4.6-2.2-6.8-3.3c-1.5-0.7-2.3-0.8-4-1c-5-0.4-10-0.9-15-1.3
							c-0.2,6.3-0.6,12.7-0.7,19c1.9-2.3,4.8-3.7,7.8-3.8c1.8-0.1,3,0.6,4.6,1.2c2.1,0.7,4.4,0.6,6.5-0.3c2.5-1,4.6-2,7.3-1
							C1007.9,308.5,1008,305.3,1008.1,302.1z"/>
						<path class="st14" d="M996.4,240c-5.9,0.9-11.6,2.7-15.7,7.3c-7.5,8.5-8,21.8-7.7,32.4c0.3,12.8,2.3,25.6,4.7,38.1
							c2.1-2.8,5.1-5,8.3-6.4c2.5-1.1,4.6-0.6,7.2-0.6c3.9,0,6.5-2.5,9.9-3.8c2.7-1.1,5.6-0.5,8.1,1c1.4,0.9,3.2,2.3,4,3.8
							c3.5-14.1,5.8-29,4.5-43.6c-0.8-8.9-3-19.9-10.7-25.6C1005.4,240.1,1000.9,239.3,996.4,240z"/>
					</g>
				</g>
				<path class="st17" d="M967.9,255c0.4-4.6,0.4-9.2-0.2-13.7c-0.5-4.4-1.7-8.5-2.8-12.8c-2.1-8.1-0.6-16.5,1-24.5
					c1.4-7.1,3.1-14.7,7.5-20.6c4.5-6,11.3-8,18.6-6.8c5.6,0.9,11.2,3.2,15.3,7.4c3.2,3.3,5.2,7.6,6.3,12c2.4,9.8,1.4,20.1,1.2,30.1
					c-0.1,8.2-0.4,20.1,8.4,24.2c-14.5,11.4-34.3,11.8-51.3,6.1C970.5,256,969.2,255.5,967.9,255z"/>
				<path class="st17" d="M964.5,253.8c0.7-8.1,3.1-16,0.8-24.1c-2.4-8.3-1-16.7,0.6-25.1c1.4-7,3-14.4,7.1-20.4
					c4.3-6.3,11.1-8.7,18.5-7.6c5.7,0.8,11.5,3.1,15.7,7.2c3.3,3.3,5.3,7.6,6.5,12.1c2.5,9.8,1.4,20.2,1.2,30.3
					c-0.1,8.2-0.4,20.1,8.4,24.2c-15.4,12.1-36.4,15.7-55.6,15c-1.6-0.1-3.2-0.1-4.8-0.3C963.3,261.3,963.9,257.5,964.5,253.8z"/>
				<path class="st4" d="M1029.9,255.7c-2.2,1.8-4.4,3.7-6.7,5.3c-1.5,1-2.9,2-4.2,3.3c-3.7,3.7-8.1,5.9-13,7.5
					c-11.5,3.8-24,4.7-36.1,5.2c-3,0.1-6,0.2-9,0.1c1.9-12.6,4.5-25.3,5.3-38c0.2-2.6,0.3-5.3,0.1-7.9c-0.3-3.2-1.5-6.2-1.8-9.5
					c-0.8-8.7,1.3-18.2,3.6-26.6c1.9-6.9,4.9-14.7,11.6-18.4c3.7-2,8.1-2.3,12.2-1.8c4.7,0.7,9.6,2.1,14,3.8
					c3.8,1.5,6.8,3.6,8.7,7.3c1.6,3.1,2.4,6.5,2.8,9.9c0.9,7.6-0.1,15.4-0.9,23c-0.4,4-0.8,8.1-0.9,12.1c0,3.2,0.1,6.8,1.3,9.8
					c1.2,3,3.6,5.7,5.7,8.2C1024.6,251.4,1027,254.4,1029.9,255.7z"/>
				<path class="st13" d="M1019.4,244.6c2.7,4,6,8.7,10.4,11.1c-2.9,2.5-5.7,5.1-8.7,7.5c-1.4,1.1-2.8,2.1-4.2,3.1
					c-0.8,0.5-2.1,1.7-2.8,1.5c-0.6-0.2-1.3-1.1-1.7-1.6c-4.3-4.4-7.4-9.9-9.6-15.5c-5.2-12.9-7-27.2-6.6-41
					c0.2-6.2,0.8-12.5,2.3-18.5c0.6-2.4,1.4-4.8,2.4-7.1c0.7-1.7,1.8-4.2,3.3-5.4c0.6-0.5,0.6-0.4,1.1,0.3c0.7,0.9,1.1,2.1,1.6,3.2
					c0.5,1.1,1,2.3,1.6,3.4c0.5,0.9,0.6,1,1.7,1.2c4.9,0.8,6.4,6.3,7,10.5c1.2,7.5,0.5,15.4,0,22.9
					C1016.6,228.1,1014.7,237.5,1019.4,244.6z"/>
			</g>
			<g>
				<g>
					<g>
						<path class="st16" d="M1048.1,179.2c-2.4,1.4-4.3,3.3-6.6,4.8c-1.3,0.9-2.9,1.3-4.3,0.2c-1.6-1.3-2.1-3.8-2.5-5.7
							c-0.5-2.6-0.8-5.3-0.9-7.9c-0.7-12.1,0.4-24.3,1.7-36.3c0.3-2.5,0.5-5.1,0.9-7.6c0.1-0.6,0-2.7,0.4-3.2c0.6-0.7,3.4-0.9,4.2-1
							c1.8-0.2,3.9,0.1,5,1.7c1,1.5,0.8,3.8,1,5.6c0.2,2.3,0.5,4.6,0.8,6.9c0.8,5.8,1.8,11.5,3.1,17.2c1.3,5.4,3.1,10.7,3.5,16.3
							c0.1,1.6,0.1,3.5-0.7,5C1052.6,177.2,1050,178.1,1048.1,179.2z"/>
					</g>
				</g>
				<path class="st16" d="M1043.6,127.9c-1.6,0.1-3.2,0.2-4.8,0.3c-4.1,0.2-7.2-1.8-10.8-3.5c-0.9-0.4-1.7-0.8-2.6-1.1
					c-0.3-0.1-1.1-0.2-1.3-0.4c-0.9-0.6,0.2-1.4,1-1.7c1.9-0.8,3.8,0,5.7,0c0.8,0,1.2,0.1,1-0.8c-0.1-0.6-1-1.3-1.5-1.7
					c-1-1-2-2-3-3c-0.9-1-1.8-2-2.7-3c-0.5-0.6-1.6-1.7-1.5-2.5c0-2.2,3.6,1,4.2,1.5c0.6,0.5,1.5,1.8,2.3,2c0.7,0.2,0.2-0.2,0-0.6
					c-1.3-1.9-3.1-3.5-4.3-5.5c-0.3-0.4-1.1-1.5-0.8-2.1c0.4-0.8,1.4-0.3,1.9,0c2.1,1.3,3.5,3.5,5.2,5.2c0.2,0.2,0.7,0.9,0.7,0.4
					c0.1-0.7-1.3-2.1-1.6-2.6c-0.6-0.9-3-3.5-2.4-4.6c0.4-0.8,1.1-0.2,1.6,0.2c0.9,0.7,1.7,1.7,2.5,2.6c0.6,0.7,1.2,1.4,1.7,2.1
					c0.4,0.5,1.5,2.5,2.3,2.5c1.1-0.1,0-2.4-0.2-2.9c-0.3-0.8-1.7-5.2,0.3-3.5c2.7,2.3,4.5,6.3,6.2,9.3
					C1044.3,117.3,1050.6,128.4,1043.6,127.9z"/>
				<g>
					<path class="st13" d="M1043.1,182.9c-4.5,3.4-9.2,6.6-13.9,9.6c-4.4,2.8-8.7,5.5-13.8,6.7c-2.9,0.6-6.1,0.8-8.9-0.4
						c-3.1-1.3-5.1-4.2-6.1-7.3c-2.4-6.9,4.5-13.2,9.3-17.1c7-5.6,15.4-10,24-12.5c0.3,5.9,2.9,11.7,7.5,15.5c1.2,1,2.6,2,4.2,2.4
						c0.5,0.1,0.8,0,0.8,0.4C1046.2,180.9,1043.5,182.6,1043.1,182.9z"/>
				</g>
				<path class="st4" d="M1043.1,182.9c-4.3-3-8-7-10.6-11.6c-1.1-1.9-2-3.8-2.7-5.8c-0.2-0.4-0.3-0.8-0.4-1.3
					c-0.3-0.9-0.3-0.5,0.3-1c1-0.7,2.9-1,4-1.3c0.3,5.9,2.9,11.7,7.5,15.5c1.2,1,2.6,2,4.2,2.4c0.5,0.1,0.8,0,0.8,0.4
					C1046.2,180.9,1043.5,182.6,1043.1,182.9z"/>
			</g>
		</g>
		<path class="st4" d="M1001.4,182.3c-1.9,4.4-4.8,8.5-8.4,11.8c-2.6,2.4-5.5,4.3-8.7,5.8c-0.9,0.4-1.8,0.8-2.8,1.1
			c-1,0.4-1.6,0.9-2.2-0.2c-0.7-1.4-1.2-2.9-1.5-4.4c-1.1-5.1-0.5-10.6,0.8-15.7c1-4.2,6.1-4.6,9.7-4.4
			C990.7,176.5,1003.4,177.7,1001.4,182.3z"/>
		<path class="st16" d="M997.9,184.5c-2.6,5-6.5,9.5-11.6,11.9c-0.7,0.4-1.5,0.7-2.3,0.9c-0.4,0.1-2.1,0.9-2.5,0.7
			c-0.7-0.4-1.3-2.9-1.5-3.6c-0.8-2.8-1-5.8-0.8-8.8c0.1-1.3,0.3-2.6,0.6-3.9c0.1-0.6,0.3-1.2,0.5-1.9c0.3-0.9,0.5-1,1.4-1.4
			c2.6-1,5.3-1.6,8-1.5c2.1,0,4.9,0.1,6.6,1.4C998.3,179.7,999,182.3,997.9,184.5z"/>
		<g>
			<g>
				<path class="st12" d="M988.3,164.7c-0.8-1.4-1.9-2.8-3.3-3.7c-1.9-1.3-3.5-0.2-5.6-0.7c-4-1-9.3-5.7-8.7-10.2
					c0.6-5.8,7.5-6,11.6-4c1.2,0.6,1.2,1,2.3,0.4c1.7-0.8,3.6-1.5,5.5-1.5c5.9,0.1,7.5,7.8,5.9,12.4c2.2,0.6,4.6,1.6,6.2,3.2
					c2.1,2.2,1,4.7-0.8,6.7c-1.6,1.8-4,3.2-6.4,3.2C991.6,170.5,989.4,167.5,988.3,164.7z"/>
				<g>
					<path class="st16" d="M983,188c4.3,0.3,8.4-2.2,10.1-6.2c1.1-2.6,0.9-5.7,0.9-8.6c0.1-4.1,0.2-8.2,0.3-12.3
						c-2,0.6-4.1,1.3-6.1,1.9c-0.7,0.2-1.4,0.4-2,0.6c-0.5,0.2-1,0.2-1.3,0.6c-0.3,0.3-0.4,1.3-0.5,1.7c-1.2,4.1-2.3,8.2-3.4,12.3
						C980.2,181.2,977.7,187.6,983,188z"/>
					<path class="st12" d="M984.4,165c-1.1,3.7-2,7.5-3,11.3c-0.1,0.4-0.8,2.1-0.6,2.5c0,0.1,0.6,0.3,0.6,0.3c0.5,0.4,1.4,0.5,2,0.5
						c2.3,0.1,4.3-1.3,5.8-2.9c3.3-3.3,5.7-8.2,4.9-13c-0.3-1.8-0.9-3.4-3-2.8C988.7,161.7,986.4,163.4,984.4,165z"/>
				</g>
				<path class="st16" d="M982.4,153.7c-2.2,2.8-4.2,5.7-5.9,8.8c-1,1.8-2.1,3.9-2.2,6c-0.2,2.6,2,3.3,4.1,4.2
					c3.4,1.4,7.3,2,10.7,0.4c2.9-1.4,4.5-3.9,5.5-6.9c0.9-2.7,1.4-5.5,1.8-8.3c0.2-1.2,0.6-1.9-0.2-2.7
					C992.8,151.8,985.9,149.5,982.4,153.7z"/>
				<path class="st12" d="M992,157.5c-1.1-0.9-2.5-1.7-3.8-2c-2.1-0.6-3.2,0.6-5.1,0.9c-3.5,0.6-8.7-1.3-10.3-4.6
					c-2.3-4.9,4-8.1,8-7.9c1.1,0.1,1.4,0.3,2.2-0.2c1.4-1,2.5-2.1,4.2-2.8c5.2-1.9,9.7,3.5,9.6,8.4c4-0.2,10.3,0.6,8.2,6
					c-0.8,2.2-2.6,4.2-4.8,5C997.1,161.5,994.1,159.8,992,157.5z"/>
				<path class="st16" d="M996.8,164.2c-1.7,2.6-4.6,0.6-2.9-1.9C995.6,159.6,998.5,161.6,996.8,164.2z"/>
			</g>
			<g>
				<path class="st11" d="M979.7,164.1c-0.8,0.4-2.2-0.2-2.5-1c-0.5-1.1,0.6-1.2,1.4-1.5c1.2-0.3,2.1-0.9,3-1.9
					c0.1-0.2,1.1-1.6,1.4-1.2c0.2,0.3-0.9,1.3-1.1,1.5c-1,1.1-1.9,1.6-3.3,2c-0.9,0.3-1.6,0.8-0.4,1.5
					C978.3,163.6,980.3,163.8,979.7,164.1z"/>
			</g>
			<path class="st12" d="M986.7,160.3c0.5,1.4-1.6,2.2-2.1,0.8C984.1,159.7,986.2,158.9,986.7,160.3z"/>
			<path class="st12" d="M980.7,158.6c0.4,0.9-1.1,1.5-1.5,0.6C978.9,158.2,980.4,157.6,980.7,158.6z"/>
			<path class="st4" d="M977.1,165.5l4.7,1.6C981.9,167.1,975.6,172.1,977.1,165.5z"/>
		</g>
	</g>
	<g>
		<g>
			<path class="st5" d="M1080.4,188c-2.1-1.5-3.8-4.5-4.2-7.8c-0.6-4.7,4.3-8,4.6-8.1c0.1-0.1,0.3-0.1,0.4,0
				c0.3,0.2,6.2,4.2,6.8,8.8c0.4,2.8-0.2,5.4-1.6,6.9c-0.9,0.9-2,1.4-3.2,1.3C1082.2,189,1081.3,188.6,1080.4,188z M1080.9,172.8
				c-0.9,0.6-4.6,3.6-4.1,7.3c0.6,4.4,3.5,8.1,6.4,8.3c1,0.1,1.9-0.3,2.6-1.1c1.2-1.3,1.8-3.7,1.4-6.3
				C1086.7,177.1,1081.9,173.5,1080.9,172.8z"/>
		</g>
		<g>
			<polygon class="st5" points="1083.5,193.9 1081.7,180.6 1082.4,180.5 1084.1,193.8 			"/>
		</g>
	</g>
	<path class="st5" d="M985.5,389.3H860.3c-24.2,0-43-21.6-39.3-45.5c1.3-8.5,5.3-15.3,14-17.2c27.8-6,32.9,19.7,32.9,19.7
		s9.2-8.9,24.1,3.7C906.9,362.6,906.6,322.2,985.5,389.3z"/>
	<path class="st1" d="M860.2,389.3h22.2c3.1-1.4,6.4-3.7,5.5-6.9c-1.5-5.2-7-8.8-11.9-3.3c2.4-4.2,3-11-4.2-10
		c-4.8,0.7-5.6,5.1-5.3,8.9c-1.1-2.7-5.9-5-9.2-3.1C850.4,378.9,854.3,386.7,860.2,389.3z"/>
</g>
<path class="st4" d="M705.6,633.5L998,383.9c0.6-0.5,1.6-0.5,2.1,0.2c0.5,0.6,0.4,1.6-0.2,2.1L707.5,635.8"/>
<path class="st18" d="M534.5,349.3"/>
<path class="st19" d="M726.6,55.9H597.4c-5.1,0-9.2-4.1-9.2-9.2V28.2c0-5.1,4.1-9.2,9.2-9.2c0,0,0,0,0,0h129.2
	c5.1,0,9.2,4.1,9.2,9.2v18.5C735.8,51.8,731.7,55.9,726.6,55.9z M712.8,30.6c-3.8,0-6.9,3.1-6.9,6.9c0,3.8,3.1,6.9,6.9,6.9
	c3.8,0,6.9-3.1,6.9-6.9C719.7,33.7,716.6,30.6,712.8,30.6C712.8,30.6,712.8,30.6,712.8,30.6z M694.3,30.6c-3.8,0-6.9,3.1-6.9,6.9
	c0,3.8,3.1,6.9,6.9,6.9c3.8,0,6.9-3.1,6.9-6.9c0,0,0,0,0,0C701.2,33.7,698.1,30.6,694.3,30.6L694.3,30.6z M726.6,102.1H597.4
	c-5.1,0-9.2-4.1-9.2-9.2V74.4c0-5.1,4.1-9.2,9.2-9.2h129.2c5.1,0,9.2,4.1,9.2,9.2v18.5C735.8,98,731.7,102.1,726.6,102.1z
	 M712.8,76.7c-3.8,0-6.9,3.1-6.9,6.9s3.1,6.9,6.9,6.9s6.9-3.1,6.9-6.9c0,0,0,0,0,0C719.7,79.8,716.6,76.7,712.8,76.7
	C712.8,76.7,712.8,76.7,712.8,76.7z M694.3,76.7c-3.8,0-6.9,3.1-6.9,6.9s3.1,6.9,6.9,6.9s6.9-3.1,6.9-6.9c0,0,0,0,0,0
	C701.2,79.8,698.1,76.7,694.3,76.7L694.3,76.7z M726.6,148.2H597.4c-5.1,0-9.2-4.1-9.2-9.2v-18.5c0-5.1,4.1-9.2,9.2-9.2h129.2
	c5.1,0,9.2,4.1,9.2,9.2V139C735.9,144.1,731.7,148.2,726.6,148.2C726.6,148.2,726.6,148.2,726.6,148.2z M712.8,122.9
	c-3.8,0-6.9,3.1-6.9,6.9s3.1,6.9,6.9,6.9s6.9-3.1,6.9-6.9v0C719.7,126,716.6,122.9,712.8,122.9C712.8,122.9,712.8,122.9,712.8,122.9
	z M694.3,122.9c-3.8,0-6.9,3.1-6.9,6.9c0,3.8,3.1,6.9,6.9,6.9s6.9-3.1,6.9-6.9c0,0,0,0,0,0C701.2,126,698.1,122.9,694.3,122.9
	L694.3,122.9z"/>
<path class="st20" d="M763.1,92.6c8.3-0.9,17.2-0.6,24.3,3.7c7.5,4.6,11.9,13.3,13.3,22s0.4,17.6-0.6,26.4l-5.6,47.4
	c-0.8,6.6-1.5,13.5,0.6,19.9s8.1,11.9,14.8,11.3"/>
<path class="st21" d="M680,203.9l-57.6,21c-0.6,0.2-0.9,0.9-0.7,1.5c0.1,0.2,0.2,0.4,0.4,0.5l8.6,4.8c0.5,0.3,0.8,0.8,1,1.3
	l4.9,15.6c0,0.7,1.2,1,1.3,0.4l0.7-12.2c0.2-0.9,0.7-1.7,1.3-2.3l31.7-23c0.2-0.1,0.4-0.2,0.6-0.1c0.3,0.1,0.5,0.5,0.4,0.8
	c0,0.1-0.1,0.2-0.2,0.2l-28.2,25.7c-0.6,0.6-1.1,1.4-1.3,2.3l-3,10.2c0,0.9,0.6,1.4,1.3,0.6l6-5.3c0.4-0.4,1.1-0.4,1.5,0
	c0,0,0,0,0,0l11.8,11.6c0.4,0.4,1.1,0.4,1.5,0c0.1-0.1,0.2-0.3,0.3-0.4l18.7-51.7c0.2-0.6,0-1.2-0.6-1.4
	C680.4,203.9,680.2,203.9,680,203.9L680,203.9z"/>
<path class="st22" d="M61.8,460.2"/>
<path class="st23" d="M910.9,594.2c-0.1,34.2-6.4,67-17.6,97.4l-52.9-1c-18.4-18.4-25.2-49.2,1.9-66.3c15.5-9.8,37.6,2.5,42.5,17
	c-1-19.9,2.7-43.5,25.3-47C910.3,594.3,910.6,594.3,910.9,594.2z"/>
<g>
	<g>
		<path class="st1" d="M910.9,593.1c0,0.4,0,0.7,0,1.1c-0.1,34.2-6.4,67-17.6,97.4c-40,107.4-143.4,183.8-264.7,183.8
			c-155.9,0-282.3-126.4-282.3-282.3c0-155.9,126.4-282.3,282.3-282.3C784.5,310.8,910.9,437.2,910.9,593.1z"/>
	</g>
	<g>
		<path class="st5" d="M432.2,874.1l80.3-57.8c0.9-9.9-5-33-13.8-41.3c-20.9-19.9-44.3-12.2-40.2,22.9
			c-6.8-23.9-27.1-55.3-44.1-35.7c-11.4,13.1,1,34.5,13.9,50.6c-11.9-9.9-32.7-10.1-35.9,5.2C386.7,844.5,409.8,867.1,432.2,874.1z"
			/>
		<g>
			<defs>
				
					<ellipse id="SVGID_00000098925992514504770620000003053518909245911486_" transform="matrix(0.7071 -0.7071 0.7071 0.7071 -235.0669 618.7019)" cx="629.3" cy="593.1" rx="280.9" ry="280.9"/>
			</defs>
			<clipPath id="SVGID_00000041998380798879518890000002741593189685098687_">
				<use xlink:href="#SVGID_00000098925992514504770620000003053518909245911486_"  style="overflow:visible;"/>
			</clipPath>
			<g style="clip-path:url(#SVGID_00000041998380798879518890000002741593189685098687_);">
				<rect x="307.5" y="689.1" class="st5" width="618" height="212.2"/>
				<path class="st0" d="M925.5,901.3V694.1c-234.1,11.4-446.4,41.6-618,85.2v121.9H925.5z"/>
				<path class="st5" d="M925.5,901.3V698.6c-267.5,25.7-488.8,101.7-603.3,202.6H925.5z"/>
				<path class="st0" d="M925.5,901.3V727.9C795.9,765,691.2,826.2,629.4,901.3H925.5z"/>
				<g>
					<path class="st4" d="M726,901.3c62.3-11.6,129.6-18.8,199.4-21.3v-6.7c-61.8,2.2-121.9,8.1-179.3,17.7
						c-18.4,3.1-36.2,6.5-53.6,10.2H726z"/>
				</g>
			</g>
		</g>
		<path class="st4" d="M961.6,707.2c0-0.1-0.1-0.2-0.1-0.2c0.1-0.1,0.1-0.1,0.1-0.2c0-0.2-0.1-0.4-0.3-0.5L920.1,689
			c-0.1,0-0.1,0-0.2,0l-0.6,0l0.3-3.5c0.1,0,0.1-0.1,0.1-0.1c0-0.1-0.1-0.1-0.1-0.1l0.3-2.9c0.1,0,0.1-0.1,0.1-0.1
			c0-0.1,0-0.1-0.1-0.1l0.3-3c0.1,0,0.1-0.1,0.1-0.1c0-0.1,0-0.1-0.1-0.1l0.3-3c0.1,0,0.1-0.1,0.1-0.1c0-0.1,0-0.1-0.1-0.1l0.3-3
			c0.1,0,0.1-0.1,0.1-0.1c0-0.1,0-0.1-0.1-0.1l0.3-3.1c0.1,0,0.1-0.1,0.1-0.1c0-0.1-0.1-0.1-0.1-0.1l0.3-3.1c0.1,0,0.1-0.1,0.1-0.1
			c0-0.1,0-0.1-0.1-0.1l0.3-3.1c0.1,0,0.1-0.1,0.1-0.1c0-0.1,0-0.1-0.1-0.1l0.3-3.1c0.1,0,0.1-0.1,0.1-0.1c0-0.1,0-0.1-0.1-0.1
			l0.3-3.2c0.1,0,0.1-0.1,0.1-0.1c0-0.1-0.1-0.1-0.1-0.1l0.3-3.2c0.1,0,0.1-0.1,0.1-0.1c0-0.1-0.1-0.1-0.1-0.1l0.3-3.2
			c0.1,0,0.1-0.1,0.1-0.1c0-0.1,0-0.1-0.1-0.1l0.3-3.3c0.1,0,0.1-0.1,0.1-0.1c0-0.1-0.1-0.1-0.1-0.1l0.3-3.3c0.1,0,0.1-0.1,0.1-0.1
			c0-0.1-0.1-0.1-0.1-0.1l0.3-3.3c0.1,0,0.1-0.1,0.1-0.1c0-0.1,0-0.1-0.1-0.1l0.3-3.4c0.1,0,0.1-0.1,0.1-0.1c0-0.1-0.1-0.1-0.1-0.1
			l0.3-3.4c0.1,0,0.1-0.1,0.1-0.1c0-0.1,0-0.1-0.1-0.1l0.3-3.4c0.1,0,0.1-0.1,0.1-0.1c0-0.1,0-0.1-0.1-0.1l0.3-3.5
			c0.1,0,0.1-0.1,0.1-0.1c0-0.1,0-0.1-0.1-0.1l0.3-3.5c0.1,0,0.1-0.1,0.1-0.1c0-0.1,0-0.1-0.1-0.1l0.3-3.6c0.1,0,0.1-0.1,0.1-0.1
			c0-0.1,0-0.1-0.1-0.1l0.4-4.4H787l7,78.7h0.2L739,706.8h-0.9c-0.1,0-0.2,0.1-0.3,0.1c-2.3,2.5-3,4.8-2.1,6.9
			c2.3,5.3,15.1,8.9,38,10.8c14.5,1.2,28.7,1.3,32.6,1.3c0.6,0,1,0,1,0c25.4-0.1,49.3-1.2,71-3.1c17.4-1.5,33.4-3.6,47.7-6.2
			c24.3-4.4,35.2-8.9,35.3-8.9C961.5,707.6,961.6,707.4,961.6,707.2z M918.3,688.9l-14.8,0.1l0.2-3.6h14.9L918.3,688.9z M810,689.1
			l-0.2-3.6h93l-0.2,3.6l-0.6,0H810z M805.6,624.4h101.1l-0.2,2.6H805.8L805.6,624.4z M906.6,627.2l-0.2,3.4H806.1l-0.2-3.4H906.6z
			 M906.3,630.9l-0.2,3.4h-99.8l-0.2-3.4H906.3z M906.1,634.6l-0.2,3.4h-99.3l-0.2-3.4H906.1z M905.9,638.2l-0.2,3.3h-98.8l-0.2-3.3
			H905.9z M905.6,641.8l-0.2,3.3H807l-0.2-3.3H905.6z M905.4,645.3l-0.2,3.3h-97.9l-0.2-3.3H905.4z M905.2,648.8l-0.2,3.2h-97.4
			l-0.2-3.2H905.2z M904.9,652.3l-0.2,3.2h-97l-0.2-3.2H904.9z M904.7,655.8l-0.2,3.2H808l-0.2-3.2H904.7z M904.5,659.2l-0.2,3.1
			h-96.1l-0.2-3.1H904.5z M904.2,662.6l-0.2,3.1h-95.6l-0.2-3.1H904.2z M904,665.9l-0.2,3.1h-95.2l-0.2-3.1H904z M903.8,669.3
			l-0.2,3.1h-94.7l-0.2-3.1H903.8z M903.6,672.6l-0.2,3h-94.3l-0.2-3H903.6z M903.4,675.8l-0.2,3h-93.9l-0.2-3H903.4z M903.2,679.1
			l-0.2,3h-93.5l-0.2-3H903.2z M902.9,682.3l-0.2,2.9h-93l-0.2-2.9H902.9z M918.6,685.2h-14.9l0.2-2.9h14.9L918.6,685.2z M918.9,682
			h-15l0.2-3h15L918.9,682z M919.2,678.8h-15l0.2-3h15.1L919.2,678.8z M919.5,675.6h-15.1l0.2-3h15.2L919.5,675.6z M919.8,672.3
			h-15.2l0.2-3.1H920L919.8,672.3z M920.1,669h-15.2l0.2-3.1h15.3L920.1,669z M920.3,665.7H905l0.2-3.1h15.4L920.3,665.7z
			 M920.6,662.3h-15.4l0.2-3.1h15.5L920.6,662.3z M920.9,658.9h-15.5l0.2-3.2h15.5L920.9,658.9z M921.2,655.5h-15.5l0.2-3.2h15.6
			L921.2,655.5z M921.5,652.1h-15.6l0.2-3.2h15.7L921.5,652.1z M921.9,648.6h-15.7l0.2-3.3h15.8L921.9,648.6z M922.2,645.1h-15.8
			l0.2-3.3h15.8L922.2,645.1z M922.5,641.5h-15.9l0.2-3.3h15.9L922.5,641.5z M922.8,637.9h-15.9l0.2-3.4h16L922.8,637.9z
			 M923.1,634.3h-16l0.2-3.4h16.1L923.1,634.3z M923.4,630.7h-16.1l0.2-3.4h16.2L923.4,630.7z M923.8,627h-16.2l0.2-3.5h16.3
			L923.8,627z M788.1,612.3h137l-0.3,3.4H788.9c-0.1,0-0.1,0.1-0.1,0.1c0,0.1,0.1,0.1,0.1,0.1h135.8l-0.3,3.6H789.2
			c-0.1,0-0.1,0.1-0.1,0.1s0.1,0.1,0.1,0.1h135.2l-0.3,3.5H789.6c-0.1,0-0.1,0.1-0.1,0.1c0,0.1,0.1,0.1,0.1,0.1h15l0.2,3.5h-14.9
			c-0.1,0-0.1,0.1-0.1,0.1c0,0.1,0.1,0.1,0.1,0.1h14.9l0.2,3.4h-14.9c-0.1,0-0.1,0.1-0.1,0.1c0,0.1,0.1,0.1,0.1,0.1h14.9l0.2,3.4
			h-14.8c-0.1,0-0.1,0.1-0.1,0.1c0,0.1,0.1,0.1,0.1,0.1h14.8l0.2,3.4h-14.7c-0.1,0-0.1,0.1-0.1,0.1s0.1,0.1,0.1,0.1h14.7l0.2,3.3
			h-14.6c-0.1,0-0.1,0.1-0.1,0.1c0,0.1,0.1,0.1,0.1,0.1h14.7l0.2,3.3h-14.6c-0.1,0-0.1,0.1-0.1,0.1c0,0.1,0.1,0.1,0.1,0.1h14.6
			l0.2,3.3h-14.5c-0.1,0-0.1,0.1-0.1,0.1c0,0.1,0.1,0.1,0.1,0.1h14.5l0.2,3.2h-14.4c-0.1,0-0.1,0.1-0.1,0.1s0.1,0.1,0.1,0.1h14.5
			l0.2,3.2h-14.4c-0.1,0-0.1,0.1-0.1,0.1c0,0.1,0.1,0.1,0.1,0.1h14.4l0.2,3.2h-14.3c-0.1,0-0.1,0.1-0.1,0.1c0,0.1,0.1,0.1,0.1,0.1
			H807l0.2,3.1H793c-0.1,0-0.1,0.1-0.1,0.1c0,0.1,0.1,0.1,0.1,0.1h14.3l0.2,3.1h-14.2c-0.1,0-0.1,0.1-0.1,0.1c0,0.1,0.1,0.1,0.1,0.1
			h14.2l0.2,3.1h-14.1c-0.1,0-0.1,0.1-0.1,0.1c0,0.1,0.1,0.1,0.1,0.1h14.1l0.2,3.1h-14.1c-0.1,0-0.1,0.1-0.1,0.1
			c0,0.1,0.1,0.1,0.1,0.1h14.1l0.2,3h-14c-0.1,0-0.1,0.1-0.1,0.1c0,0.1,0.1,0.1,0.1,0.1h14l0.2,3h-13.9c-0.1,0-0.1,0.1-0.1,0.1
			s0.1,0.1,0.1,0.1h13.9l0.2,3h-13.9c-0.1,0-0.1,0.1-0.1,0.1c0,0.1,0.1,0.1,0.1,0.1h13.9l0.2,2.9h-13.8c-0.1,0-0.1,0.1-0.1,0.1
			c0,0.1,0.1,0.1,0.1,0.1h13.8l0.2,3.6h-14.1L788.1,612.3z M794.5,690.9l97.4-0.8h11.5h15.8l0-0.2l0.6,0l39.1,16.4l-151.2,0.6h-65.7
			L794.5,690.9z M925.8,715.7c-22.4,4.1-61.1,9-118.5,9.4c-0.2,0-16.6,0.1-33.5-1.3c-22.2-1.8-35.1-5.4-37.3-10.3
			c-0.7-1.6-0.2-3.5,1.5-5.5c0,0,69.7-0.3,69.7-0.3h150.8C954.2,709.2,943.6,712.5,925.8,715.7z"/>
	</g>
</g>
<g>
	<g>
		<g>
			<g>
				<g>
					<g>
						<g>
							<path class="st25" d="M572.4,454v54.6c-4.8-1.9-10-4.3-15.3-7.1c-35.8-18.9-79.9-55.1-79.9-55.1l4.9-21.6
								c0,0,27,14.5,79.2,24.6c2.6,0.5,5,1,7.3,1.5c1.1,0.2,2.2,0.5,3.3,0.7L572.4,454z"/>
						</g>
					</g>
					<g>
						<g>
							<g>
								<path class="st25" d="M480.8,447.4c0,0-13.3-4.7-18.7-14.6c-2.6-4.7-6.6-12.1-6.3-13.9c0.2-1,2.8,1.6,3.3,2.3l5.1,5.1
									c0,0-3.2-5.2-11.2-12.2c-0.7-0.6-0.3-1.8,0.6-1.6c8.1,1.8,11.9,9.3,11.9,9.3s-2.6-7.5-11.6-11.3c-2.1-0.9-0.3-1.9,0.3-2
									c9.5-1.2,14.8,9.1,14.8,9.1s-4-5.3-11.7-11.1c-0.5-0.4-0.3-1.2,0.4-1.2c4.4-0.1,14.1,2.1,29.5,27.5
									C482.3,447.3,480.8,447.4,480.8,447.4z"/>
							</g>
						</g>
						<g>
							<path class="st25" d="M486.4,427.9c0,0-6.5-13.9-11.3-15.5c-4.8-1.6-4.1,0.3-2.5,2.7c1.6,2.3,3.8,13.9,3.8,13.9L486.4,427.9z
								"/>
						</g>
					</g>
				</g>
				<path class="st16" d="M572.4,454v54.6c-4.8-1.9-10-4.3-15.3-7.1l11.5-50.5c1.1,0.2,2.2,0.5,3.3,0.7L572.4,454z"/>
				<g>
					<g>
						<path class="st4" d="M569.2,513.5c33.8-11.3,94.7-64.7,82-88.9c-18.5-35.2-60.8,2.6-82.3,24.9L569.2,513.5z"/>
					</g>
				</g>
			</g>
			<g>
				<g>
					<g>
						<g>
							<path class="st26" d="M789.3,806.8c-1,0.9-2.5,0.8-3.3-0.2l-2.6-2.9c-0.9-1-0.8-2.5,0.2-3.3c1-0.9,2.5-0.8,3.3,0.2l2.6,2.9
								C790.3,804.4,790.2,805.9,789.3,806.8z"/>
						</g>
						<g>
							<path class="st26" d="M797.8,799.2c-1,0.9-2.5,0.8-3.3-0.2l-2.6-2.9c-0.9-1-0.8-2.5,0.2-3.3c1-0.9,2.5-0.8,3.3,0.2l2.6,2.9
								C798.9,796.9,798.8,798.3,797.8,799.2z"/>
						</g>
					</g>
					<g>
						<g>
							<path class="st26" d="M743.4,847.2c-1,0.9-2.5,0.8-3.3-0.2l-2.6-2.9c-0.9-1-0.8-2.5,0.2-3.3c1-0.9,2.5-0.8,3.3,0.2l2.6,2.9
								C744.5,844.9,744.4,846.4,743.4,847.2z"/>
						</g>
						<g>
							<path class="st26" d="M752,839.7c-1,0.9-2.5,0.8-3.3-0.2l-2.6-2.9c-0.9-1-0.8-2.5,0.2-3.3c1-0.9,2.5-0.8,3.3,0.2l2.6,2.9
								C753.1,837.3,753,838.8,752,839.7z"/>
						</g>
						<g>
							<path class="st26" d="M760.6,832.1c-1,0.9-2.5,0.8-3.3-0.2l-2.6-2.9c-0.9-1-0.8-2.5,0.2-3.3c1-0.9,2.5-0.8,3.3,0.2l2.6,2.9
								C761.6,829.8,761.5,831.2,760.6,832.1z"/>
						</g>
					</g>
				</g>
				<g>
					<path class="st25" d="M667.7,694.2l92.5,107.2l22.4-27.5l-78.4-115.4c-8.5-12.5-26.3-14.1-36.9-3.4l-1.1,1.1
						c-9.6,9.8-9.9,25.4-0.6,35.5L667.7,694.2z"/>
				</g>
				<g>
					<polygon class="st14" points="694.4,725 760.2,801.4 782.5,773.9 731.1,698.3 					"/>
				</g>
				<g>
					<g>
						<path class="st4" d="M798.9,786.2c0.4,0.5,0.8,1,1,1.5c0.9,2,0.4,4.4-1.4,6l-61,53.8c-0.7,0.7-1.7,1-2.6,0.9
							c-1-0.1-2-0.6-2.7-1.5c-1.9-2.6-4.3-6.5-5-10.6c-1.1-6.3,12.8-26.7,16.4-32c0.6-0.8,0.9-1.8,1-2.7l-1.1-18.8l25,1.8
							c4.3,0.4,8.2-2.3,9.4-6.4l2.5-8.5L798.9,786.2z"/>
					</g>
					<g>
						<path class="st26" d="M799.9,787.7c0.9,2,0.4,4.4-1.4,6l-61,53.8c-0.7,0.7-1.7,1-2.6,0.9c4.6-6,32-41,38.6-41.8
							C779.9,805.8,794.1,789.5,799.9,787.7z"/>
					</g>
				</g>
			</g>
			<g>
				<path class="st27" d="M601.2,547.3c0,0,100.3,39.4,141.5,4c-35.4-63.2-35.4-63.2-35.4-63.2S608.8,513.8,601.2,547.3z"/>
			</g>
			<g>
				<g>
					<path class="st27" d="M737.8,641.2l-3.3,2c0,0-77,45-80.7,44.6c-0.1,0-0.1,0-0.1-0.1c0,0,0,0,0-0.1c0.4-1.2,4.6-13,15.9-22
						c9.6-7.7,17-1.7,31.3-19.3C715.1,628.9,737.3,640.8,737.8,641.2z"/>
				</g>
				<g>
					<path class="st25" d="M685.6,591.9h-60.9l32.6,87.6c5.5,14.7,22,22.3,36.7,16.8c14.7-5.5,22.3-22,16.8-36.7L685.6,591.9z"/>
				</g>
				<g>
					<g>
						<path class="st28" d="M737.8,641.2c-0.5-0.4-22.7-12.2-36.8,5.1c-14.3,17.6-21.7,11.6-31.3,19.3c-11.4,9-15.5,20.8-15.9,22
							c-48.2-92.8-56.7-165.5-25.3-174.2C659.8,504.7,725,546.4,737.8,641.2z"/>
					</g>
				</g>
			</g>
			<g>
				<path class="st28" d="M635.2,672.6l-2.6-2.8c0,0-59.7-66.2-60.1-69.9c0-0.1,0-0.1,0-0.1c0,0,0,0,0.1,0
					c1.3,0.2,13.6,1.8,24.8,11.1c9.5,7.9,5.1,16.3,25.3,26.7C642.5,647.8,635.4,672,635.2,672.6z"/>
			</g>
			<g>
				<path class="st25" d="M719.9,561.8c0,9.5-4.7,18.8-13.3,24.2l-71.3,44.8l-39.2,24.6l-10.5,6.6c-1.8,1.1-3.7,2.1-5.7,2.7
					c-12.3,4.3-26.5-0.2-33.7-11.7c-2.9-4.7-4.4-9.9-4.4-15.1c0-6.4,2.2-12.8,6.2-17.9c1.9-2.4,4.3-4.6,7.1-6.3l121-76
					c13.3-8.4,31-4.3,39.4,9C718.5,551.3,719.9,556.6,719.9,561.8z"/>
			</g>
			<g>
				<path class="st29" d="M728.1,422.8c0,11.7-25.8,21.2-57.7,21.2c-31.9,0-57.7-9.5-57.7-21.2s25.8-21.2,57.7-21.2
					C702.3,401.6,728.1,411.1,728.1,422.8z"/>
			</g>
			<path class="st30" d="M693.4,344.4c-1.1-4.8-5.7-4.3-6.5-7.8c-0.7-2.8-4.6-4.2-7.5-8.4c-6.6-9.7-20.7-2.8-22.9-1.7l-3.6,28.6
				c6.6,0.6,11.5,10.1,11.5,10.1c8.3,23.3,19.4,9.9,23-0.2C690.3,356.8,695.5,353.8,693.4,344.4z"/>
			<g>
				<g>
					<path class="st29" d="M658.6,364c0,0-0.1,0.3-0.4,1.8c-0.4,1.9-1.1,5.7-2.6,13.4c-0.8,4.5-1.9,10.2-3.2,17.6
						c-0.5,3-1.1,6.2-1.7,9.7c-0.8,4.5-1.7,9.6-2.7,15.1c-0.8,4.5,1.6,9.1,5.9,10.8c8.8,3.7,17.4,0.9,22.7-1.8
						c3.5-1.8,5.6-5.4,5.3-9.3l-2.7-64.1l-18,5.7L658.6,364z"/>
				</g>
				<g>
					<path class="st31" d="M658.2,365.8c-0.4,1.9-6,32.7-6,32.7c4.5,2.3,10.7,0.4,17.7-7.6c5-5.7,7.8-11.7,9-17.1
						c0.2-0.9,0.4-1.8,0.5-2.6c0.7-4.6,0.3-8.6-0.6-11.5c-0.2-0.7-0.5-1.3-0.7-1.9c-0.2-0.5-0.5-1-0.8-1.4c-0.5-0.8-1.1-1.2-1.7-1.4
						c-2-0.6-8,2.5-14.3,7.9C660.2,363.9,659.2,364.8,658.2,365.8z"/>
				</g>
			</g>
			<g>
				<path class="st29" d="M652.7,341.2c0,0-23.7,36.4-12.8,40.7c15,6,22.7,7.1,32.8-3.4c3.5-3.7,6.2-11.3,7.9-18.2
					c2.8-10.9-4.4-22.1-15.6-23.5C660.7,336.2,656.3,337.2,652.7,341.2z"/>
			</g>
			<g>
				<path class="st30" d="M666.7,346.5c0,0,0.2-4.9-10.4-2.5c8-10.9,32.5-7,24.3,16.2C676,350.9,666.7,346.5,666.7,346.5z"/>
			</g>
			<g>
				<path class="st29" d="M683.6,364c-1.4,2.6-4.1,3.9-5.9,2.9c-1.8-1-2.1-3.9-0.7-6.5c1.4-2.6,4.1-3.9,5.9-2.9
					C684.7,358.5,685,361.4,683.6,364z"/>
			</g>
			<g>
				<path class="st26" d="M684.2,333.1c-0.1,0,1.6-2.5-8.1-9.3c-9.7-6.7-22.2-3.3-22.2-3.3s-11.2-5.5-16.5,7.5
					c-5.4,13,13.5,22.3,19.9,18.1c3-1.9,6.5-1,9.5,0.6c1-3,2.7-5.8,4.8-7.9c3.3-3.3,8-5.3,12.6-5.6
					C684.2,333.1,684.2,333.1,684.2,333.1z"/>
			</g>
			<g>
				<g>
					<g>
						<path class="st32" d="M743,551.6l-22.4-12.1c-30.9-11-88.5-3.8-119.1,8.1c0,0-13-93.6,10.7-130.3c2.6-4,8.9-7.4,17.3-10
							c2.3-0.7,4.8-1.4,7.4-2c0.7-0.2,1.4-0.3,2.1-0.4c6.3,12.2,22.8,21,22.8,21s18.7-10,23.9-23.4c0.9,0.1,1.8,0.2,2.7,0.3
							c2.4,0.3,4.8,0.6,7.1,1c15.6,2.7,28.4,8.4,33.1,18C743,450.8,743,551.6,743,551.6z"/>
					</g>
				</g>
				<g>
					<path class="st4" d="M695.5,403.7c-0.2,0.3-0.4,0.6-0.6,0.9l-0.8,1.1c-0.6,0.7-1.1,1.5-1.7,2.2c-1.2,1.4-2.3,2.8-3.6,4.2
						c-2.4,2.8-5,5.4-7.7,7.9c-2.7,2.5-5.6,4.8-8.6,7c-1.5,1.1-3.1,2-4.7,3c-1.6,0.9-3.3,1.8-5,2.5c-0.6,0.2-1.2,0.2-1.7,0
						c-3.2-1.4-6.3-3-9.3-4.9c-3-1.8-5.8-3.9-8.5-6.1c-2.7-2.2-5.3-4.6-7.7-7.1c-1.2-1.3-2.4-2.6-3.5-3.9c-0.6-0.7-1.1-1.4-1.7-2.1
						c-0.3-0.4-0.5-0.7-0.8-1.1c2.3-0.8,4.8-1.4,7.4-2c0.2,0.3,0.4,0.6,0.6,0.9c0.9,1.3,1.9,2.6,2.9,3.8c2,2.5,4.2,4.9,6.6,7.1
						c2.3,2.3,4.8,4.3,7.4,6.3c2.4,1.7,4.8,3.3,7.4,4.8c1.2-0.6,2.4-1.3,3.6-2.1c1.4-0.9,2.9-1.9,4.2-3c2.7-2.1,5.3-4.5,7.7-7
						c2.4-2.5,4.7-5.1,6.9-7.9c1.1-1.4,2.1-2.8,3.1-4.2c0.3-0.5,0.7-1,1-1.4C690.9,403,693.2,403.3,695.5,403.7z"/>
				</g>
			</g>
			<g>
				<g>
					<path class="st28" d="M750.1,524.9c7.4-34.9-7.9-114.4-35.2-115.7c-20.2-0.9-27.2,13-28.1,30.9c-1.5,28.8,13.5,56,38.5,70.4
						L750.1,524.9z"/>
				</g>
			</g>
			<g>
				<path class="st31" d="M648,369.1c0,0-0.1,0-0.1,0c0,0-4.7-1.5-4.9-6.5c0-0.2,0.1-0.4,0.3-0.4l7.2-1.6l4.9-5.9
					c0.1-0.2,0.4-0.2,0.6-0.1s0.2,0.4,0.1,0.6l-5,6c-0.1,0.1-0.1,0.1-0.2,0.1l-7,1.5c0.3,4.1,4.1,5.3,4.3,5.4
					c0.2,0.1,0.3,0.3,0.3,0.5C648.3,369,648.1,369.1,648,369.1z"/>
			</g>
			<g>
				<path class="st4" d="M660.3,371c-4.5,6.5-11.6,3.1-11.6,3.1s2.5,6.9,6.9,5.7C659.9,378.8,660.3,371,660.3,371z"/>
			</g>
			<g>
				<path class="st26" d="M666.7,357.2c0,0.9-0.7,1.7-1.7,1.7c-0.9,0-1.7-0.7-1.7-1.7c0-0.9,0.7-1.7,1.7-1.7
					C665.9,355.5,666.7,356.3,666.7,357.2z"/>
			</g>
			<g>
				<path class="st26" d="M651.5,354.3c0,0.9-0.7,1.7-1.7,1.7s-1.7-0.7-1.7-1.7c0-0.9,0.7-1.7,1.7-1.7S651.5,353.4,651.5,354.3z"/>
			</g>
			<g>
				<path class="st30" d="M673.9,351.5c0,0,3.9,5.2,1.4,10.7c2,0.1,2,0.1,2,0.1s1.6-7.1,6.7-6.2
					C689.2,356.9,679.9,344.6,673.9,351.5z"/>
			</g>
			<g>
				<path class="st31" d="M663.3,373.1c0,0-0.1,0-0.1,0c-0.2-0.1-0.3-0.3-0.2-0.5c0.4-1.2,0.4-2,0-2.6c-0.7-1-2.6-0.8-2.6-0.8
					c-0.2,0-0.4-0.1-0.4-0.4c0-0.2,0.1-0.4,0.4-0.4c0.1,0,2.3-0.2,3.3,1.1c0.6,0.8,0.7,1.9,0.1,3.4
					C663.7,373,663.5,373.1,663.3,373.1z"/>
			</g>
			<g>
				<g>
					<g>
						<g>
							<path class="st26" d="M611.6,800.6c-1.2,0.4-2.6-0.3-3-1.5l-1.2-3.7c-0.4-1.2,0.3-2.6,1.5-3c1.2-0.4,2.6,0.3,3,1.5l1.2,3.7
								C613.5,798.8,612.9,800.2,611.6,800.6z"/>
						</g>
						<g>
							<path class="st26" d="M622.5,796.9c-1.2,0.4-2.6-0.3-3-1.5l-1.2-3.7c-0.4-1.2,0.3-2.6,1.5-3c1.2-0.4,2.6,0.3,3,1.5l1.2,3.7
								C624.4,795.2,623.7,796.5,622.5,796.9z"/>
						</g>
					</g>
					<g>
						<g>
							<path class="st26" d="M553.6,819.9c-1.2,0.4-2.6-0.3-3-1.5l-1.2-3.7c-0.4-1.2,0.3-2.6,1.5-3c1.2-0.4,2.6,0.3,3,1.5l1.2,3.7
								C555.5,818.2,554.8,819.5,553.6,819.9z"/>
						</g>
						<g>
							<path class="st26" d="M564.5,816.3c-1.2,0.4-2.6-0.3-3-1.5l-1.2-3.7c-0.4-1.2,0.3-2.6,1.5-3c1.2-0.4,2.6,0.3,3,1.5l1.2,3.7
								C566.4,814.5,565.7,815.9,564.5,816.3z"/>
						</g>
						<g>
							<path class="st26" d="M575.3,812.7c-1.2,0.4-2.6-0.3-3-1.5l-1.2-3.7c-0.4-1.2,0.3-2.6,1.5-3c1.2-0.4,2.6,0.3,3,1.5l1.2,3.7
								C577.2,810.9,576.6,812.3,575.3,812.7z"/>
						</g>
					</g>
				</g>
				<g>
					<path class="st25" d="M618.3,767.7l-2,1.1L587,784.2l-7.5-23.3l-23.3-72.7l-12.4-38.8l-1.1-3.1c-3.3-9.3-0.9-19.4,5.5-26.2
						c2.4-2.6,5.5-4.7,9-6.2l1.4-0.6c13.2-5.4,27.9,1.8,32.1,15.1c0.3,0.8,0.5,1.6,0.6,2.5l4.9,24.6l4.5,22.5l17,85.7L618.3,767.7z"
						/>
				</g>
				<g>
					<polygon class="st14" points="618.3,767.7 616.3,768.8 587,784.2 579.5,760.9 556.2,688.2 583.3,682 600.5,678 617.5,763.7 
											"/>
				</g>
				<g>
					<g>
						<path class="st4" d="M628.9,787.2c0,1.6-0.8,3.2-2,4.1c-0.4,0.3-1,0.6-1.5,0.8l-77.2,25.7c-0.9,0.3-1.9,0.2-2.7-0.2
							c-0.9-0.5-1.7-1.3-1.9-2.4c-0.7-3.1-1.4-7.6-0.5-11.7c1.4-6.2,22.2-19.6,27.6-23c0.8-0.5,1.5-1.3,2-2.1l6.3-17.8l0.6,0.3
							l21.7,11.1c3.8,2,8.4,1.1,11.2-2.2l2.9-3.5l2.3-2.7l0.5-0.6l10.6,22.3C628.8,786,628.9,786.6,628.9,787.2z"/>
					</g>
					<g>
						<path class="st26" d="M628.9,787.2c0,2.2-1.4,4.2-3.6,5l-77.2,25.7c-0.9,0.3-1.9,0.2-2.7-0.2c6.6-3.7,45.5-25.3,51.9-23.4
							C603.4,796,622.9,786.6,628.9,787.2z"/>
					</g>
				</g>
			</g>
			<g>
				<g>
					<path class="st32" d="M635.2,672.6c0.3-0.6,7.4-24.7-12.5-35c-20.2-10.4-15.8-18.9-25.3-26.7c-11.2-9.3-23.5-11-24.8-11.1
						c81-66.1,150.5-89.2,165.3-60.3C752.9,568.4,725.4,640.7,635.2,672.6z"/>
				</g>
			</g>
			<g>
				<g>
					<g>
						<g>
							<path class="st25" d="M640.3,554.1l14.4,16.8c0,0,73.2-24.8,104.9-46.5c14.5-9.9,20.3-19.2,6.6-25.1c-5.5-2.4-9.5-5-12.8-7.4
								c-12.7-9.2-14.7-14.8-45.9,13.5C668.1,541.1,640.3,554.1,640.3,554.1z"/>
						</g>
						<g>
							<path class="st16" d="M718,496.5l51.5,20c9.2-8.6,12.2-21.4-3.9-23.2c-6.4-0.7-22.7-10.7-26.9-12L718,496.5z"/>
						</g>
					</g>
					<g>
						<g>
							<g>
								<path class="st25" d="M657.7,568.6c0,0-11.7,7.8-22.9,6.2c-5.3-0.8-13.6-1.9-14.9-3.3c-0.7-0.7,3-1.2,3.8-1.3l7.1-1
									c0,0-6.1-0.5-16.5,1.7c-0.9,0.2-1.6-0.8-0.9-1.4c6.3-5.4,14.6-4,14.6-4s-7.5-2.4-16,2.5c-1.9,1.1-1.7-0.9-1.4-1.4
									c4.7-8.4,16.2-6.4,16.2-6.4s-6.6,0-15.9,2.7c-0.6,0.2-1.1-0.5-0.7-1c2.6-3.6,10.2-10,39.7-7.1
									C658.4,567.3,657.7,568.6,657.7,568.6z"/>
							</g>
						</g>
						<g>
							<path class="st25" d="M645.4,552.4c0,0-15-3.1-19.2-0.2c-4.1,2.9-2.2,3.4,0.6,3.6c2.8,0.2,13.4,5.3,13.4,5.3L645.4,552.4z"/>
						</g>
					</g>
				</g>
				<g>
					<g>
						<path class="st4" d="M778.7,505c-5.6-31.5-39.1-90.9-64.5-96.3c-4.6-1-9.3,1.1-11.7,5.2c-13.9,23.7-4.9,59.2,12.8,82.2
							L778.7,505z"/>
					</g>
				</g>
			</g>
		</g>
		<path class="st33" d="M617.5,792.2c0.2,0.6,0.3,1.1,0.3,1.7c0,1.5-0.7,3-1.9,3.9c-2-3.9-5.4-11-9.9-21.1c-0.3-0.7-0.6-1.4-1-2.2
			c-7.3-16.5-17-40.5-27.5-71.3c-0.9-2.6-1.6-5.1-2.3-7.5c-1.6-5.9-2.6-11.2-3.1-16c-1.7-17.3,3.4-27.7,9.9-34
			c9-8.6,20.7-9.4,20.7-9.4l21,11.7l-36.5,23l4.2,21l15.8,79.9l0.5-0.6L617.5,792.2z"/>
	</g>
	<path class="st1" d="M662.1,874H429.9c0,0-30.4-58.4,10.5-64.6c40.9-6.2,48.5,20.3,48.5,20.3s13.5-9.1,35.5,3.8
		C546.4,846.5,545.9,804.9,662.1,874z"/>
	<g>
		<g>
			<path class="st5" d="M438.2,859.6c-3-5.7-3.5-14.2-0.9-22.1c3.7-11.2,18.5-13.1,19.1-13.2c0.3,0,0.7,0.1,0.8,0.4
				c0.4,0.7,9.2,16.2,5.5,27.2c-2.2,6.7-6.4,11.9-11.1,13.7c-3,1.1-5.9,0.9-8.5-0.6C441.1,863.8,439.5,861.9,438.2,859.6z M456,826
				c-2.7,0.5-14.1,2.9-17.1,11.9c-3.5,10.4-1.2,21.9,5.1,25.6c2.2,1.3,4.6,1.4,7,0.5c4.3-1.6,8-6.3,10.1-12.6
				C464.3,842.1,457.5,828.7,456,826z"/>
		</g>
		<g>
			<polygon class="st5" points="441.1,874 450.8,844.9 449.2,844.4 439.3,874 			"/>
		</g>
	</g>
	<g>
		<g>
			<path class="st5" d="M807.7,363.5c-5.7-1.3-12-6.2-16.2-13.1c-6-9.9,0.6-22.6,0.9-23.1c0.2-0.3,0.4-0.4,0.7-0.4
				c0.7,0.1,16.4,3,22.3,12.8c3.6,6,5,12.4,3.8,17.2c-0.8,3-2.5,5.2-5,6.2C812.3,363.9,810,364,807.7,363.5z M793.4,328.6
				c-1.1,2.4-5.5,12.8-0.7,20.8c5.6,9.2,15,14.6,20.9,12.1c2.1-0.9,3.5-2.7,4.1-5.2c1.1-4.3-0.2-10.2-3.6-15.7
				C809.2,332.3,796.1,329.2,793.4,328.6z"/>
		</g>
		<g>
			<polygon class="st5" points="819.5,370.3 804,344.5 802.8,345.5 818.5,371.7 			"/>
		</g>
	</g>
	
		<ellipse transform="matrix(0.9239 -0.3827 0.3827 0.9239 -221.7894 230.6675)" class="st34" cx="468.9" cy="672.8" rx="53.9" ry="53.9"/>
	
		<ellipse transform="matrix(0.7071 -0.7071 0.7071 0.7071 -335.1601 522.5555)" class="st4" cx="463.2" cy="665.9" rx="40.7" ry="40.7"/>
</g>
<g>
	<path class="st5" d="M139.2,451.3h86c14.5,0,28-7.6,35.2-20.2c3.4-6,5-12.4,3.3-18.2c-6.6-23-31.7-31.8-53.8-7
		c10.9-18.9,9.1-44.8-18.6-44.4c-21.7,0.3-24.8,22.9-23.6,39.6c-4.8-12.2-26.1-22.3-40.8-13.9C95.6,404.9,112.7,439.6,139.2,451.3z"
		/>
	<g>
		
			<ellipse transform="matrix(0.7071 -0.7071 0.7071 0.7071 -103.3431 237.6188)" class="st1" cx="235.2" cy="243.6" rx="207.5" ry="207.5"/>
	</g>
	<g>
		<defs>
			
				<ellipse id="SVGID_00000068643832290314129770000010648951472494158014_" transform="matrix(0.7071 -0.7071 0.7071 0.7071 -103.3431 237.6188)" cx="235.2" cy="243.6" rx="207.5" ry="207.5"/>
		</defs>
		<clipPath id="SVGID_00000078766252389081043720000002196473330410124199_">
			<use xlink:href="#SVGID_00000068643832290314129770000010648951472494158014_"  style="overflow:visible;"/>
		</clipPath>
		
			<rect x="-67.5" y="315.4" style="clip-path:url(#SVGID_00000078766252389081043720000002196473330410124199_);fill:#E8CAAD;" width="584.9" height="154.9"/>
		<g style="clip-path:url(#SVGID_00000078766252389081043720000002196473330410124199_);">
			<g>
				<rect x="-67.5" y="333.4" class="st4" width="584.9" height="3"/>
			</g>
			<g>
				<rect x="-67.5" y="373.9" class="st4" width="584.9" height="3"/>
			</g>
		</g>
	</g>
	<path class="st5" d="M356.7,315h72.7c4.8-3.8,11.2-15.1,9.5-21.2c-3.9-14.5-21.2-18.2-33.8-2.5c6.2-11.9,7.6-30.9-11-27.9
		c-12.4,2-14.2,14.6-13.5,25.1c-2.9-7.6-15.2-13.9-23.6-8.6C342.3,289.2,346.3,305.4,356.7,315z"/>
	<path class="st5" d="M128,451.3c11.6-34.9-60.8-133.6-85.8-117.8c-25,15.8,11.4,65.2,41.9,99.8c10.1,11.4,24.6,18,39.8,18H128z"/>
	<path class="st5" d="M141.5,450.2c12.7-40.4-8.7-133.2-34.6-130c-29.3,3.6-17.5,63.8-4.6,108.2c2.4,8.3,6.8,15.8,12.6,21.9H141.5z"
		/>
</g>
<g>
	<g>
		<g>
			<g>
				<g>
					<g>
						<path class="st11" d="M124.2,122.1c-15.6,0-30.4-0.9-41.5-2.7c-16.5-2.6-18.4-5.8-18.4-8c0-2.2,1.9-5.4,18.4-8
							c11.1-1.7,25.8-2.7,41.5-2.7c15.6,0,30.4,0.9,41.5,2.7c16.5,2.6,18.4,5.8,18.4,8c0,2.2-1.9,5.4-18.4,8
							C154.6,121.2,139.9,122.1,124.2,122.1z M67.6,111.5c0.1,0.2,0.8,1.1,4.3,2.3c3,1,7.1,1.9,12.3,2.7c10.8,1.6,25,2.5,40,2.5
							c15,0,29.2-0.9,40-2.5c5.2-0.8,9.4-1.7,12.3-2.7c3.5-1.2,4.2-2.1,4.3-2.3c-0.1-0.2-0.8-1.1-4.3-2.3c-3-1-7.1-1.9-12.3-2.7
							c-10.8-1.6-25-2.5-40-2.5c-15,0-29.2,0.9-40,2.5c-5.2,0.8-9.4,1.7-12.3,2.7C68.4,110.4,67.7,111.3,67.6,111.5z"/>
					</g>
				</g>
				<g>
					<g>
						<path class="st11" d="M80.8,114.9c-3.1,0-5.5-2.5-5.5-5.5V105h1.6v4.3c0,2.2,1.8,3.9,3.9,3.9c2.2,0,3.9-1.8,3.9-3.9V105h1.6
							v4.3C86.3,112.4,83.8,114.9,80.8,114.9z"/>
					</g>
				</g>
				<g>
					<g>
						<path class="st11" d="M171.3,114.9c-3.1,0-5.5-2.5-5.5-5.5V105h1.6v4.3c0,2.2,1.8,3.9,3.9,3.9c2.2,0,3.9-1.8,3.9-3.9V105h1.6
							v4.3C176.9,112.4,174.4,114.9,171.3,114.9z"/>
					</g>
				</g>
				<g>
					<g>
						<path class="st11" d="M155.6,128.3c-3.1,0-5.5-2.5-5.5-5.5v-4.3h1.6v4.3c0,2.2,1.8,3.9,3.9,3.9c2.2,0,3.9-1.8,3.9-3.9v-4.3
							h1.6v4.3C161.1,125.8,158.6,128.3,155.6,128.3z"/>
					</g>
				</g>
				<g>
					<g>
						<path class="st11" d="M105.8,112.4c-3.1,0-5.5-2.5-5.5-5.5v-4.3h1.6v4.3c0,2.2,1.8,3.9,3.9,3.9c2.2,0,3.9-1.8,3.9-3.9v-4.3
							h1.6v4.3C111.4,109.9,108.9,112.4,105.8,112.4z"/>
					</g>
				</g>
				<g>
					<g>
						<path class="st11" d="M124.6,130.4c-3.1,0-5.5-2.5-5.5-5.5v-4.3h1.6v4.3c0,2.2,1.8,3.9,3.9,3.9c2.2,0,3.9-1.8,3.9-3.9v-4.3
							h1.6v4.3C130.2,127.9,127.7,130.4,124.6,130.4z"/>
					</g>
				</g>
				<g>
					<g>
						<path class="st11" d="M90.3,128.3c-3.1,0-5.5-2.5-5.5-5.5v-4.3h1.6v4.3c0,2.2,1.8,3.9,3.9,3.9c2.2,0,3.9-1.8,3.9-3.9v-4.3h1.6
							v4.3C95.8,125.8,93.3,128.3,90.3,128.3z"/>
					</g>
				</g>
				<g>
					<g>
						<path class="st11" d="M143.2,112.4c-3.1,0-5.5-2.5-5.5-5.5v-4.3h1.6v4.3c0,2.2,1.8,3.9,3.9,3.9c2.2,0,3.9-1.8,3.9-3.9v-4.3
							h1.6v4.3C148.8,109.9,146.3,112.4,143.2,112.4z"/>
					</g>
				</g>
			</g>
			<g>
				<path class="st4" d="M149.3,173.4c-0.2,0-0.3-0.1-0.5-0.2l-11.2-9.8l-13.3,9.9c-0.3,0.2-0.6,0.2-0.9,0c-5.5-4.6-11.7-9.5-13-10
					c-1.1,0.7-6.7,5.6-11.6,10c-0.3,0.2-0.7,0.2-0.9,0l-13.6-11.5c-0.1-0.1-0.2-0.2-0.2-0.4c0-0.1-3-11.9-5.3-24
					c-1.4-7.1-2.2-12.8-2.6-17.2c-0.6-7.5,0.5-9.2,1.5-9.7c1.5-0.9,3.2,0.8,3.7,1.3c4.8,4.7,9.5,14.4,14.2,28.9
					c1.6,5,2.9,9.7,3.8,13.3c-0.1-4.5-0.3-10.6-0.2-16.8c0.1-7.1,0.4-13,1-17.5c0.8-5.8,1.9-9.2,3.6-10.3c0.8-0.5,1.6-0.6,2.5-0.2
					c2.2,0.9,4.3,4.2,6.6,10c1.7,4.4,3.5,10.4,5.3,17.6c1.9,7.7,3.4,15.2,4.2,19.8c0.7-4.6,1.9-12.2,3.6-19.9
					c3.7-16.7,7.9-25.9,12.4-27.5c1.9-0.6,3.7-0.1,5.6,1.7c3.1,3.1,5.1,7.7,5.8,13.7c0.6,4.7,0.3,10.3-0.6,16.7
					c-0.1,0.9-0.3,1.7-0.4,2.6c0.9-2.3,1.8-4.8,2.8-7.2c2.9-7.1,5.6-12.9,8.1-17.2c3.2-5.6,6-8.5,8.5-9.1c1-0.2,2.5-0.1,3.9,1.4
					c4.1,4.7,3.6,14.5-1.4,29.2c-3.7,10.8-8.6,20.4-8.7,20.5c0,0.1-0.1,0.1-0.1,0.2l-11.8,11.5C149.7,173.3,149.5,173.4,149.3,173.4
					z M110.4,161.7c0.6,0,1.9,0.7,7.6,5.1c2.5,2,5,4.1,6,4.9l13.3-9.9c0.3-0.2,0.6-0.2,0.9,0l11.1,9.8l11.2-10.9
					c0.5-1.1,5.1-10.1,8.6-20.2c4.8-14,5.4-23.5,1.7-27.7c-0.8-0.9-1.6-1.2-2.5-1c-7.1,1.5-18,30.4-23.1,45.5
					c-0.8,2.5-1.3,4.1-1.3,4.1c-0.1,0.4-0.5,0.6-0.9,0.4c-0.4-0.1-0.6-0.5-0.5-0.9c0,0,0.4-1.4,1.2-3.7c1.1-3.6,2.7-9.7,3.7-16.2
					c1.5-9.7,1.9-22.6-4.8-29.1c-1.4-1.4-2.8-1.9-4.1-1.4c-8.1,2.8-14,37.6-15.6,50.7c0,0.4-0.3,0.6-0.7,0.6c-0.4,0-0.7-0.2-0.7-0.6
					c-2.2-13.1-9.3-47.9-16-50.8c-0.4-0.2-0.8-0.2-1.1,0.1c-1.4,0.9-3.7,5.7-3.9,26.7c-0.1,12.1,0.5,23.8,0.5,23.9
					c0,0.4-0.2,0.7-0.6,0.7c-0.4,0-0.7-0.2-0.8-0.6c-0.1-0.4-8.3-37.7-19.3-48.5c-0.9-0.9-1.7-1.3-2-1.1c-0.6,0.4-2.4,3.3,1.8,25.4
					c2.1,11.1,4.8,22,5.3,23.7l12.9,10.9c3.5-3.2,10.7-9.6,11.8-9.9C110.2,161.8,110.2,161.7,110.4,161.7z"/>
			</g>
		</g>
		<g>
			<path class="st4" d="M93.8,221.3c-0.1,0-0.2,0-0.3-0.1c-0.2-0.1-0.4-0.3-0.4-0.6l-8.2-58.9c0-0.2,0-0.4,0.2-0.6
				c0.1-0.2,0.3-0.2,0.5-0.2h74.1c0.2,0,0.4,0.1,0.5,0.2c0.1,0.2,0.2,0.4,0.2,0.6l-8.2,58.9c0,0.2-0.2,0.5-0.4,0.6
				c-0.2,0.1-0.5,0.1-0.7-0.1l-0.1-0.1c-3.2-2.2-7.4-2.2-10.5,0.1c-0.2,0.1-0.4,0.2-0.6,0.1l-6-1.2c-5.6-1.1-11.4-0.8-16.8,0.9
				l-0.6,0.2c-0.1,0-0.3,0-0.4,0l-8.4-2.4c-4.6-1.3-9.5-0.5-13.5,2.3C94.1,221.3,94,221.3,93.8,221.3z M103.3,216.8
				c1.6,0,3.2,0.2,4.8,0.7l8.1,2.4l0.4-0.1c5.6-1.8,11.7-2.1,17.5-1l5.7,1.1c3.3-2.3,7.6-2.4,11.1-0.4l8-56.9H86.4l7.9,56.9
				C97.1,217.7,100.2,216.8,103.3,216.8z"/>
		</g>
		<g>
			<path class="st4" d="M116.3,221.3c-0.2,0-0.3-0.1-0.5-0.2l-25.3-20.5c-0.3-0.2-0.4-0.7-0.1-1c0.2-0.3,0.7-0.4,1-0.1l25.3,20.5
				c0.3,0.2,0.4,0.7,0.1,1C116.7,221.2,116.5,221.3,116.3,221.3z"/>
		</g>
		<g>
			<path class="st4" d="M140,221.3c-0.2,0-0.3,0-0.4-0.1l-51.7-39.3c-0.2-0.1-0.3-0.3-0.3-0.5c0-0.2,0.1-0.4,0.2-0.6l10-8.7
				c0.3-0.3,0.7-0.2,1,0.1c0.3,0.3,0.2,0.7-0.1,1l-9.3,8.1l51,38.7c0.3,0.2,0.4,0.7,0.1,1C140.4,221.2,140.2,221.3,140,221.3z"/>
		</g>
		<g>
			<path class="st4" d="M153.1,209.3c-0.1,0-0.3,0-0.4-0.1l-54.7-36c-0.3-0.2-0.4-0.7-0.2-1c0.2-0.3,0.7-0.4,1-0.2l54.8,36
				c0.3,0.2,0.4,0.7,0.2,1C153.5,209.2,153.3,209.3,153.1,209.3z"/>
		</g>
		<g>
			<path class="st4" d="M154,195.3c-0.1,0-0.3,0-0.4-0.1l-28.6-20.9c-0.3-0.2-0.4-0.7-0.2-1c0.2-0.3,0.7-0.4,1-0.2l28.6,20.9
				c0.3,0.2,0.4,0.7,0.2,1C154.4,195.2,154.2,195.3,154,195.3z"/>
		</g>
		<g>
			<path class="st4" d="M91.7,199.7c-0.2,0-0.4-0.1-0.6-0.3c-0.2-0.3-0.2-0.8,0.1-1l32.6-26.3c0.3-0.2,0.8-0.2,1,0.1
				c0.2,0.3,0.2,0.8-0.1,1l-32.6,26.3C92,199.6,91.9,199.7,91.7,199.7z"/>
		</g>
		<g>
			<path class="st4" d="M110.3,219.5c-0.2,0-0.4-0.1-0.6-0.3c-0.2-0.3-0.2-0.8,0.1-1l46.2-34.2c0.3-0.2,0.8-0.2,1,0.1
				c0.2,0.3,0.2,0.8-0.1,1l-46.2,34.2C110.6,219.5,110.5,219.5,110.3,219.5z"/>
		</g>
		<g>
			<path class="st4" d="M131.7,219.8c-0.2,0-0.4-0.1-0.6-0.3c-0.2-0.3-0.2-0.8,0.2-1l22.2-16.2c0.3-0.2,0.8-0.2,1,0.2
				c0.2,0.3,0.2,0.8-0.2,1l-22.2,16.2C132,219.7,131.9,219.8,131.7,219.8z"/>
		</g>
		<g>
			<path class="st4" d="M93.2,217.1c-0.2,0-0.4-0.1-0.6-0.3c-0.2-0.3-0.2-0.8,0.1-1l56.4-43.8c0.3-0.2,0.7-0.2,1,0.1l7.4,7.7
				c0.3,0.3,0.3,0.7,0,1c-0.3,0.3-0.7,0.3-1,0l-6.9-7.2L93.7,217C93.6,217.1,93.4,217.1,93.2,217.1z"/>
		</g>
	</g>
	<g>
		<g>
			<path class="st37" d="M252.3,334l37.8,93.9l21.5-13.4l-22.2-92c-2.9-10.4-18.7-19.7-28.4-14.9l-1,0.5
				c-8.8,4.4-12.6,14.9-8.6,23.8L252.3,334z"/>
			<polygon class="st4" points="278.7,399.5 290.1,427.8 311.5,414.4 306,391.7 			"/>
		</g>
		<g>
			<path class="st38" d="M294.8,311.6l-2.1,0.5c0,0-48.7,11.9-50.8,10.8c0,0-0.1,0-0.1-0.1c0.4-0.8,3.9-7.5,11.3-10.8
				c6.3-2.8,10,2.8,19.9-5.5C282.9,298.4,294.6,311.2,294.8,311.6z"/>
			<path class="st37" d="M268.1,336.1c11.2-1.1,19.4-11.2,18.2-22.3l-0.2-2.1l-2.2-21.3l-2.8-27.8l-42.1-11l4.7,46.4l2,20
				c0.1,0.8,0.2,1.7,0.4,2.5C248.4,330.2,257.8,337.2,268.1,336.1z"/>
			<path class="st39" d="M246.2,320.4c1.8-4.2,8.1-6.8,10.4-5.5c3.5,2.1,10,2.3,17.4-2.5c3.8-2.5,8.5-1.9,12.2-0.7l-2.2-21.3
				l-22.5-1.6l-17.8,9.2l2,20C245.9,318.7,246,319.6,246.2,320.4z"/>
			<path class="st27" d="M243.7,202.9c-30.5-5.9-20.9,48.1-1.8,119.9c0.4-0.7,3.9-7.4,11.3-10.8c6.3-2.8,10,2.8,19.9-5.5
				c9.8-8.2,21.5,4.7,21.7,5C296.4,246.5,262.4,206.5,243.7,202.9z"/>
		</g>
		<g>
			<g>
				<g>
					<path class="st37" d="M225.5,117.9c-1.4,1.4-3,3-4.6,5c-0.7,0.9-1.5,2-2.2,3.1c-4,6.1-8,5.6-11.8,0.9c-1.6-2-3.3-4.8-4.8-8.2
						c-0.1-0.2-0.2-0.3-0.2-0.5c-3.8-8.4-7.3-20.1-10.3-32c-2.4-9.6-4.4-19.4-6-27.5c-2.3-11.7-3.6-20-3.6-20l13.6-8.1
						c0,0,5.7,21.2,26.1,53.2c7.4,11.6,10.5,18.1,11,22.4C233.2,111.5,229.9,113.6,225.5,117.9z"/>
				</g>
			</g>
			<path class="st40" d="M192,48.9l4.4-3.2c0,0,5.9-3,8.3-8.5c2.4-5.5,5.6-12.1,6.9-13.1c1.4-1.1-2.6-3.1-7.3,1.7
				c-4.7,4.8-3.7,4.1-5,2.6c0.3-3,2.9-21.1,0-21.4c-2.9-0.3-3.3,11.7-4.2,11.8c-1,0,1.2-16.8-2.2-15.8c-3.4,1-2.4,14.5-3.2,15.1
				c-0.8,0.6-1-12.4-2.2-12.8c-1.1-0.4-2.8-2.3-2.6,13.6c0.2,6.3-2.1,2-2.1,2s-4.4-12.9-4.8-6c-0.5,8.8,4.5,28.8,4.9,30.6
				C184.7,54,188.4,52.1,192,48.9z"/>
			<g>
				<path class="st37" d="M291.2,152.2c-0.8,2.1-2.1,4.2-4,6.4c-4.9,5.7-15.6,5.3-27.9,1.4c-7.7-2.4-16.1-6.2-23.9-10.6
					c-1.2-0.7-2.3-1.3-3.5-2c-10.5-6.3-19.8-13.5-25.3-20.1l0.3-0.5l6.5-9.7l1.6-2.3l15.7-9.3c0.5,0.2,1.2,0.5,1.8,0.7
					c10.2,4,36.4,13.1,44.7,19.1c3.2,2.3,6.1,4.7,8.4,7.3C291.2,138.5,294,145.2,291.2,152.2z"/>
			</g>
			<path class="st40" d="M262.1,155.1l-2.8,5c-7.7-2.4-16.1-6.2-23.9-10.6c-1.2-0.7-2.3-1.3-3.5-2c-10.5-6.3-19.8-13.5-25.3-20.1
				l0.3-0.5c-1.6-2-3.3-4.8-4.8-8.2l-10.5-32.5c-2.4-9.6-4.4-19.4-6-27.5c1.3-2,3.2-2,5,8.4c2.5,14.2,9.5,37.2,22.9,50.1
				c2.3,2.2,4.8,4.2,7.5,5.7c1.8,1,3.6,1.8,5.6,2.5C248.7,132.7,262.1,155.1,262.1,155.1z"/>
		</g>
		<g>
			<g>
				<path class="st40" d="M282.1,337.4l69.9,73.1l15-20.4l-54.7-77c-6.5-8.6-24.8-11.6-32-3.5l-0.7,0.8c-6.5,7.3-6.1,18.5,0.9,25.3
					L282.1,337.4z"/>
				<polygon class="st4" points="332.5,390.1 352,410.5 366.9,390.1 354.7,372.9 				"/>
				<g>
					<g>
						<path class="st27" d="M378.5,393.5c0.4,0.3,0.7,0.6,0.9,0.9c0.2,0.3,0.4,0.9,0.4,1.7c0.3,3.5-1.2,7-3.8,9.4l-6.4,5.9
							c-2.4,2.2-4.5,4.8-6.1,7.6l-6.9,12c-2.1,3.7-4.8,7.1-8,10l-4.5,4.1c-0.4,0.6-1,0.9-1.7,1c-0.7,0.1-1.5-0.1-2.1-0.6
							c-0.7-0.7-1.6-1.5-2.4-2.4c-1-1.2-2-2.7-2.7-4.3c-1.7-4.2,8.3-19.9,9.4-28.4c0.1-0.7-5.6-11.4-5.6-11.4c0,0,17.7-2.2,17.7-2.2
							c1.5-0.2,2.9-0.9,3.9-1.9c1-1,1.7-2.4,1.8-3.9l0.1-1l0.5-5.3l1.3,0.7l10.4,6.1L378.5,393.5z"/>
					</g>
					<path class="st41" d="M378.5,393.5c0.4,0.3,0.7,0.6,0.9,0.9c0.2,0.3,0.4,0.9,0.4,1.7c0.3,3.5-1.2,7-3.8,9.4l-6.4,5.9
						c-2.4,2.2-4.5,4.8-6.1,7.6l-6.9,12c-2.1,3.7-4.8,7.1-8,10l-4.5,4.1c-0.4,0.6-1,0.9-1.7,1c-0.7,0.1-1.5-0.1-2.1-0.6
						c-0.7-0.7-1.6-1.5-2.4-2.4c3.4-1.2,8-3.7,10.4-8.9c4-8.7,6.9-17.8,13.4-23.1c6.5-5.3,4.7-5.8,9.7-10.1c2.6-2.2,3.3-6.2,3.4-9.6
						L378.5,393.5z"/>
				</g>
			</g>
			<g>
				<path class="st38" d="M322,306.4l-2.2,0.8c0,0-52.7,17.3-54.8,16.4c0,0-0.1,0-0.1-0.1c0,0,0,0,0-0.1c0.4-0.8,4.8-8.1,12.9-12.3
					c6.9-3.6,10.3,1.9,21.6-7.7C310.6,293.8,321.8,306,322,306.4z"/>
				<path class="st40" d="M308,282l1,10.5l1.5,15l0.7,7.1c1.1,11.2-7.2,21.2-18.3,22.3c-11,1.1-20.9-6.9-22.2-17.9
					c0-0.1,0-0.3,0-0.4l-2.8-29.3l-1-10.5L308,282z"/>
				<path class="st39" d="M309,292.5l-13.9-4.5l-27.4,1.2l2.8,29.3c0,0.1,0,0.3,0,0.4c4.4-6.9,12.9-8.5,15.4-7.6
					c2.8,1,8.3,2.8,14.8-1.9c3.6-2.6,7.2-2.5,9.7-2L309,292.5z"/>
				<path class="st42" d="M278,198.4c-19.9,0.4-49.5,16.7-13,125c0.4-0.8,4.8-8.1,12.9-12.3c6.9-3.6,10.3,1.9,21.6-7.7
					c11.1-9.5,22.3,2.7,22.5,3.1C329.7,238.5,297.9,198,278,198.4z"/>
			</g>
		</g>
		<path class="st40" d="M321.1,134.6c-1.4,8.2-18.2,12.3-37.5,9.1c-19.3-3.2-33.8-12.5-32.4-20.8c1.4-8.2,18.2-12.3,37.5-9.1
			C307.9,117.1,322.5,126.4,321.1,134.6z"/>
		<g>
			<g>
				<path class="st40" d="M301,122.1L300.8,91l-15.2-0.6c0,0.1-0.1,0.2-0.1,0.4c-0.3,1.3-1,4.1-2.2,9.5c-0.1,0.6-0.3,1.2-0.4,1.8
					c-0.6,2.9-1.4,6.4-2.3,10.6c-0.5,2.1-1,4.4-1.5,6.9c-0.7,3.2-1.5,6.8-2.3,10.7c-0.7,3.2,0.9,6.5,3.9,7.9
					c6.2,2.9,12.4,1.1,16.3-0.7c2.5-1.2,4.1-3.7,4.1-6.5L301,122.1z"/>
				<path class="st40" d="M285.6,90.4c0,0.1-0.1,0.2-0.1,0.4c-0.3,1.3-1,4.1-2.2,9.5c-0.1,0.6-0.3,1.2-0.4,1.8l-0.9,4.1
					c0,0,15-2.5,19,10.8c0.1,0.3-0.1-26-0.1-26L285.6,90.4z"/>
			</g>
		</g>
		<path class="st40" d="M282.2,73.1c0,0-17.9,25.3-10.3,28.7c10.6,4.7,16,5.7,23.5-1.6c2.6-2.5,4.7-7.9,6.2-12.8
			c2.3-7.7-2.6-15.9-10.5-17.2C288.1,69.8,284.9,70.3,282.2,73.1z"/>
		<g>
			<path class="st26" d="M278,91.9c-1,0-2-0.3-2.6-1.4c-0.2-0.3-0.2-0.7-0.1-1c0.1-0.3,0.4-0.6,0.7-0.8l1.5-0.7
				c1.6-0.7,2.9-1.9,3.8-3.4l1.4-2.4c0.1-0.2,0.3-0.2,0.5-0.1c0.2,0.1,0.2,0.3,0.1,0.5l-1.4,2.4c-0.9,1.7-2.4,3-4.1,3.7l-1.5,0.7
				c-0.1,0.1-0.3,0.2-0.3,0.3c-0.1,0.2,0,0.3,0,0.5c0.9,1.8,3.3,0.8,3.4,0.8c0.2-0.1,0.4,0,0.5,0.2c0.1,0.2,0,0.4-0.2,0.5
				C279.2,91.8,278.6,91.9,278,91.9z"/>
		</g>
		<path class="st26" d="M289.4,84.8c0,0.7-0.6,1.2-1.2,1.1c-0.7,0-1.2-0.6-1.1-1.2c0-0.7,0.6-1.2,1.2-1.1
			C288.9,83.6,289.4,84.2,289.4,84.8z"/>
		<path class="st26" d="M281,82c0,0.7-0.6,1.2-1.2,1.1c-0.7,0-1.2-0.6-1.1-1.2c0-0.7,0.6-1.2,1.2-1.1C280.5,80.8,281,81.4,281,82z"
			/>
		<g>
			<path class="st40" d="M286.4,97.2c-0.1,0-0.1,0-0.2-0.1c-0.2-0.1-0.2-0.3-0.1-0.5c0.5-0.7,0.6-1.3,0.4-1.7c-0.3-0.8-1.6-1-1.6-1
				c-0.2,0-0.3-0.2-0.3-0.4c0-0.2,0.2-0.3,0.4-0.3c0.1,0,1.7,0.3,2.2,1.4c0.3,0.7,0.1,1.5-0.5,2.4C286.6,97.2,286.5,97.2,286.4,97.2
				z"/>
		</g>
		<g>
			<g>
				<g>
					<g>
						<path class="st4" d="M322.4,245.1c0,0-4.5-0.6-11.7-2c-7-1.4-17.2-2.1-28.6-3.4c-19.2-2.2-41.6-6.1-56.9-18.1
							c-2.7-2.1-2-7.9-2.1-17.6c0,0,3.5-26.5,12-51.3c2-5.7,4.2-11.4,6.6-16.6c3.9-8.1,8.4-15.1,13.7-19.8c2.1-1.9,6-3,10.9-3.4
							c0.9-0.1,1.9-0.1,3-0.2c0.9,0,1.9,0,2.9,0c0.8,0,1.7,0,2.6,0.1c0.5,0,1,0.1,1.5,0.1c-0.3,0.3-0.6,0.8-0.9,1.3
							c-5.9,11,5.2,23.3,16.8,18.8c5.9-2.3,12.1-6.2,16.7-12.9c0.6,0.2,1.2,0.5,1.8,0.7c0.6,0.2,1.1,0.5,1.7,0.7c1,0.4,2,0.9,3,1.3
							c3.1,1.5,5.8,2.9,8.1,4.4c2.7,1.7,4.8,3.5,6.3,5.6c1.4,1.9,2.4,4,2.9,6.5c0,0,0,0.1,0,0.1c2.1,11-11,29.9-13.4,52.6
							C316.6,216.5,322.4,245.1,322.4,245.1z"/>
					</g>
				</g>
				<path class="st27" d="M322.4,245.1c0,0-4.5-0.6-11.7-2c-7-1.4-17.2-2.1-28.6-3.4c-5.5-15,10.6-32.4,12.8-47
					c9.2-61.2,18.3-66.6,28.6-65.4c2.7,1.7,4.8,3.5,6.3,5.6c1.4,1.9,2.4,4,2.9,6.5c0,0,0,0.1,0,0.1c2.1,11-11,29.9-13.4,52.6
					C316.6,216.5,322.4,245.1,322.4,245.1z"/>
			</g>
		</g>
		<path class="st26" d="M275.8,78.2c0.9,1.7,3.5-0.8,5.1-2.3c8.5-8.2,16.5,2.6,16.3,4.2c-0.1,0.7-0.3,1.5-0.8,2.6
			c-2.2,4.6,8.3,0.3,6.6,4.2c-1.1,2.6-3.7,4.2-1.9,10.2c0.3,0.9,13.6-13.7,10.9-15.6c-2.8-2.1,2-7.2,1.7-9.1c-0.3-2-1.8-3.9-4.4-3.1
			c-2.7,0.8,0.7-3.9-2.3-5.9c-2.9-2-3.6,1.1-6.8,0c-1.8-0.6-0.3-4.5-3.8-5.5c-3.5-1-3.3,1.7-7,1.4c-3.4-0.3-3-3.3-4.4-3.5
			C275.8,54.5,271.2,70.1,275.8,78.2z"/>
		<path class="st40" d="M303.7,90.2c-1.1,1.8-3,2.7-4.3,1.9c-1.3-0.8-1.4-2.9-0.3-4.7c1.1-1.8,3-2.7,4.3-1.9
			C304.6,86.3,304.8,88.4,303.7,90.2z"/>
		<path class="st4" d="M275,93.5l8.4,1.8c0,0-0.8,4.2-5.2,2.7C273.9,96.5,275,93.5,275,93.5z"/>
		<g>
			<path class="st27" d="M282.7,412.9c0,0,8.4,20.2,2.8,35.8c-5.5,15.6-6.7,21.2-1.3,24.3c4.4,2.5,14.9-13,18.6-18.7
				c0.8-1.2,1.4-2.6,1.8-4c0.9-3.4,3.2-10.5,7.3-14.3c3-2.8,5.9-7,7.9-10.3c1.4-2.3,0.6-5.3-1.9-6.7c-2.9-1.6-6.3-4.2-7.4-7.8
				c-2.5,2-4.3,3.7-5.7,5c-2.9,2.7-7.2,3.4-10.9,1.8L282.7,412.9z"/>
			<path class="st41" d="M286,473.2c0,0,15.2-16.8,21.1-34.5c5.8-17.8,8.7-21.4,13.4-16.4C325.2,427.2,291,482.4,286,473.2z"/>
		</g>
		<path class="st42" d="M312.4,121.5c-4.1,6-10.1,10.6-17.2,13.5c-14,5.7-28.2-7.9-23.1-22.2c0,0,0-0.1,0.1-0.1c0.8,0,1.7,0,2.6,0.1
			c0.5,0,2.7-0.1,3.3-0.1c-0.1,0.2-0.4,0.3-0.4,0.6c-3.4,12,5.2,16,17.5,12.5c3.7-1.1,7.9-3.2,11-6.9c0.6,0.2,4.2,1.6,4.8,1.9
			C311.2,121,311.8,121.3,312.4,121.5z"/>
	</g>
	<g>
		<path class="st43" d="M215.2,55.8c0,4-0.5,8-1.4,11.7c-0.2,0.7-0.4,1.4-0.6,2.1c-5,16.8-19.1,29.7-36.5,33.2
			c-1.3,0.3-2.6,0.5-3.9,0.6c-0.6,0.1-1.2,0.1-1.8,0.2c-6.5-0.4-13.3-1.4-20.4-3.1c0.1,0.1,0.2,0.2,0.3,0.3
			c-0.5-0.2-1.1-0.4-1.6-0.6c-0.3-0.1-0.7-0.3-1-0.4c-16.9-7.4-28.7-24.3-28.7-43.9c0-8.6,2.2-16.6,6.2-23.5c0.3-0.5,0.6-1,0.9-1.4
			c2.1-3.5,4.7-6.6,7.6-9.4c0.4-0.4,0.9-0.8,1.3-1.2c5.3-4.8,11.7-8.4,18.8-10.4c0.5-0.2,1.1-0.3,1.6-0.4c3.7-0.9,7.6-1.4,11.6-1.4
			c5.8,0,11.5,1,16.6,3c1.2,0.4,2.3,0.9,3.4,1.4c6.1,2.8,11.6,6.9,16,11.9c0.4,0.4,0.7,0.8,1.1,1.3
			C211.2,33.7,215.2,44.3,215.2,55.8z"/>
		<path class="st44" d="M208.9,51.6c0,22.4-18.2,40.6-40.6,40.6c-22.4,0-40.6-18.2-40.6-40.6S145.9,11,168.3,11
			C190.8,11,208.9,29.2,208.9,51.6z"/>
	</g>
	<g>
		<g>
			<g>
				<path class="st40" d="M255.5,143.1c-0.5,1.9-1.1,4.1-1.4,6.7c-0.2,1.2-0.3,2.4-0.4,3.8c-0.4,7.3-4.1,8.9-9.7,6.8
					c-2.4-0.9-5.2-2.5-8.3-4.6c-0.2-0.1-0.3-0.2-0.5-0.3c-7.5-5.3-16.5-13.7-25-22.5c-6.9-7.1-13.6-14.5-19.1-20.7
					c-7.8-8.9-13.2-15.5-13.2-15.5l7.7-13.8c0,0,15.6,15.4,49.3,32.9c12.2,6.3,18.2,10.3,20.8,13.9
					C258.8,133.7,257.1,137.2,255.5,143.1z"/>
			</g>
		</g>
		<path class="st40" d="M191.7,100.4l2.2-5c0,0,3.6-5.6,2.9-11.5c-0.6-6-1.3-13.2-0.6-14.8c0.6-1.6-3.8-1.4-5.4,5.1
			c-1.6,6.5-1.1,5.4-3,4.8c-1.3-2.7-8.1-19.7-10.8-18.5c-2.7,1.2,3.1,11.8,2.3,12.3c-0.8,0.5-7.5-15.1-9.9-12.5
			c-2.4,2.6,5.2,13.7,4.8,14.7c-0.4,0.9-7.1-10.2-8.3-10c-1.2,0.2-3.6-0.6,4.6,13.1c3.3,5.3-0.8,2.8-0.8,2.8s-10.3-9-7.2-2.8
			c4,7.9,18.4,22.6,19.6,24C188,108.5,190.3,105,191.7,100.4z"/>
		<g>
			<path class="st40" d="M329.5,139.7c0.3,2.2,0.3,4.8-0.2,7.6c-1.4,7.4-10.9,12.4-23.3,15.3c-7.9,1.8-17,2.7-26,2.9
				c-1.4,0-2.7,0-4,0c-12.2-0.1-23.9-1.7-31.9-4.6l0-0.6l0.8-11.7l0.2-2.8l8.9-16c0.6-0.1,1.2-0.2,2-0.3c10.8-1.7,38.6-5.2,48.7-4.3
				c3.9,0.4,7.1-0.8,10.5,0.2C322.6,127.8,328.3,132.2,329.5,139.7z"/>
		</g>
		<path class="st39" d="M305.8,156.8l0.1,5.7c-7.9,1.8-17,2.7-26,2.9c-1.4,0-2.7,0-4,0c-12.2-0.1-23.9-1.7-31.9-4.6l0-0.6
			c-2.4-0.9-5.2-2.5-8.3-4.6l-25.5-22.8c-6.9-7.1-13.6-14.5-19.1-20.7c0.1-2.3,1.7-3.3,8.5,4.7c9.3,11,26.9,27.3,45,31.8
			c3.1,0.8,6.2,1.2,9.3,1.1c2,0,4.1-0.2,6.1-0.7C282.9,144.2,305.8,156.8,305.8,156.8z"/>
	</g>
	<g>
		<g>
			<g>
				<g>
					<path class="st0" d="M27.5,324.3c-4.7,0-10.4-2.5-14.7-6.9c-6-6.2-2.2-16.5-2.1-17c0.1-0.2,0.3-0.4,0.5-0.4
						c0.6,0,13.6-0.5,19.6,5.7c3.6,3.8,5.5,8.2,5.1,11.9c-0.3,2.3-1.4,4.2-3.3,5.3C31.2,323.9,29.4,324.3,27.5,324.3z M11.7,301.3
						c-0.6,1.9-2.9,10.2,1.9,15.2c5.6,5.8,13.9,8.2,18.4,5.4c1.6-1,2.5-2.5,2.7-4.4c0.4-3.3-1.4-7.4-4.8-10.9
						C25,301.5,14,301.3,11.7,301.3z"/>
				</g>
				<g>
					<polygon class="st0" points="38.5,329.9 21.4,312 22.2,311.2 39.3,329 					"/>
				</g>
			</g>
			<path class="st1" d="M210.6,452.4c16.5-7.7,28.7-18.1,25.3-32.6c-10.2-43.4-46.8-47.8-80.2-17.7c16.4-22.9,8.8-71.5-28.5-63
				c-31.9,7.3-20.2,47.7-7.9,66.3c-40.4-38.2-74.9-10.8-63,7.6c0.2,0.4,0.5,0.7,0.7,1.1c16,24,43.2,38.3,72.1,38.3H210.6z"/>
			<g>
				<g>
					<path class="st0" d="M179.8,417.5c-2,0-3.8-0.4-5.2-1.4c-1.8-1.2-2.9-3-3.2-5.2c-0.4-3.7,1.6-8.1,5.2-11.8c6-6,19-5.5,19.5-5.4
						l0.3,0l0.1,0.3c0.2,0.4,3.8,10.7-2.3,16.8C190.1,415,184.5,417.5,179.8,417.5z M195.2,394.6c-3.2,0-13.1,0.4-17.8,5.2
						c-3.5,3.5-5.3,7.6-5,11c0.2,1.9,1.1,3.5,2.7,4.5c4.5,2.9,12.9,0.6,18.6-5.3c5.1-5.1,2.7-13.8,2.1-15.5
						C195.7,394.6,195.5,394.6,195.2,394.6z"/>
				</g>
				<g>
					<polygon class="st0" points="168.3,422.8 167.7,422.1 185.2,404.6 185.8,405.3 					"/>
				</g>
			</g>
		</g>
		<g>
			<g>
				<path class="st5" d="M50.2,303.9c1.3-3.9,5.5-6,9.4-4.8c3.9,1.3,6,5.5,4.8,9.4c-1.3,3.9-5.5,6-9.4,4.8
					C51.1,312,48.9,307.8,50.2,303.9z M62.6,307.9c1-2.9-0.7-6.1-3.6-7c-2.9-1-6.1,0.7-7,3.6c-1,2.9,0.7,6.1,3.6,7
					C58.5,312.5,61.7,310.9,62.6,307.9z"/>
			</g>
			<path class="st5" d="M66.2,284.6c-2-0.6-3-2.7-2.4-4.7c0.6-2,2.7-3,4.7-2.4c2,0.6,3,2.7,2.4,4.7
				C70.2,284.2,68.1,285.2,66.2,284.6z"/>
		</g>
	</g>
	<path class="st5" d="M123.4,452.2h45.2c6.3-2.9,13.1-7.5,11.2-14.1c-3-10.5-14.1-17.9-24.2-6.6c4.9-8.6,6.2-22.4-8.5-20.3
		c-9.8,1.4-11.3,10.5-10.8,18.1c-2.2-5.5-11.9-10.2-18.6-6.4C103.5,431,111.3,446.8,123.4,452.2z"/>
</g>
</svg>
